<svg id="Capa_1" enable-background="new 0 0 512 512" height="512" viewBox="0 0 512 512" width="512" xmlns="http://www.w3.org/2000/svg"><g><g><circle cx="256" cy="100" r="20"/></g><path d="m60 200h392c33.084 0 60-26.916 60-60 0-24.655-14.774-46.506-37.645-55.692 0 0-196.036-80.014-196.079-80.032-7.094-2.837-14.589-4.276-22.276-4.276-7.686 0-15.181 1.439-22.275 4.277-.044.017-196.079 80.032-196.079 80.032-22.872 9.185-37.646 31.036-37.646 55.691 0 33.084 26.916 60 60 60zm-7.42-78.584c.044-.017 196.05-80.02 196.05-80.02 4.668-1.853 10.073-1.853 14.741 0 0 0 196.006 80.002 196.05 80.02 7.641 3.057 12.579 10.351 12.579 18.584 0 11.028-8.972 20-20 20h-392c-11.028 0-20-8.972-20-20 0-8.232 4.938-15.527 12.58-18.584z"/><path d="m452 392h-392c-33.084 0-60 26.916-60 60s26.916 60 60 60h392c33.084 0 60-26.916 60-60s-26.916-60-60-60zm0 80h-392c-11.028 0-20-8.972-20-20s8.972-20 20-20h392c11.028 0 20 8.972 20 20s-8.972 20-20 20z"/><path d="m412 352c11.046 0 20-8.954 20-20v-72c0-11.046-8.954-20-20-20s-20 8.954-20 20v72c0 11.046 8.954 20 20 20z"/><path d="m332 352c11.046 0 20-8.954 20-20v-72c0-11.046-8.954-20-20-20s-20 8.954-20 20v72c0 11.046 8.954 20 20 20z"/><path d="m100 352c11.046 0 20-8.954 20-20v-72c0-11.046-8.954-20-20-20s-20 8.954-20 20v72c0 11.046 8.954 20 20 20z"/><path d="m180 352c11.046 0 20-8.954 20-20v-72c0-11.046-8.954-20-20-20s-20 8.954-20 20v72c0 11.046 8.954 20 20 20z"/></g></svg>