<svg id="Capa_1" enable-background="new 0 0 512.005 512.005" height="512" viewBox="0 0 512.005 512.005" width="512" xmlns="http://www.w3.org/2000/svg"><g><g><path d="m452.002 0h-392c-33.084 0-60 26.916-60 60v232c0 33.084 26.916 60 60 60h392c33.084 0 60-26.916 60-60v-232c0-33.084-26.916-60-60-60zm20 292c0 11.028-8.972 20-20 20h-392c-11.028 0-20-8.972-20-20v-232c0-11.028 8.972-20 20-20h392c11.028 0 20 8.972 20 20z"/><path d="m356.6 496.851c2.679 10.717 13.535 17.23 24.253 14.552 10.716-2.679 17.231-13.538 14.552-24.253l-20-80c-2.679-10.716-13.541-17.229-24.253-14.552-10.716 2.679-17.231 13.538-14.552 24.253l3.787 15.149h-168.77l3.787-15.149c2.68-10.716-3.836-21.575-14.552-24.253-10.719-2.679-21.574 3.835-24.253 14.552l-20 80c-2.68 10.716 3.836 21.575 14.552 24.253 10.716 2.679 21.574-3.836 24.253-14.552l6.213-24.851h188.77z"/></g><path d="m412.002 76h-80c-11.046 0-20 8.954-20 20s8.954 20 20 20h32.459l-94.416 97.672c-3.766 3.715-8.747 5.759-14.043 5.759-5.208 0-10.112-1.977-13.855-5.577l-39.053-43.014c-.216-.238-.438-.471-.665-.698-11.332-11.333-26.399-17.574-42.427-17.574-16.026 0-31.094 6.241-42.427 17.573l-31.715 31.717c-7.81 7.811-7.81 20.474 0 28.284 7.811 7.811 20.475 7.811 28.285 0l31.715-31.716c3.778-3.778 8.801-5.858 14.143-5.858 5.209 0 10.113 1.977 13.855 5.577l39.053 43.014c.216.238.438.471.666.698 11.332 11.332 26.399 17.573 42.426 17.573s31.095-6.241 42.427-17.574c.08-.08.159-.16.237-.241l93.336-96.554v30.939c0 11.046 8.954 20 20 20s20-8.954 20-20v-80c-.001-11.046-8.955-20-20.001-20z"/></g></svg>