<svg xmlns="http://www.w3.org/2000/svg" width="36.392" height="35.867" viewBox="0 0 36.392 35.867">
  <g id="education" transform="translate(0.001 -0.923)">
    <path id="Контур_566" data-name="Контур 566" d="M10.706,37.412H34.019V34H10.706a1.706,1.706,0,1,0,0,3.412Z" transform="translate(-3.883 -14.269)" fill="#eceff0"/>
    <path id="Контур_567" data-name="Контур 567" d="M8.04,48a3.127,3.127,0,1,0,0,6.255S36.8,54.248,36.8,54.239V48.016C36.8,48.007,8.04,48,8.04,48Z" transform="translate(-2.119 -20.308)" fill="#dedfdf"/>
    <path id="Контур_568" data-name="Контур 568" d="M3.174,49.4A3.127,3.127,0,0,1,6.3,46.274H35.117a1.137,1.137,0,1,0,0-2.274H6.4a5.4,5.4,0,1,0,0,10.8H35.117a1.137,1.137,0,1,0,0-2.274H6.3A3.127,3.127,0,0,1,3.174,49.4Z" transform="translate(-0.432 -18.583)" fill="#db3a3a"/>
    <path id="Контур_569" data-name="Контур 569" d="M8.991,35.686H32.3a1.137,1.137,0,0,1,0,2.274H9A3.98,3.98,0,1,1,9,30H32.3a1.137,1.137,0,0,1,0,2.274H8.991a1.706,1.706,0,1,0,0,3.412Z" transform="translate(-2.168 -12.543)" fill="#5783e4"/>
    <path id="Контур_570" data-name="Контур 570" d="M17,23.961S19.132,26.8,25.529,26.8s8.529-2.843,8.529-2.843V16H17Z" transform="translate(-7.334 -6.504)" fill="#414141"/>
    <path id="Контур_571" data-name="Контур 571" d="M21.216,2,7,7.686l14.216,5.686L35.431,7.686Z" transform="translate(-3.02 -0.465)" fill="#5a5a5a"/>
    <path id="Контур_572" data-name="Контур 572" d="M50,30.823h3.412L52.274,24H51.137Z" transform="translate(-21.569 -9.955)" fill="#ffdc32"/>
    <circle id="Эллипс_54" data-name="Эллипс 54" cx="1.422" cy="1.422" r="1.422" transform="translate(28.715 12.623)" fill="#facd1e"/>
    <path id="Контур_573" data-name="Контур 573" d="M35.254,33.483V28.156a1.7,1.7,0,0,0-.569-3.307H31.737a1.685,1.685,0,0,0,.1-.569,1.7,1.7,0,0,0-1.137-1.6V21.437h1.809l-.995-5.966a1.977,1.977,0,0,0-.814-3.324V9.673l-1.481-.564,4.717-1.887L18.2.923,2.449,7.222,9.1,9.881v7.007H6.823a4.544,4.544,0,0,0-2.651,8.238A5.97,5.97,0,0,0,5.97,36.79H34.685a1.7,1.7,0,0,0,.569-3.307ZM34.117,29.4H23.882v1.137H34.117v2.843H5.869a2.559,2.559,0,1,1,0-5.118H34.117Zm-4.549-6.823H6.823a1.137,1.137,0,0,1,0-2.274h6.81a17.124,17.124,0,0,0,4.563.569,17.124,17.124,0,0,0,4.563-.569h5.191l-.19,1.137h1.809ZM26.98,18.025h1.348l-.19,1.137h-2.63a6.907,6.907,0,0,0,1.471-1.137ZM31.171,20.3H29.1l.716-4.3a1.592,1.592,0,0,0,.637,0Zm-.181-6.255a.853.853,0,1,1-.853-.853.853.853,0,0,1,.853.853Zm-1.422-3.588v1.691a1.977,1.977,0,0,0-.814,3.324l-.236,1.416H27.293V9.881l.372-.149ZM18.2,2.148,30.88,7.222l-3.224,1.29L18.4,4.984l-.4,1.063,8.1,3.088L18.2,12.3,5.511,7.222Zm0,11.372,7.961-3.184v6.905c-.509.528-2.755,2.49-7.961,2.49s-7.456-1.966-7.961-2.489V10.336ZM3.411,21.437a3.415,3.415,0,0,1,3.412-3.412H9.411a6.907,6.907,0,0,0,1.471,1.137H6.823a2.274,2.274,0,1,0,0,4.549H30.136a.569.569,0,0,1,0,1.137H6.823a3.415,3.415,0,0,1-3.412-3.412ZM34.685,35.653H5.97a4.833,4.833,0,1,1,0-9.667H34.685a.569.569,0,1,1,0,1.137H5.869a3.7,3.7,0,1,0,0,7.392H34.685a.569.569,0,1,1,0,1.137Z" fill="#2478dd"/>
    <path id="Контур_574" data-name="Контур 574" d="M10,54H25.921v1.137H10Z" transform="translate(-4.314 -22.896)" fill="#2478dd"/>
  </g>
</svg>
