<svg id="Capa_1" enable-background="new 0 0 512 512" height="512" viewBox="0 0 512 512" width="512" xmlns="http://www.w3.org/2000/svg"><g><path d="m216 436h80c33.084 0 60-26.916 60-60v-31.716l5.858 5.858c7.811 7.811 20.474 7.811 28.284 0 7.811-7.811 7.811-20.474 0-28.284l-91.716-91.716c-11.333-11.333-26.4-17.574-42.426-17.574s-31.094 6.241-42.426 17.574l-91.716 91.716c-7.811 7.811-7.811 20.474 0 28.284s20.474 7.811 28.284 0l5.858-5.858v31.716c0 33.084 26.916 60 60 60zm25.858-177.574c3.778-3.777 8.8-5.858 14.142-5.858s10.364 2.081 14.142 5.858l45.858 45.858v71.716c0 11.028-8.972 20-20 20h-20v-20c0-11.046-8.954-20-20-20s-20 8.954-20 20v20h-20c-11.028 0-20-8.972-20-20v-71.716z"/><path d="m492 289.333c11.046 0 20-8.954 20-20v-49.333c0-53.085-41.58-96.634-93.88-99.807 0 0-123.648-106.236-123.725-106.3-10.75-8.959-24.386-13.893-38.395-13.893s-27.645 4.934-38.395 13.892c-.078.065-123.725 106.301-123.725 106.301-52.3 3.173-93.88 46.722-93.88 99.807v192c0 55.14 44.86 100 100 100h312c55.14 0 100-44.86 100-100v-59.353c0-11.046-8.954-20-20-20s-20 8.954-20 20v59.353c0 33.084-26.916 60-60 60h-312c-33.084 0-60-26.916-60-60v-192c0-33.084 26.916-60 60-60h312c33.084 0 60 26.916 60 60v49.333c0 11.046 8.954 20 20 20zm-248.692-244.791c2.542-2.092 6.781-4.542 12.692-4.542 5.91 0 10.15 2.45 12.691 4.541l87.825 75.459h-201.032z"/><circle cx="100" cy="220.002" r="20"/><circle cx="100" cy="416" r="20"/><circle cx="412" cy="416" r="20"/><circle cx="412" cy="220.002" r="20"/></g></svg>