<svg xmlns="http://www.w3.org/2000/svg" width="46.825" height="38.5" viewBox="0 0 46.825 38.5">
  <g id="wedding-rings" transform="translate(0 -45.518)">
    <path id="Контур_602" data-name="Контур 602" d="M211.306,151.744a13.989,13.989,0,0,0-8.676,3,14.124,14.124,0,0,1,2.127,2.069,11.115,11.115,0,1,1,0,17.961,11.182,11.182,0,0,1-2.127-2.034,11.113,11.113,0,0,1,0-13.894,11.178,11.178,0,0,0-2.127-2.034,14.049,14.049,0,1,0,10.8-5.068Z" transform="translate(-179.217 -96.511)" fill="#ff9522"/>
    <path id="Контур_603" data-name="Контур 603" d="M32.368,156.811a14.133,14.133,0,0,0-2.127-2.069,14.049,14.049,0,1,0,0,22.1,14.131,14.131,0,0,1-2.127-2.069,11.115,11.115,0,1,1,0-17.961,11.18,11.18,0,0,1,2.127,2.034,11.113,11.113,0,0,1,0,13.894,11.18,11.18,0,0,0,2.127,2.034,14.048,14.048,0,0,0,0-17.961Z" transform="translate(-6.829 -96.51)" fill="#ffd039"/>
    <path id="Контур_604" data-name="Контур 604" d="M92.348,62.055a14.147,14.147,0,0,0-2.181.169l-4.743-5.435,3.065-3.762h7.718l3.065,3.762-4.748,5.442A14.12,14.12,0,0,0,92.348,62.055Z" transform="translate(-77.612 -6.822)" fill="#6cc4ff"/>
    <path id="Контур_605" data-name="Контур 605" d="M177.094,56.789l-3.065-3.762H171.7l1.213,3.762-1.83,5.3c.427.03.849.078,1.265.143Z" transform="translate(-155.435 -6.822)" fill="#43b2ef"/>
    <path id="Контур_606" data-name="Контур 606" d="M85.425,56.789l3.065-3.762h2.332l-1.213,3.762,1.83,5.3c-.427.03-.849.078-1.265.143Z" transform="translate(-77.612 -6.822)" fill="#97e4ff"/>
    <path id="Контур_607" data-name="Контур 607" d="M32.089,54.546a14.577,14.577,0,0,0-8.676,2.824,14.556,14.556,0,0,0-5.194-2.414l3.959-4.537,0,0a.684.684,0,0,0,.063-.087l.009-.015a.687.687,0,0,0,.046-.095l.006-.015a.68.68,0,0,0,.029-.1v-.01a.7.7,0,0,0,.01-.1s0-.009,0-.014,0,0,0-.007a.7.7,0,0,0-.007-.1l0-.018a.668.668,0,0,0-.025-.1l0-.013a.686.686,0,0,0-.045-.1l0,0a.68.68,0,0,0-.065-.1l0,0,0,0h0l-3.062-3.759a.687.687,0,0,0-.533-.253H10.877a.687.687,0,0,0-.533.253L7.282,49.53h0l0,0,0,0a.688.688,0,0,0-.065.1l0,0a.7.7,0,0,0-.045.1l0,.013a.7.7,0,0,0-.025.1l0,.018a.684.684,0,0,0-.007.1s0,0,0,.007,0,.009,0,.014a.681.681,0,0,0,.01.1s0,.006,0,.01a.675.675,0,0,0,.029.1l.006.015a.687.687,0,0,0,.046.095l.009.015a.7.7,0,0,0,.063.087l0,0,3.964,4.543a14.737,14.737,0,0,0,3.478,29.057,14.577,14.577,0,0,0,8.676-2.824,14.577,14.577,0,0,0,8.676,2.824,14.736,14.736,0,0,0,0-29.472Zm-17.623,0-.159,0-1.346-3.9h3.551l-1.346,3.9c-.143,0-.286-.007-.429-.007C14.648,54.546,14.558,54.547,14.466,54.549Zm2.117.11,1.383-4h2.182l-3.5,4.013Zm3.63-5.379H17.977l-.77-2.387h1.062Zm-4.451-2.387.77,2.387H12.94l.77-2.387Zm-4.559,0h1.061l-.77,2.387H9.259ZM9.325,50.654h2.182l1.384,4.007-.062.008Zm5.412,31.989A13.362,13.362,0,0,1,12.67,56.08q.239-.037.48-.065l.06-.007c.216-.025.432-.042.649-.057h.01c.16-.01.306-.018.444-.023s.282-.008.422-.008c.281,0,.56.018.864.037h.044l.033,0c.367.028.741.071,1.129.131a.688.688,0,0,0,.106.008h0a13.2,13.2,0,0,1,6.071,2.677q.277.218.543.451t.506.467q.133.13.264.263.371.38.711.788h0A13.361,13.361,0,0,1,25.424,77.3l-.011-.009q-.143-.119-.281-.243L25.079,77c-.074-.067-.147-.135-.219-.2l-.093-.092c-.057-.056-.114-.113-.17-.171l-.1-.106q-.078-.083-.155-.168l-.046-.052a11.774,11.774,0,0,0,2.115-5.174.687.687,0,0,0-1.36-.2,10.39,10.39,0,0,1-1.639,4.236,10.434,10.434,0,0,1,0-11.569,10.361,10.361,0,0,1,1.7,4.707.687.687,0,1,0,1.368-.14A11.746,11.746,0,0,0,23.949,61.9,11.865,11.865,0,0,0,22,59.982q-.154-.121-.313-.236a11.8,11.8,0,0,0-14.683.615.687.687,0,1,0,.9,1.039,10.427,10.427,0,0,1,12.38-.943,14.732,14.732,0,0,0,0,17.651A10.428,10.428,0,0,1,6.166,63.339a.687.687,0,1,0-1.129-.784A11.8,11.8,0,0,0,21.17,79.177l.051.055.137.147.133.14.141.144.136.136.145.14.14.132.149.136.1.09A13.21,13.21,0,0,1,14.736,82.643Zm17.353,0a13.225,13.225,0,0,1-8.252-2.852A13.362,13.362,0,0,1,21.4,61.263l.011.009q.143.119.282.243l.055.05c.073.067.146.134.217.2l.095.093c.057.056.113.112.169.17l.1.108c.051.055.1.11.153.166l.047.053a11.8,11.8,0,0,0,2.6,16.46,11.8,11.8,0,0,0,15.175-1.066.687.687,0,1,0-.958-.986,10.426,10.426,0,0,1-12.816,1.343,14.732,14.732,0,0,0,0-17.651A10.429,10.429,0,0,1,40.972,74.746a.687.687,0,1,0,1.17.721A11.8,11.8,0,0,0,25.655,59.386l-.05-.053-.141-.151-.129-.136-.146-.148-.132-.132-.15-.144-.135-.128-.154-.141-.095-.087a13.212,13.212,0,0,1,7.565-2.345,13.361,13.361,0,1,1,0,26.723Z" fill="#2478dd"/>
  </g>
</svg>
