<svg xmlns="http://www.w3.org/2000/svg" width="20.357" height="19" viewBox="0 0 20.357 19">
  <g id="help" transform="translate(-1 -2)">
    <g id="XMLID_349_" transform="translate(1 2)">
      <g id="XMLID_442_" transform="translate(5.437 5.427)">
        <g id="Сгруппировать_12314" data-name="Сгруппировать 12314">
          <path id="Контур_15603" data-name="Контур 15603" d="M12.6,13.922a.341.341,0,0,1-.24-.1L9.111,10.577a.339.339,0,0,1,.48-.48l3.246,3.246a.339.339,0,0,1-.24.579Z" transform="translate(-9.012 -9.998)" fill="#fff"/>
        </g>
      </g>
      <g id="XMLID_441_" transform="translate(9.639 6.434)">
        <g id="Сгруппировать_12315" data-name="Сгруппировать 12315">
          <path id="Контур_15604" data-name="Контур 15604" d="M15.544,14.405a.339.339,0,0,1-.24-.579l2.236-2.245a.339.339,0,1,1,.48.479l-2.236,2.245A.339.339,0,0,1,15.544,14.405Z" transform="translate(-15.205 -11.482)" fill="#fff"/>
        </g>
      </g>
      <g id="XMLID_439_" transform="translate(8.484 8.482)">
        <g id="Сгруппировать_12316" data-name="Сгруппировать 12316">
          <path id="Контур_15605" data-name="Контур 15605" d="M14.521,16.536a1.018,1.018,0,1,1,1.018-1.018A1.019,1.019,0,0,1,14.521,16.536Zm0-1.357a.339.339,0,1,0,.339.339A.339.339,0,0,0,14.521,15.179Z" transform="translate(-13.503 -14.5)" fill="#fff"/>
        </g>
      </g>
      <g id="XMLID_434_" transform="translate(16.625 14.25)">
        <g id="Сгруппировать_12317" data-name="Сгруппировать 12317">
          <path id="Контур_15606" data-name="Контур 15606" d="M27.536,27.75a.339.339,0,0,1-.339-.339V26.393H25.839a.339.339,0,0,1-.288-.519l1.7-2.714a.339.339,0,0,1,.627.18v2.375h.339a.339.339,0,1,1,0,.679h-.339v1.018A.339.339,0,0,1,27.536,27.75Zm-1.084-2.036H27.2V24.522Z" transform="translate(-25.499 -23)" fill="#fff"/>
        </g>
      </g>
      <g id="XMLID_433_" transform="translate(13.571 14.25)">
        <g id="Сгруппировать_12318" data-name="Сгруппировать 12318">
          <path id="Контур_15607" data-name="Контур 15607" d="M23.375,27.75H21.339a.339.339,0,0,1-.282-.527l1.734-2.6a.607.607,0,0,0-.5-.944.608.608,0,0,0-.607.607.339.339,0,0,1-.679,0A1.286,1.286,0,1,1,23.355,25l-1.382,2.073h1.4a.339.339,0,1,1,0,.679Z" transform="translate(-21 -23)" fill="#fff"/>
        </g>
      </g>
      <g id="XMLID_431_" transform="translate(5.259 15.86)">
        <g id="Сгруппировать_12319" data-name="Сгруппировать 12319">
          <path id="Контур_15608" data-name="Контур 15608" d="M9.089,26.11A.339.339,0,0,1,8.8,25.6l.034-.059a.339.339,0,0,1,.588.337l-.034.059A.34.34,0,0,1,9.089,26.11Z" transform="translate(-8.75 -25.372)" fill="#fff"/>
        </g>
      </g>
      <g id="XMLID_430_" transform="translate(2.402 13.03)">
        <g id="Сгруппировать_12320" data-name="Сгруппировать 12320">
          <path id="Контур_15609" data-name="Контур 15609" d="M4.88,21.913a.339.339,0,0,1-.169-.633l.059-.034a.339.339,0,1,1,.337.588l-.059.034A.336.336,0,0,1,4.88,21.913Z" transform="translate(-4.54 -21.201)" fill="#fff"/>
        </g>
      </g>
      <g id="XMLID_429_" transform="translate(1.357 9.161)">
        <g id="Сгруппировать_12321" data-name="Сгруппировать 12321">
          <path id="Контур_15610" data-name="Контур 15610" d="M3.407,16.179H3.339a.339.339,0,1,1,0-.679h.068a.339.339,0,1,1,0,.679Z" transform="translate(-3 -15.5)" fill="#fff"/>
        </g>
      </g>
      <g id="XMLID_428_" transform="translate(2.402 5.259)">
        <g id="Сгруппировать_12322" data-name="Сгруппировать 12322">
          <path id="Контур_15611" data-name="Контур 15611" d="M4.938,10.463a.336.336,0,0,1-.168-.045l-.059-.034A.339.339,0,1,1,5.048,9.8l.059.034a.339.339,0,0,1-.169.633Z" transform="translate(-4.54 -9.75)" fill="#fff"/>
        </g>
      </g>
      <g id="XMLID_427_" transform="translate(5.258 2.402)">
        <g id="Сгруппировать_12323" data-name="Сгруппировать 12323">
          <path id="Контур_15612" data-name="Контур 15612" d="M9.123,6.278a.339.339,0,0,1-.295-.17l-.034-.059a.339.339,0,0,1,.589-.337l.034.059a.339.339,0,0,1-.294.508Z" transform="translate(-8.749 -5.54)" fill="#fff"/>
        </g>
      </g>
      <g id="XMLID_426_" transform="translate(9.161 16.896)">
        <g id="Сгруппировать_12324" data-name="Сгруппировать 12324">
          <path id="Контур_15613" data-name="Контур 15613" d="M14.839,27.646a.339.339,0,0,1-.339-.339v-.068a.339.339,0,0,1,.679,0v.068A.339.339,0,0,1,14.839,27.646Z" transform="translate(-14.5 -26.9)" fill="#fff"/>
        </g>
      </g>
      <g id="XMLID_422_" transform="translate(9.161 1.357)">
        <g id="Сгруппировать_12325" data-name="Сгруппировать 12325">
          <path id="Контур_15614" data-name="Контур 15614" d="M14.839,4.746a.339.339,0,0,1-.339-.339V4.339a.339.339,0,0,1,.679,0v.068A.339.339,0,0,1,14.839,4.746Z" transform="translate(-14.5 -4)" fill="#fff"/>
        </g>
      </g>
      <g id="XMLID_421_" transform="translate(15.607 9.5)">
        <g id="Сгруппировать_12326" data-name="Сгруппировать 12326">
          <path id="Контур_15615" data-name="Контур 15615" d="M26.375,20.071a.339.339,0,0,1-.291-.165l-2.036-3.393A.339.339,0,0,1,24.339,16h1.35a.339.339,0,1,1,0,.679h-.75l1.437,2.394,1.436-2.394h-.763a.339.339,0,1,1,0-.679h1.363a.339.339,0,0,1,.291.514l-2.036,3.393a.339.339,0,0,1-.291.165Z" transform="translate(-24 -16)" fill="#fff"/>
        </g>
      </g>
      <g id="XMLID_420_" transform="translate(10.895 1.55)">
        <g id="Сгруппировать_12327" data-name="Сгруппировать 12327">
          <path id="Контур_15616" data-name="Контур 15616" d="M23.457,12.913h-.015a.34.34,0,0,1-.324-.354c0-.109.007-.216.007-.325A7.422,7.422,0,0,0,17.32,4.955a.34.34,0,0,1,.151-.662A8.1,8.1,0,0,1,23.8,12.234c0,.119,0,.237-.007.354A.339.339,0,0,1,23.457,12.913Z" transform="translate(-17.056 -4.284)" fill="#fff"/>
        </g>
      </g>
      <g id="XMLID_416_">
        <g id="Сгруппировать_12328" data-name="Сгруппировать 12328">
          <path id="Контур_15617" data-name="Контур 15617" d="M10.5,21A9.5,9.5,0,1,1,20,11.5c0,.118,0,.235-.007.352a.339.339,0,1,1-.678-.026q.006-.162.006-.326a8.813,8.813,0,1,0-5.9,8.327.356.356,0,0,1,.451.2.322.322,0,0,1-.183.426A9.52,9.52,0,0,1,10.5,21Z" transform="translate(-1 -2)" fill="#fff"/>
        </g>
      </g>
    </g>
  </g>
</svg>
