<svg xmlns="http://www.w3.org/2000/svg" width="19.287" height="19.261" viewBox="0 0 19.287 19.261">
  <g id="life" transform="translate(-7.386 -7.425)">
    <path id="Контур_15585" data-name="Контур 15585" d="M26.238,28.612a.2.2,0,0,1-.141-.061c-.144-.152-3.529-3.744-3.529-5.718a3.67,3.67,0,0,1,7.34,0c0,1.974-3.385,5.567-3.529,5.718a.2.2,0,0,1-.141.061Zm0-9.06a3.284,3.284,0,0,0-3.281,3.281c0,1.605,2.635,4.59,3.281,5.3.646-.708,3.281-3.693,3.281-5.3A3.284,3.284,0,0,0,26.238,19.552Z" transform="translate(-9.208 -7.105)" fill="#fff" stroke="#fff" stroke-width="0.2"/>
    <path id="Контур_15586" data-name="Контур 15586" d="M29.144,27a1.816,1.816,0,1,1,1.816-1.816A1.816,1.816,0,0,1,29.144,27Zm0-3.243a1.427,1.427,0,1,0,1.427,1.427A1.427,1.427,0,0,0,29.144,23.757Z" transform="translate(-12.114 -9.672)" fill="#fff" stroke="#fff" stroke-width="0.2"/>
    <path id="Контур_15587" data-name="Контур 15587" d="M20.909,10.841a1.658,1.658,0,1,1,1.658-1.658,1.658,1.658,0,0,1-1.658,1.658Zm0-2.927a1.269,1.269,0,1,0,1.269,1.269A1.269,1.269,0,0,0,20.909,7.914Z" transform="translate(-7.183)" fill="#fff" stroke="#fff" stroke-width="0.2"/>
    <path id="Контур_15588" data-name="Контур 15588" d="M37.63,10.841a1.658,1.658,0,1,1,1.658-1.658A1.658,1.658,0,0,1,37.63,10.841Zm0-2.927A1.269,1.269,0,1,0,38.9,9.183,1.269,1.269,0,0,0,37.63,7.914Z" transform="translate(-17.391)" fill="#fff" stroke="#fff" stroke-width="0.2"/>
    <path id="Контур_15589" data-name="Контур 15589" d="M20.909,51.266a1.658,1.658,0,1,1,1.658-1.658A1.658,1.658,0,0,1,20.909,51.266Zm0-2.926a1.269,1.269,0,1,0,1.269,1.269A1.269,1.269,0,0,0,20.909,48.34Z" transform="translate(-7.183 -24.68)" fill="#fff" stroke="#fff" stroke-width="0.2"/>
    <path id="Контур_15590" data-name="Контур 15590" d="M37.63,51.266a1.658,1.658,0,1,1,1.658-1.658A1.658,1.658,0,0,1,37.63,51.266Zm0-2.926A1.269,1.269,0,1,0,38.9,49.608,1.269,1.269,0,0,0,37.63,48.34Z" transform="translate(-17.391 -24.68)" fill="#fff" stroke="#fff" stroke-width="0.2"/>
    <path id="Контур_15591" data-name="Контур 15591" d="M9.146,22.479A1.658,1.658,0,1,1,10.8,20.821,1.658,1.658,0,0,1,9.146,22.479Zm0-2.927a1.269,1.269,0,1,0,1.267,1.269,1.269,1.269,0,0,0-1.267-1.269Z" transform="translate(0 -7.105)" fill="#fff" stroke="#fff" stroke-width="0.2"/>
    <path id="Контур_15592" data-name="Контур 15592" d="M49.635,22.479a1.658,1.658,0,1,1,1.658-1.658A1.658,1.658,0,0,1,49.635,22.479Zm0-2.927A1.269,1.269,0,1,0,50.9,20.821,1.269,1.269,0,0,0,49.635,19.552Z" transform="translate(-24.72 -7.105)" fill="#fff" stroke="#fff" stroke-width="0.2"/>
    <path id="Контур_15593" data-name="Контур 15593" d="M9.146,39.547A1.658,1.658,0,1,1,10.8,37.889,1.658,1.658,0,0,1,9.146,39.547Zm0-2.927a1.269,1.269,0,1,0,1.267,1.269A1.269,1.269,0,0,0,9.146,36.62Z" transform="translate(0 -17.525)" fill="#fff" stroke="#fff" stroke-width="0.2"/>
    <path id="Контур_15594" data-name="Контур 15594" d="M49.635,39.547a1.658,1.658,0,1,1,1.658-1.658A1.658,1.658,0,0,1,49.635,39.547Zm0-2.927A1.269,1.269,0,1,0,50.9,37.889,1.269,1.269,0,0,0,49.635,36.62Z" transform="translate(-24.72 -17.525)" fill="#fff" stroke="#fff" stroke-width="0.2"/>
    <path id="Контур_15595" data-name="Контур 15595" d="M30.546,11.671H26.96a.195.195,0,0,1,0-.389h3.586a.195.195,0,1,1,0,.389Z" transform="translate(-11.77 -2.294)" fill="#fff" stroke="#fff" stroke-width="0.2"/>
    <path id="Контур_15596" data-name="Контур 15596" d="M14.185,16.723a.195.195,0,0,1-.142-.328l2.423-2.564a.195.195,0,1,1,.283.268l-2.423,2.563a.2.2,0,0,1-.141.062Z" transform="translate(-3.971 -3.81)" fill="#fff" stroke="#fff" stroke-width="0.2"/>
    <path id="Контур_15597" data-name="Контур 15597" d="M11.443,30.788a.2.2,0,0,1-.195-.195V26.872a.195.195,0,0,1,.389,0v3.721A.2.2,0,0,1,11.443,30.788Z" transform="translate(-2.297 -11.693)" fill="#fff" stroke="#fff" stroke-width="0.2"/>
    <path id="Контур_15598" data-name="Контур 15598" d="M16.557,45.576a.2.2,0,0,1-.134-.054l-2.565-2.448a.195.195,0,1,1,.269-.282l2.565,2.448a.195.195,0,0,1-.135.335Z" transform="translate(-3.853 -21.498)" fill="#fff" stroke="#fff" stroke-width="0.2"/>
    <path id="Контур_15599" data-name="Контур 15599" d="M30.546,52.1H26.96a.195.195,0,0,1,0-.389h3.586a.195.195,0,1,1,0,.389Z" transform="translate(-11.77 -26.974)" fill="#fff" stroke="#fff" stroke-width="0.2"/>
    <path id="Контур_15600" data-name="Контур 15600" d="M42.829,45.678a.195.195,0,0,1-.138-.332l2.548-2.571a.195.195,0,1,1,.277.273l-2.548,2.571A.2.2,0,0,1,42.829,45.678Z" transform="translate(-21.458 -21.478)" fill="#fff" stroke="#fff" stroke-width="0.2"/>
    <path id="Контур_15601" data-name="Контур 15601" d="M51.929,30.788a.2.2,0,0,1-.195-.195V26.872a.195.195,0,0,1,.389,0v3.721A.2.2,0,0,1,51.929,30.788Z" transform="translate(-27.014 -11.693)" fill="#fff" stroke="#fff" stroke-width="0.2"/>
    <path id="Контур_15602" data-name="Контур 15602" d="M45.338,16.637a.2.2,0,0,1-.134-.053L42.59,14.113a.195.195,0,1,1,.268-.283L45.472,16.3a.195.195,0,0,1-.134.336Z" transform="translate(-21.395 -3.816)" fill="#fff" stroke="#fff" stroke-width="0.2"/>
  </g>
</svg>
