<svg id="Capa_1" enable-background="new 0 0 512 512" height="512" viewBox="0 0 512 512" width="512" xmlns="http://www.w3.org/2000/svg"><g><path d="m511.961 111.913h-45.104c-24.872 0-45.107 20.235-45.107 45.107v85.49l-10.352 10.352c-16.781-8.024-37.531-5.094-51.412 8.787l-39.831 39.831c-26.613 1.996-49.858 16.223-64.155 37.049-14.298-20.826-37.543-35.053-64.155-37.049l-39.831-39.832c-12.757-13.098-34.142-17.079-51.428-8.802l-10.336-10.336v-85.49c0-24.872-20.235-45.107-45.107-45.107h-45.106l-.037 210.549 120.5 120.501.001 69.037h270.998l.001-69.037 120.5-120.501zm-270.961 370.087h-90.499l-.001-51.463-120.498-120.499.029-168.125h15.111c8.33 0 15.107 6.777 15.107 15.107v97.916l17.33 17.331-21.29 21.29 95.812 95.813 21.213-21.213-74.6-74.6 10.695-10.695c4.955-5.016 15.013-6.393 21.39 0l48.375 48.375c33.055-2.747 61.712 22.436 61.824 55.623v95.14zm120.5-51.463-.001 51.463h-90.499v-95.14c-.264-33.021 29.143-58.377 61.824-55.623l48.375-48.375c5.897-5.896 15.492-5.897 21.39 0l10.695 10.695-74.6 74.6 21.213 21.213 95.812-95.813-21.29-21.291 17.33-17.33v-97.917c0-8.33 6.777-15.107 15.107-15.107h15.11c.012 51.79.026 143.522.03 168.125z"/><path d="m367.348 164.857c21.586-25.764 32.531-51.439 32.531-76.313 0-48.823-39.721-88.544-88.545-88.544-20.256 0-39.74 6.954-55.334 19.445-15.594-12.491-35.078-19.445-55.334-19.445-48.824 0-88.545 39.721-88.545 88.544 0 24.874 10.945 50.55 32.531 76.313 22.352 27.442 64.85 60.495 111.348 88.685 46.497-28.189 88.996-61.243 111.348-88.685zm2.531-76.313c0 37.394-38.305 80.954-113.879 129.537-75.574-48.583-113.879-92.143-113.879-129.537 0-32.281 26.263-58.544 58.545-58.544 23.31-.716 41.834 15.166 55.334 32.898 13.438-16.557 29.092-33.161 55.334-32.898 32.282 0 58.545 26.263 58.545 58.544z"/></g></svg>