<svg id="Capa_1" enable-background="new 0 0 512 512" height="512" viewBox="0 0 512 512" width="512" xmlns="http://www.w3.org/2000/svg"><g><path d="m492 216c11.046 0 20-8.954 20-20v-40c0-15.933-6.169-30.917-17.375-42.227 0 0-76.077-80.078-76.198-80.199-11.332-11.333-26.4-17.574-42.427-17.574s-31.095 6.241-42.427 17.574c-.121.121-.24.243-.357.367l-73.283 77.139-77.506-77.506c-11.332-11.333-26.4-17.574-42.427-17.574s-31.095 6.241-42.427 17.574l-80 80c-11.332 11.332-17.573 26.4-17.573 42.426v280c0 33.084 26.916 60 60 60h392c33.084 0 60-26.916 60-60v-160c0-11.046-8.954-20-20-20s-20 8.954-20 20v160c0 11.028-8.972 20-20 20h-56v-20c0-11.046-8.954-20-20-20s-20 8.954-20 20v20h-76v-300c0-5.838 2.189-10.282 6.216-14.509l75.795-79.784c3.759-3.682 8.718-5.707 13.989-5.707s10.23 2.025 13.989 5.707l75.795 79.784c4.028 4.227 6.216 8.67 6.216 14.509v40c0 11.046 8.954 20 20 20zm-452 220v-280c0-5.342 2.08-10.364 5.858-14.142l80-80c3.778-3.778 8.799-5.858 14.142-5.858s10.364 2.08 14.142 5.858l80 80c3.778 3.778 5.858 8.8 5.858 14.142v300h-80v-20c0-11.046-8.954-20-20-20s-20 8.954-20 20v20h-60c-11.028 0-20-8.972-20-20z"/><path d="m100 256c11.046 0 20-8.954 20-20v-40c0-11.046-8.954-20-20-20s-20 8.954-20 20v40c0 11.046 8.954 20 20 20z"/><path d="m180 256c11.046 0 20-8.954 20-20v-40c0-11.046-8.954-20-20-20s-20 8.954-20 20v40c0 11.046 8.954 20 20 20z"/><path d="m356 196c0-11.046-8.954-20-20-20s-20 8.954-20 20v40c0 11.046 8.954 20 20 20s20-8.954 20-20z"/><path d="m436 196c0-11.046-8.954-20-20-20s-20 8.954-20 20v40c0 11.046 8.954 20 20 20s20-8.954 20-20z"/><path d="m120 356v-40c0-11.046-8.954-20-20-20s-20 8.954-20 20v40c0 11.046 8.954 20 20 20s20-8.954 20-20z"/><path d="m180 376c11.046 0 20-8.954 20-20v-40c0-11.046-8.954-20-20-20s-20 8.954-20 20v40c0 11.046 8.954 20 20 20z"/><path d="m336 296c-11.046 0-20 8.954-20 20v40c0 11.046 8.954 20 20 20s20-8.954 20-20v-40c0-11.046-8.954-20-20-20z"/><path d="m416 296c-11.046 0-20 8.954-20 20v40c0 11.046 8.954 20 20 20s20-8.954 20-20v-40c0-11.046-8.954-20-20-20z"/></g></svg>