<svg xmlns="http://www.w3.org/2000/svg" width="40.947" height="40.947" viewBox="0 0 40.947 40.947">
  <g id="work" transform="translate(-16 -16)">
    <path id="Контур_547" data-name="Контур 547" d="M320.189,226.73v4.095H312V226.73a1.364,1.364,0,0,0,1.365-1.365V224h5.46v1.365a1.363,1.363,0,0,0,1.365,1.365Z" transform="translate(-270.749 -190.256)" fill="#fdc8a2"/>
    <path id="Контур_548" data-name="Контур 548" d="M330.787,225.9a6.492,6.492,0,0,1-5.827.269,1.361,1.361,0,0,0,.259-.8V224h5.46v1.365A1.353,1.353,0,0,0,330.787,225.9Z" transform="translate(-282.604 -190.256)" fill="#fdbf92"/>
    <path id="Контур_549" data-name="Контур 549" d="M225.7,258.574l-1.7,4.251h5.46v10.237h12.284V262.825h4.777v-2.73A4.1,4.1,0,0,0,242.426,256H239.7l-.766,1.021a4.273,4.273,0,0,1-7.24-.653l-.184-.368h-2a4.1,4.1,0,0,0-3.8,2.574Z" transform="translate(-190.256 -219.527)" fill="#de5540"/>
    <path id="Контур_550" data-name="Контур 550" d="M181.46,346.237H176L180.095,336h5.46Z" transform="translate(-146.351 -292.702)" fill="#fdc8a2"/>
    <path id="Контур_551" data-name="Контур 551" d="M2.047,0H3.412V4.095H2.047A2.047,2.047,0,1,1,2.047,0Z" transform="translate(53.535 29.649) rotate(180)" fill="#fdb683"/>
    <path id="Контур_552" data-name="Контур 552" d="M258.047,128h1.365v4.095h-1.365a2.047,2.047,0,1,1,0-4.095Z" transform="translate(-219.526 -102.446)" fill="#fdb683"/>
    <path id="Контур_553" data-name="Контур 553" d="M284.095,64h4.777a4.1,4.1,0,0,1,4.095,4.095v4.436a6.483,6.483,0,0,1-12.967,0V68.095A4.1,4.1,0,0,1,284.095,64Z" transform="translate(-241.479 -43.905)" fill="#fdc8a2"/>
    <path id="Контур_554" data-name="Контур 554" d="M388.095,47.507l-1.5-.5A3.788,3.788,0,0,1,384,43.412V40a4.1,4.1,0,0,1,4.095,4.095Z" transform="translate(-336.607 -21.953)" fill="#7d4a38"/>
    <g id="Сгруппировать_463" data-name="Сгруппировать 463" transform="translate(37.156 16.682)">
      <path id="Контур_555" data-name="Контур 555" d="M274.237,25.365v3.412a16.246,16.246,0,0,1-9.016,2.73H264V29.46A5.46,5.46,0,0,1,269.46,24h2.569a2.469,2.469,0,0,1,2.209,1.365Z" transform="translate(-264 -24)" fill="#844e3a"/>
      <path id="Контур_556" data-name="Контур 556" d="M305.365,130.73a1.365,1.365,0,1,1,1.365-1.365A1.365,1.365,0,0,1,305.365,130.73Z" transform="translate(-300.588 -119.128)" fill="#844e3a"/>
      <path id="Контур_557" data-name="Контур 557" d="M369.365,130.73a1.365,1.365,0,1,1,1.365-1.365A1.365,1.365,0,0,1,369.365,130.73Z" transform="translate(-359.128 -119.128)" fill="#844e3a"/>
    </g>
    <path id="Контур_558" data-name="Контур 558" d="M326.056,172.063a4.432,4.432,0,0,1-2.42-.717l.744-1.144a3.073,3.073,0,0,0,3.35,0l.744,1.144A4.432,4.432,0,0,1,326.056,172.063Z" transform="translate(-281.394 -141.048)" fill="#fcb079"/>
    <path id="Контур_559" data-name="Контур 559" d="M24,456H63.582v2.73H24Z" transform="translate(-7.318 -402.465)" fill="#844e3a"/>
    <rect id="Прямоугольник_1814" data-name="Прямоугольник 1814" width="23.683" height="16.204" rx="8.102" transform="translate(16.53 31.487)" fill="#d5d5d3"/>
    <path id="Контур_560" data-name="Контур 560" d="M160,348.095h2.73L162.047,344H160Z" transform="translate(-131.716 -300.02)" fill="#cececc"/>
    <path id="Контур_561" data-name="Контур 561" d="M112,424h8.189v2.73H112Z" transform="translate(-87.811 -373.195)" fill="#d5d5d3"/>
    <path id="Контур_562" data-name="Контур 562" d="M86.825,353.554H80L84.095,344h4.777Z" transform="translate(-58.54 -300.02)" fill="#dfdfdd"/>
    <path id="Контур_563" data-name="Контур 563" d="M240,424h8.189v2.73H240Z" transform="translate(-204.891 -373.195)" fill="#d5d5d3"/>
    <path id="Контур_564" data-name="Контур 564" d="M307.6,336v5.46H298.73a2.73,2.73,0,0,0-2.73,2.73v1.365a.682.682,0,0,0,.682.682H307.6a4.777,4.777,0,0,0,4.777-4.777V336Z" transform="translate(-256.114 -292.702)" fill="#fdc8a2"/>
    <path id="Контур_565" data-name="Контур 565" d="M52.17,35.791H49.44a.681.681,0,0,1-.682-.682v-.383a7.189,7.189,0,0,0,3.215-4.438,2.73,2.73,0,0,0,.2-5.33V22.142a4.783,4.783,0,0,0-4.377-4.759A3.131,3.131,0,0,0,45.184,16H42.616a6.149,6.149,0,0,0-6.142,6.142v2.047a.682.682,0,0,0,.682.682h.682v.086a2.73,2.73,0,0,0,.194,5.329q.027.112.057.224l1.317-.358a5.816,5.816,0,0,1-.2-1.527V24.851A16.864,16.864,0,0,0,46.857,22.6a4.463,4.463,0,0,0,2.91,3.1l1.038.346v2.579a5.8,5.8,0,0,1-9.159,4.731l-.791,1.112a7.183,7.183,0,0,0,1.078.632v.008a.683.683,0,0,1-.682.682h-.682V33.744a2.733,2.733,0,0,0-2.73-2.73H18.73A2.733,2.733,0,0,0,16,33.744v2.047h1.365V33.744a1.367,1.367,0,0,1,1.365-1.365H37.838A1.367,1.367,0,0,1,39.2,33.744V46.028a1.367,1.367,0,0,1-1.365,1.365H30.3l.7-3.269a.682.682,0,0,0-.667-.825H25.554a.682.682,0,0,0-.627.414l-1.578,3.681H18.73a1.367,1.367,0,0,1-1.365-1.365V37.156H16v8.872a2.733,2.733,0,0,0,2.73,2.73h4.035L21.01,52.852H16.682a.682.682,0,0,0-.682.682v2.73a.682.682,0,0,0,.682.682H56.265a.682.682,0,0,0,.682-.682v-2.73a.682.682,0,0,0-.682-.682H55.093a5.447,5.447,0,0,0,1.854-4.095v-.682H55.582v.682a4.1,4.1,0,0,1-4.095,4.095H40.568V51.487a2.05,2.05,0,0,1,2.047-2.047h8.872a.682.682,0,0,0,.682-.682V43.98h3.412v2.73h1.365V40.568a4.783,4.783,0,0,0-4.777-4.777Zm0-7.166v-2.2a1.363,1.363,0,0,1,.283,2.145,1.382,1.382,0,0,1-.287.218C52.167,28.731,52.17,28.679,52.17,28.625ZM37.156,27.6a1.358,1.358,0,0,1,.4-.965,1.379,1.379,0,0,1,.283-.216v2.2c0,.053,0,.105,0,.158A1.365,1.365,0,0,1,37.156,27.6Zm9.554-6.512a15.52,15.52,0,0,1-8.333,2.418h-.538v-.76c5.842-.765,7.9-2.764,7.99-2.852l-.961-.969a6.6,6.6,0,0,1-1.7,1.022A19.137,19.137,0,0,1,37.9,21.36a4.74,4.74,0,0,1,.4-1.273,10.07,10.07,0,0,0,3.935-.748l-.607-1.223a7.716,7.716,0,0,1-2.27.531,4.759,4.759,0,0,1,3.254-1.284h2.569a1.776,1.776,0,0,1,1.526.857ZM50.2,24.405a3.1,3.1,0,0,1-2.123-2.946V18.8a3.418,3.418,0,0,1,2.73,3.344v2.465ZM43.244,35.572a7.172,7.172,0,0,0,4.166-.2,2.038,2.038,0,0,0,.582,1.183,2.066,2.066,0,0,0,.331.268l-.194.259a3.586,3.586,0,0,1-5.876-.191A2.054,2.054,0,0,0,43.244,35.572ZM39.2,51.487v1.365H35.791V51.487Zm-1.449-2.73h.084a2.725,2.725,0,0,0,.682-.086v1.451H37.208Zm-5.46,0h3.99l-.546,1.365h-.63a.682.682,0,0,0-.682.682v2.047H33.061V50.8a.682.682,0,0,0-.682-.682h-.63Zm-2.289,0h.819l-.546,1.365h-.566Zm1.691,2.73v1.365H29.129l.292-1.365ZM26,44.663h3.483l-1.755,8.189H22.494Zm29.578,9.554v1.365H17.365V54.217Zm0-11.6H52.17V40.568H50.8v7.507H42.616a3.409,3.409,0,0,0-2.73,1.367V47.83a2.718,2.718,0,0,0,.682-1.8V37.156h.261a4.955,4.955,0,0,0,8.391.747l.56-.747H52.17a3.416,3.416,0,0,1,3.412,3.412Zm-7.56-1.979.6,1.228a7.507,7.507,0,0,1-7.026-.255l.682-1.182a6.142,6.142,0,0,0,5.748.209ZM43.3,26.919a1.365,1.365,0,1,1-1.365-1.365A1.365,1.365,0,0,1,43.3,26.919Zm2.73,0a1.365,1.365,0,1,1,1.365,1.365,1.365,1.365,0,0,1-1.365-1.365Zm.31,2.235.744,1.144a4.44,4.44,0,0,1-4.839,0l.744-1.144a3.073,3.073,0,0,0,3.35,0ZM25.554,35.791h-2.73V34.426h2.73Zm4.095-1.365v1.365h-2.73V34.426Zm4.095,0v1.365h-2.73V34.426Zm4.095,1.365h-2.73V34.426h2.73ZM21.46,34.426v1.365H18.73V34.426Z" transform="translate(0 0)" fill="#2478dd"/>
  </g>
</svg>
