<svg xmlns="http://www.w3.org/2000/svg" width="18.956" height="24.943" viewBox="0 0 18.956 24.943">
  <g id="Icon_ionic-ios-document" data-name="Icon ionic-ios-document" transform="translate(-7.313 -3.938)">
    <path id="Path_484" data-name="Path 484" d="M21.786,10.112h5.674a.309.309,0,0,0,.312-.312h0a1.845,1.845,0,0,0-.667-1.428L22.348,4.406a2,2,0,0,0-1.285-.461h0a.46.46,0,0,0-.461.461V8.927A1.184,1.184,0,0,0,21.786,10.112Z" transform="translate(-1.504 -0.001)" fill="#5c8eff"/>
    <path id="Path_485" data-name="Path 485" d="M17.477,8.926V3.938H9.308a2,2,0,0,0-2,2V26.885a2,2,0,0,0,2,2H24.273a2,2,0,0,0,2-2V11.732H20.283A2.81,2.81,0,0,1,17.477,8.926Z" transform="translate(0 0)" fill="#5c8eff"/>
  </g>
</svg>
