<svg xmlns="http://www.w3.org/2000/svg" xmlns:xlink="http://www.w3.org/1999/xlink" width="193.586" height="142.356" viewBox="0 0 193.586 142.356">
  <defs>
    <linearGradient id="linear-gradient" x2="0" y2="1" gradientUnits="objectBoundingBox">
      <stop offset="0" stop-color="#00aae4"/>
      <stop offset="0.18" stop-color="#00aae4"/>
      <stop offset="1" stop-color="#005fa1"/>
    </linearGradient>
  </defs>
  <g id="egovLogo" transform="translate(-214.278 -261.768)">
    <path id="path50" d="M341.777,273.1a1.82,1.82,0,1,1-1.819,1.819A1.819,1.819,0,0,1,341.777,273.1Zm5.1,6.629a3.688,3.688,0,1,1-3.688,3.688A3.688,3.688,0,0,1,346.881,279.727Zm5.694,8.025a3.8,3.8,0,1,1-3.8,3.8A3.8,3.8,0,0,1,352.575,287.752Zm6.931,8.438a3.931,3.931,0,1,1-3.931,3.931A3.931,3.931,0,0,1,359.506,296.19Zm8.516,8.582a4.12,4.12,0,1,1-4.12,4.12A4.119,4.119,0,0,1,368.023,304.771Zm10.223,10.785a2.173,2.173,0,1,1-2.173,2.173A2.173,2.173,0,0,1,378.245,315.556Zm12.1,6.16a4.691,4.691,0,1,1-4.691,4.691A4.691,4.691,0,0,1,390.347,321.716Zm14.959,10.1a2.557,2.557,0,1,1-2.557,2.557A2.557,2.557,0,0,1,405.306,331.821Zm-76.079-59.6a1.927,1.927,0,1,1-1.927,1.927A1.927,1.927,0,0,1,329.228,272.22Zm5.065,6.957a3.937,3.937,0,1,1-3.937,3.937A3.937,3.937,0,0,1,334.293,279.177Zm5.658,8.643a4.034,4.034,0,1,1-4.034,4.034A4.034,4.034,0,0,1,339.95,287.821Zm7.038,9.1a4.2,4.2,0,1,1-4.2,4.2A4.2,4.2,0,0,1,346.989,296.922Zm8.553,11.62a2.194,2.194,0,1,1-2.194,2.194A2.194,2.194,0,0,1,355.542,308.541Zm10.409,7.244a4.661,4.661,0,1,1-4.66,4.661A4.661,4.661,0,0,1,365.951,315.785Zm12.4,11.766a2.532,2.532,0,1,1-2.532,2.532A2.532,2.532,0,0,1,378.347,327.551Zm14.659,6.2a5.565,5.565,0,1,1-5.565,5.565A5.565,5.565,0,0,1,393.006,333.754Zm-77.945-62.708a2.049,2.049,0,1,1-2.049,2.049A2.049,2.049,0,0,1,315.061,271.046Zm4.831,9.467a2.139,2.139,0,1,1-2.139,2.139A2.139,2.139,0,0,1,319.892,280.513Zm5.475,7.266a4.3,4.3,0,1,1-4.3,4.3A4.3,4.3,0,0,1,325.366,287.779Zm6.933,12.188a2.234,2.234,0,1,1-2.234,2.234A2.234,2.234,0,0,1,332.3,299.967Zm8.709,8.16a4.714,4.714,0,1,1-4.714,4.714A4.714,4.714,0,0,1,341.009,308.127Zm10.578,10.467a5.068,5.068,0,1,1-5.069,5.069A5.069,5.069,0,0,1,351.587,318.594Zm12.75,10.386a5.518,5.518,0,1,1-5.518,5.518A5.518,5.518,0,0,1,364.337,328.979ZM379.53,342a3.054,3.054,0,1,1-3.054,3.054A3.054,3.054,0,0,1,379.53,342Zm-80.315-72.367a2.2,2.2,0,1,1-2.2,2.2A2.2,2.2,0,0,1,299.215,269.628Zm4.565,7.984a4.5,4.5,0,1,1-4.5,4.5A4.5,4.5,0,0,1,303.78,277.612Zm5.274,10.152a4.62,4.62,0,1,1-4.621,4.621A4.62,4.62,0,0,1,309.054,287.764Zm6.9,10.9a4.837,4.837,0,1,1-4.837,4.837A4.837,4.837,0,0,1,315.957,298.662Zm8.677,14.07a2.547,2.547,0,1,1-2.547,2.547A2.547,2.547,0,0,1,324.633,312.733Zm10.832,9.159a5.508,5.508,0,1,1-5.508,5.508A5.508,5.508,0,0,1,335.466,321.892Zm13.158,11.784a6.039,6.039,0,1,1-6.039,6.039A6.039,6.039,0,0,1,348.623,333.676Zm15.8,14.826a3.405,3.405,0,1,1-3.405,3.405A3.405,3.405,0,0,1,364.422,348.5Zm-82.75-80.461a2.359,2.359,0,1,1-2.359,2.359A2.359,2.359,0,0,1,281.673,268.041Zm4.347,8.729a4.839,4.839,0,1,1-4.839,4.839A4.839,4.839,0,0,1,286.02,276.77Zm5.184,11.209a4.98,4.98,0,1,1-4.98,4.98A4.98,4.98,0,0,1,291.2,287.978Zm6.885,14.637a2.611,2.611,0,1,1-2.61,2.61A2.61,2.61,0,0,1,298.089,302.615Zm8.868,10.117a5.594,5.594,0,1,1-5.594,5.594A5.594,5.594,0,0,1,306.957,312.732Zm11.031,13.14a6.034,6.034,0,1,1-6.034,6.034A6.034,6.034,0,0,1,317.988,325.872Zm13.561,13.336a6.678,6.678,0,1,1-6.678,6.678A6.678,6.678,0,0,1,331.55,339.208ZM347.833,352.3a7.592,7.592,0,1,1-7.591,7.592A7.592,7.592,0,0,1,347.833,352.3Zm-85.606-86.167a2.54,2.54,0,1,1-2.54,2.54A2.54,2.54,0,0,1,262.228,266.134Zm4.43,9.86a5.221,5.221,0,1,1-5.221,5.221A5.221,5.221,0,0,1,266.658,275.994Zm5.335,12.45a5.4,5.4,0,1,1-5.4,5.4A5.4,5.4,0,0,1,271.992,288.445Zm7.133,16.241a2.845,2.845,0,1,1-2.845,2.845A2.845,2.845,0,0,1,279.125,304.686Zm9.1,14.346a3.04,3.04,0,1,1-3.04,3.04A3.04,3.04,0,0,1,288.229,319.031Zm11.323,11.695a6.608,6.608,0,1,1-6.608,6.608A6.608,6.608,0,0,1,299.552,330.726Zm13.931,14.959a7.453,7.453,0,1,1-7.454,7.453A7.453,7.453,0,0,1,313.483,345.685ZM330.191,360.7a8.606,8.606,0,1,1-8.606,8.606A8.606,8.606,0,0,1,330.191,360.7Zm-89.347-96.547a2.743,2.743,0,1,1-2.743,2.743A2.743,2.743,0,0,1,240.844,264.151Zm4.933,14.073a2.839,2.839,0,1,1-2.839,2.839A2.839,2.839,0,0,1,245.777,278.225Zm5.928,11.241a5.856,5.856,0,1,1-5.856,5.856A5.856,5.856,0,0,1,251.7,289.466Zm7.56,18.027a3.1,3.1,0,1,1-3.1,3.1A3.1,3.1,0,0,1,259.265,307.494Zm9.609,12.607a6.678,6.678,0,1,1-6.678,6.678A6.678,6.678,0,0,1,268.874,320.1Zm11.733,16.342a7.338,7.338,0,1,1-7.338,7.338A7.338,7.338,0,0,1,280.607,336.443ZM294.7,357.275a4.186,4.186,0,1,1-4.186,4.186A4.187,4.187,0,0,1,294.7,357.275Zm17.7,12.309a9.9,9.9,0,1,1-9.9,9.9A9.9,9.9,0,0,1,312.4,369.584Z" fill="url(#linear-gradient)"/>
    <path id="path52" d="M292.188,381.013a11.556,11.556,0,1,1-11.556,11.556A11.556,11.556,0,0,1,292.188,381.013ZM217.271,261.768a2.993,2.993,0,1,1-2.993,2.993A2.993,2.993,0,0,1,217.271,261.768Zm6.2,13.266a6.175,6.175,0,1,1-6.175,6.174A6.174,6.174,0,0,1,223.466,275.034Zm6.963,15.984A6.426,6.426,0,1,1,224,297.444,6.426,6.426,0,0,1,230.429,291.018Zm8.533,20.065a3.428,3.428,0,1,1-3.428,3.428A3.428,3.428,0,0,1,238.963,311.084Zm10.211,17.706a3.706,3.706,0,1,1-3.706,3.706A3.705,3.705,0,0,1,249.173,328.79ZM261.4,343.173a8.241,8.241,0,1,1-8.241,8.241A8.241,8.241,0,0,1,261.4,343.173Zm14.389,23.414a4.745,4.745,0,1,1-4.746,4.745A4.745,4.745,0,0,1,275.793,366.587Z" fill="#2ea729" fill-rule="evenodd"/>
  </g>
</svg>
