<svg xmlns="http://www.w3.org/2000/svg" width="18.616" height="14.908" viewBox="0 0 18.616 14.908">
  <g id="foreigner" transform="translate(247.796 -492.952)">
    <g id="_479244264" transform="translate(-247.796 441.952)">
      <g id="Сгруппировать_12329" data-name="Сгруппировать 12329" transform="translate(6.29 52.418)">
        <path id="Контур_15618" data-name="Контур 15618" d="M175.654,103.489c-.764,0-1.454-.727-1.927-2.073a13.967,13.967,0,0,1-.727-4.69,13.6,13.6,0,0,1,.727-4.654c.509-1.345,1.164-2.073,1.927-2.073s1.454.727,1.927,2.073a15.373,15.373,0,0,1,0,9.344C177.109,102.762,176.418,103.489,175.654,103.489Zm0-12.98c-1.018,0-2.145,2.545-2.145,6.218s1.127,6.254,2.145,6.254,2.145-2.509,2.145-6.254C177.8,93.018,176.672,90.509,175.654,90.509Z" transform="translate(-173 -90)" fill="#fff" fill-rule="evenodd"/>
      </g>
      <g id="Сгруппировать_12330" data-name="Сгруппировать 12330" transform="translate(2.218 56.49)">
        <path id="Контур_15619" data-name="Контур 15619" d="M67.727,207.309a13.6,13.6,0,0,1-4.654-.727c-1.345-.473-2.073-1.163-2.073-1.927,0-.509.4-1.018,1.127-1.454a.222.222,0,0,1,.327.109.237.237,0,0,1-.073.327c-.545.327-.873.691-.873,1.018,0,1.054,2.509,2.145,6.218,2.145a12.817,12.817,0,0,0,3.381-.364.265.265,0,1,1,.145.509A14.018,14.018,0,0,1,67.727,207.309Zm3.781-4.327h-.073a13.1,13.1,0,0,0-3.709-.473,17.07,17.07,0,0,0-2.763.255c-.145.036-.255-.073-.291-.218s.073-.255.218-.291A17.676,17.676,0,0,1,67.727,202a15.981,15.981,0,0,1,3.854.473.26.26,0,0,1,.182.327A.273.273,0,0,1,71.508,202.982Z" transform="translate(-61 -202)" fill="#fff" fill-rule="evenodd"/>
      </g>
      <g id="Сгруппировать_12331" data-name="Сгруппировать 12331" transform="translate(2.989 52.336)">
        <path id="Контур_15620" data-name="Контур 15620" d="M83.751,91.531a.246.246,0,0,1-.218-.145l-1.309-3.272a.283.283,0,0,1,.109-.364.346.346,0,0,1,.364.145l1.309,3.272a.273.273,0,0,1-.145.327A.134.134,0,0,1,83.751,91.531Z" transform="translate(-82.195 -87.74)" fill="#fff" fill-rule="evenodd"/>
      </g>
      <g id="Сгруппировать_12332" data-name="Сгруппировать 12332" transform="translate(1.68 52.336)">
        <path id="Контур_15621" data-name="Контур 15621" d="M46.442,91.531a.134.134,0,0,1-.109-.036.229.229,0,0,1-.109-.327l1.309-3.272a.273.273,0,0,1,.327-.145.346.346,0,0,1,.145.364L46.7,91.385A.368.368,0,0,1,46.442,91.531Z" transform="translate(-46.195 -87.74)" fill="#fff" fill-rule="evenodd"/>
      </g>
      <g id="Сгруппировать_12333" data-name="Сгруппировать 12333" transform="translate(2.145 54.418)">
        <path id="Контур_15622" data-name="Контур 15622" d="M60.927,145.509H59.255a.255.255,0,1,1,0-.509h1.673a.255.255,0,1,1,0,.509Z" transform="translate(-59 -145)" fill="#fff" fill-rule="evenodd"/>
      </g>
      <g id="Сгруппировать_12334" data-name="Сгруппировать 12334" transform="translate(0 51)">
        <path id="Контур_15623" data-name="Контур 15623" d="M3.854,58.454a.189.189,0,0,1-.145-.073l-1.164-.909H.727A.729.729,0,0,1,0,56.745V51.727A.729.729,0,0,1,.727,51H5.745a.729.729,0,0,1,.727.727v5.018a.729.729,0,0,1-.727.727H4.109V58.2a.246.246,0,0,1-.145.218A.134.134,0,0,1,3.854,58.454ZM.727,51.509a.235.235,0,0,0-.218.218v5.018a.235.235,0,0,0,.218.218H2.618c.073,0,.109,0,.145.073l.836.654v-.473a.249.249,0,0,1,.255-.255H5.745a.235.235,0,0,0,.218-.218V51.727a.235.235,0,0,0-.218-.218Z" transform="translate(0 -51)" fill="#fff" fill-rule="evenodd"/>
      </g>
      <g id="Сгруппировать_12335" data-name="Сгруппировать 12335" transform="translate(12.144 56.927)">
        <path id="Контур_15624" data-name="Контур 15624" d="M336.618,221.454a.134.134,0,0,1-.109-.036.246.246,0,0,1-.145-.218v-.727h-1.636a.729.729,0,0,1-.727-.727v-5.018a.729.729,0,0,1,.727-.727h5.018a.729.729,0,0,1,.727.727v5.018a.729.729,0,0,1-.727.727h-1.818l-1.164.909A.189.189,0,0,1,336.618,221.454Zm-1.891-6.945a.235.235,0,0,0-.218.218v5.018a.235.235,0,0,0,.218.218h1.891a.249.249,0,0,1,.255.255v.436l.836-.654c.036-.036.073-.036.145-.036h1.891a.235.235,0,0,0,.218-.218v-5.018a.235.235,0,0,0-.218-.218Z" transform="translate(-334 -214)" fill="#fff" fill-rule="evenodd"/>
      </g>
      <g id="Сгруппировать_12336" data-name="Сгруппировать 12336" transform="translate(13.635 58.999)">
        <path id="Контур_15625" data-name="Контур 15625" d="M378.236,271.509h-2.982a.255.255,0,0,1,0-.509h2.982a.255.255,0,1,1,0,.509Z" transform="translate(-375 -271)" fill="#fff" fill-rule="evenodd"/>
      </g>
      <g id="Сгруппировать_12337" data-name="Сгруппировать 12337" transform="translate(14.071 58.992)">
        <path id="Контур_15626" data-name="Контур 15626" d="M387.255,273.831a.2.2,0,0,1-.218-.145.222.222,0,0,1,.109-.327,3.836,3.836,0,0,0,1.745-2.327c.036-.145.145-.255.291-.218a.276.276,0,0,1,.218.291,4.3,4.3,0,0,1-2.036,2.691A.134.134,0,0,1,387.255,273.831Z" transform="translate(-387 -270.806)" fill="#fff" fill-rule="evenodd"/>
      </g>
      <g id="Сгруппировать_12338" data-name="Сгруппировать 12338" transform="translate(14.282 58.992)">
        <path id="Контур_15627" data-name="Контур 15627" d="M394.958,273.831a.134.134,0,0,1-.109-.036,4.146,4.146,0,0,1-2.036-2.691c-.036-.109.073-.254.218-.291.109-.036.255.073.291.218a3.646,3.646,0,0,0,1.745,2.327.222.222,0,0,1,.109.327A.226.226,0,0,1,394.958,273.831Z" transform="translate(-392.806 -270.806)" fill="#fff" fill-rule="evenodd"/>
      </g>
      <g id="Сгруппировать_12339" data-name="Сгруппировать 12339" transform="translate(2.218 52.418)">
        <path id="Контур_15628" data-name="Контур 15628" d="M67.727,103.489A6.742,6.742,0,0,1,61,96.727a7.76,7.76,0,0,1,.255-1.891.26.26,0,0,1,.327-.182.293.293,0,0,1,.182.327,6.521,6.521,0,0,0-.255,1.745,6.246,6.246,0,0,0,6.218,6.254,6.1,6.1,0,0,0,4.909-2.4.289.289,0,0,1,.364-.073.245.245,0,0,1,.036.364A6.545,6.545,0,0,1,67.727,103.489Zm6.181-8.472a.273.273,0,0,1-.255-.182,6.176,6.176,0,0,0-5.927-4.327,6.536,6.536,0,0,0-2.618.582.229.229,0,0,1-.327-.109.216.216,0,0,1,.109-.327A6.479,6.479,0,0,1,67.727,90a6.756,6.756,0,0,1,6.436,4.69.26.26,0,0,1-.182.327Z" transform="translate(-61 -90)" fill="#fff" fill-rule="evenodd"/>
      </g>
      <g id="Сгруппировать_12340" data-name="Сгруппировать 12340" transform="translate(15.126 58.163)">
        <path id="Контур_15629" data-name="Контур 15629" d="M416.255,249.345a.249.249,0,0,1-.255-.255v-.836a.255.255,0,0,1,.509,0v.836A.249.249,0,0,1,416.255,249.345Z" transform="translate(-416 -248)" fill="#fff" fill-rule="evenodd"/>
      </g>
    </g>
  </g>
</svg>
