<svg width="65" height="65" viewBox="0 0 65 65" fill="none" xmlns="http://www.w3.org/2000/svg">
<path fill-rule="evenodd" clip-rule="evenodd" d="M64.252 0.0166016H8.44C6.20352 0.0229342 4.06045 0.91418 2.47901 2.49562C0.897578 4.07705 0.00633268 6.22012 0 8.4566L0 10.3326C1.72427 10.6189 3.41799 11.0658 5.059 11.6676C10.842 13.7196 18.042 17.7766 25.773 23.3766C32.056 18.6956 37.838 15.3466 42.528 13.6846C47.109 12.0606 50.665 12.0416 52.654 13.9516C54.907 16.1136 54.816 20.4386 52.807 26.1016C50.755 31.8816 46.7 39.0826 41.1 46.8136C45.781 53.0966 49.129 58.8796 50.792 63.5696C50.876 63.8056 50.955 64.0376 51.03 64.2696H55.811C58.0473 64.2633 60.1902 63.3722 61.7716 61.7909C63.353 60.2097 64.2444 58.0669 64.251 55.8306L64.252 0.0166016ZM0 35.4526V55.8296C0.00344085 57.333 0.407566 58.8082 1.17075 60.1035C1.93394 61.3987 3.0286 62.4671 4.342 63.1986C6.76227 63.166 9.15623 62.6915 11.406 61.7986C16.932 59.8136 23.806 55.7936 31.324 50.1636C31.3522 50.1403 31.3886 50.1291 31.4251 50.1326C31.4616 50.136 31.4952 50.1539 31.5185 50.1821C31.5418 50.2103 31.553 50.2467 31.5495 50.2832C31.5461 50.3197 31.5282 50.3533 31.5 50.3766C29.382 52.3959 27.2787 54.3029 25.19 56.0976C23.07 57.9206 20.979 59.6206 18.936 61.1836L17.744 62.0836C16.7147 62.8483 15.7 63.5766 14.7 64.2686H40.758C42.687 62.0476 42.578 58.1316 40.758 53.0686C38.773 47.5426 34.752 40.6686 29.122 33.1496C29.1104 33.1359 29.1017 33.1201 29.0962 33.1031C29.0908 33.0861 29.0887 33.0681 29.0902 33.0503C29.0917 33.0325 29.0967 33.0151 29.1049 32.9992C29.1131 32.9833 29.1243 32.9692 29.138 32.9576C29.1517 32.946 29.1675 32.9373 29.1845 32.9318C29.2015 32.9264 29.2195 32.9244 29.2373 32.9258C29.2551 32.9273 29.2725 32.9323 29.2884 32.9405C29.3043 32.9487 29.3184 32.9599 29.33 32.9736C31.349 35.0916 33.261 37.2026 35.052 39.2836C36.824 41.3436 38.479 43.3776 40.007 45.3656C42.3177 41.1614 43.9903 36.6369 44.97 31.9406C45.558 28.3696 45.122 25.6276 43.518 23.9886C41.357 21.7816 37.318 21.8156 32.03 23.7156C26.504 25.7006 19.63 29.7206 12.112 35.3506C12.0843 35.3723 12.0492 35.3824 12.0141 35.3787C11.9791 35.3751 11.9468 35.358 11.9242 35.331C11.9015 35.3041 11.8901 35.2694 11.8925 35.2342C11.8949 35.1991 11.9109 35.1662 11.937 35.1426C14.0543 33.1239 16.1567 31.2176 18.244 29.4236C20.304 27.6506 22.344 25.9946 24.329 24.4666C20.1234 22.1563 15.5975 20.4844 10.9 19.5056C7.328 18.9166 4.587 19.3526 2.948 20.9576C0.74 23.1186 0.775 27.1576 2.675 32.4446C4.66 37.9706 8.68 44.8446 14.31 52.3616C14.3302 52.3896 14.3391 52.4243 14.3349 52.4586C14.3306 52.4929 14.3136 52.5243 14.2872 52.5466C14.2607 52.5688 14.2268 52.5803 14.1923 52.5786C14.1578 52.577 14.1252 52.5623 14.101 52.5376C12.0823 50.4203 10.176 48.3179 8.382 46.2306C6.56 44.1116 4.859 42.0196 3.3 39.9766L2.4 38.7846C1.55333 37.6553 0.753333 36.5446 0 35.4526Z" fill="white"/>
</svg>
