<svg xmlns="http://www.w3.org/2000/svg" width="12.667" height="19" viewBox="0 0 12.667 19">
  <g id="mob" transform="translate(-10)">
    <path id="Контур_15630" data-name="Контур 15630" d="M20.767,0H11.9a1.267,1.267,0,0,0-1.267,1.267v3.08A2.52,2.52,0,0,0,10,6.017v7.6a2.519,2.519,0,0,0,.633,1.67v2.447A1.267,1.267,0,0,0,11.9,19h8.867a1.267,1.267,0,0,0,1.267-1.267V15.287a2.52,2.52,0,0,0,.633-1.67v-7.6a2.519,2.519,0,0,0-.633-1.67V1.267A1.267,1.267,0,0,0,20.767,0ZM13.8.633h5.067v.95a.317.317,0,0,1-.317.317H14.117a.317.317,0,0,1-.317-.317Zm-1.9,0h1.267v.95a.95.95,0,0,0,.95.95H18.55a.95.95,0,0,0,.95-.95V.633h1.267a.633.633,0,0,1,.633.633V3.826a2.514,2.514,0,0,0-1.267-.343h-7.6a2.514,2.514,0,0,0-1.266.342V1.267A.633.633,0,0,1,11.9.633Zm8.867,17.733H11.9a.633.633,0,0,1-.633-.633V15.807a2.514,2.514,0,0,0,1.267.343h7.6a2.514,2.514,0,0,0,1.266-.342v1.926A.633.633,0,0,1,20.767,18.367Zm1.267-4.75a1.9,1.9,0,0,1-1.9,1.9h-7.6a1.9,1.9,0,0,1-1.9-1.9v-7.6a1.9,1.9,0,0,1,1.9-1.9h7.6a1.9,1.9,0,0,1,1.9,1.9Z" fill="#fff"/>
    <path id="Контур_15631" data-name="Контур 15631" d="M16.317,4.95a.317.317,0,0,0,.317-.317V4.317a.317.317,0,1,0-.633,0v.317A.317.317,0,0,0,16.317,4.95Z" transform="translate(-4.1 -2.733)" fill="#fff"/>
    <path id="Контур_15632" data-name="Контур 15632" d="M42.317,4.95a.317.317,0,0,0,.317-.317V4.317a.317.317,0,0,0-.633,0v.317A.317.317,0,0,0,42.317,4.95Z" transform="translate(-21.867 -2.733)" fill="#fff"/>
    <path id="Контур_15633" data-name="Контур 15633" d="M26.75,54H22.317a.317.317,0,1,0,0,.633H26.75a.317.317,0,0,0,0-.633Z" transform="translate(-8.2 -36.9)" fill="#fff"/>
    <path id="Контур_15634" data-name="Контур 15634" d="M27.043,24.607a.317.317,0,0,0,.448,0l.95-.95a.317.317,0,1,0-.448-.448l-.409.409v-4.3a.317.317,0,1,0-.633,0v4.3l-.409-.409a.317.317,0,1,0-.448.448Z" transform="translate(-10.933 -12.983)" fill="#fff"/>
    <path id="Контур_15635" data-name="Контур 15635" d="M26.017,36a.317.317,0,0,0-.317.317v.95a.317.317,0,0,1-.317.317H20.95a.317.317,0,0,1-.317-.317v-.95a.317.317,0,0,0-.633,0v.95a.95.95,0,0,0,.95.95h4.433a.95.95,0,0,0,.95-.95v-.95A.317.317,0,0,0,26.017,36Z" transform="translate(-6.833 -24.6)" fill="#fff"/>
  </g>
</svg>
