<svg xmlns="http://www.w3.org/2000/svg" width="29.959" height="26.238" viewBox="0 0 29.959 26.238">
  <g id="telegram_1_" data-name="telegram (1)" transform="translate(0 -31.795)">
    <g id="Group_367" data-name="Group 367" transform="translate(0 31.795)">
      <g id="Group_366" data-name="Group 366" transform="translate(0 0)">
        <g id="Group_365" data-name="Group 365">
          <path id="Path_501" data-name="Path 501" d="M172.982,119.967l-12.321,7.589a1.844,1.844,0,0,0-.8,2.067l1.332,4.681a.907.907,0,0,0,.878.664l.069,0a.908.908,0,0,0,.841-.791l.346-2.567a1.516,1.516,0,0,1,.468-.9l10.168-9.451a.811.811,0,0,0-.978-1.286Zm-10,9.863a2.713,2.713,0,0,0-.838,1.618l-.168,1.245-.967-3.4a.646.646,0,0,1,.281-.724l9.026-5.559Z" transform="translate(-150.439 -114.693)" fill="#fff"/>
          <path id="Path_502" data-name="Path 502" d="M29.471,32.122a1.376,1.376,0,0,0-1.387-.234L.882,42.381A1.378,1.378,0,0,0,.9,44.959L7.25,47.33,9.728,55.3a1.377,1.377,0,0,0,2.186.659l3.695-3.012a.506.506,0,0,1,.616-.017l6.664,4.838a1.378,1.378,0,0,0,2.159-.834L29.93,33.453A1.378,1.378,0,0,0,29.471,32.122Zm-.71,1.089L23.879,56.692a.184.184,0,0,1-.289.111l-6.664-4.838a1.7,1.7,0,0,0-2.071.058l-3.7,3.013a.183.183,0,0,1-.292-.088L8.3,46.7a.6.6,0,0,0-.361-.382L1.314,43.841a.185.185,0,0,1,0-.346L28.514,33h0a.184.184,0,0,1,.246.21Z" transform="translate(0 -31.795)" fill="#fff"/>
        </g>
      </g>
    </g>
    <g id="Group_369" data-name="Group 369" transform="translate(24.199 44.674)">
      <g id="Group_368" data-name="Group 368" transform="translate(0 0)">
        <path id="Path_503" data-name="Path 503" d="M414.38,251.921a.6.6,0,0,0-.71.457l-.091.418a.6.6,0,1,0,1.167.253l.091-.418A.6.6,0,0,0,414.38,251.921Z" transform="translate(-413.566 -251.907)" fill="#fff"/>
      </g>
    </g>
    <g id="Group_371" data-name="Group 371" transform="translate(22.32 47.423)">
      <g id="Group_370" data-name="Group 370">
        <path id="Path_504" data-name="Path 504" d="M383.552,298.9a.6.6,0,0,0-.71.457l-1.373,6.322a.6.6,0,1,0,1.166.253l1.373-6.322A.6.6,0,0,0,383.552,298.9Z" transform="translate(-381.456 -298.888)" fill="#fff"/>
      </g>
    </g>
  </g>
</svg>
