<svg xmlns="http://www.w3.org/2000/svg" width="34.85" height="37.076" viewBox="0 0 34.85 37.076">
  <g id="registration" transform="translate(-15.368)">
    <g id="Сгруппировать_465" data-name="Сгруппировать 465" transform="translate(16.124 0.543)">
      <path id="Контур_575" data-name="Контур 575" d="M48.85,75.685H27.083a1.277,1.277,0,0,1-1.277-1.277V43.486a1.277,1.277,0,0,1,1.277-1.277H48.85a1.277,1.277,0,0,1,1.277,1.277V74.408A1.277,1.277,0,0,1,48.85,75.685Z" transform="translate(-25.806 -39.696)" fill="#c8effe"/>
      <g id="Сгруппировать_464" data-name="Сгруппировать 464" transform="translate(29.29 10.775)">
        <path id="Контур_576" data-name="Контур 576" d="M0,0H12.7V4.261H0Z" transform="translate(4.261 3.399) rotate(90)" fill="#d83131"/>
        <path id="Контур_577" data-name="Контур 577" d="M430.29,156.978v2.717h4.261v-2.717a.682.682,0,0,0-.682-.682h-2.9A.682.682,0,0,0,430.29,156.978Z" transform="translate(-430.29 -156.296)" fill="#f47c7c"/>
        <path id="Контур_578" data-name="Контур 578" d="M434.551,378.614H430.29l1.782,3.57a.365.365,0,0,0,.7,0Z" transform="translate(-430.29 -362.515)" fill="#f9c6c6"/>
        <path id="Контур_579" data-name="Контур 579" d="M0,0H12.7V4.261H0Z" transform="translate(4.261 3.399) rotate(90)" fill="#d83131"/>
        <path id="Контур_580" data-name="Контур 580" d="M430.29,156.978v2.717h4.261v-2.717a.682.682,0,0,0-.682-.682h-2.9A.682.682,0,0,0,430.29,156.978Z" transform="translate(-430.29 -156.296)" fill="#f47c7c"/>
        <path id="Контур_581" data-name="Контур 581" d="M434.551,378.614H430.29l1.782,3.57a.365.365,0,0,0,.7,0Z" transform="translate(-430.29 -362.515)" fill="#f9c6c6"/>
        <path id="Контур_582" data-name="Контур 582" d="M460.786,203.233h2.053v12.7h-2.053Z" transform="translate(-458.578 -199.834)" fill="#ca2c2c"/>
        <path id="Контур_583" data-name="Контур 583" d="M453.425,156.3h-2.053a.682.682,0,0,1,.682.682v2.717h2.053v-2.717A.682.682,0,0,0,453.425,156.3Z" transform="translate(-449.845 -156.296)" fill="#ee6161"/>
        <path id="Контур_584" data-name="Контур 584" d="M446.643,378.614l-1.1,2.212.678,1.358a.365.365,0,0,0,.7,0l1.782-3.57Z" transform="translate(-444.435 -362.515)" fill="#f9b1b1"/>
      </g>
      <path id="Контур_585" data-name="Контур 585" d="M83.4,7.5H61.629a1.277,1.277,0,0,0-1.277,1.277v1.236h20.53a1.277,1.277,0,0,1,1.277,1.277V40.976H83.4A1.277,1.277,0,0,0,84.673,39.7V8.777A1.277,1.277,0,0,0,83.4,7.5Z" transform="translate(-57.85 -7.5)" fill="#3c87d0"/>
      <path id="Контур_586" data-name="Контур 586" d="M69.29,411.077H66.3a.579.579,0,0,1-.579-.579V407.5a.579.579,0,0,1,.579-.579H69.29a.579.579,0,0,1,.579.579V410.5A.579.579,0,0,1,69.29,411.077Z" transform="translate(-62.828 -378.001)" fill="#7ca1b1"/>
      <path id="Контур_587" data-name="Контур 587" d="M76.07,93.527H66.442a.724.724,0,0,1-.724-.724V83.175a.724.724,0,0,1,.724-.724H76.07a.724.724,0,0,1,.724.724V92.8A.724.724,0,0,1,76.07,93.527Z" transform="translate(-62.828 -77.023)" fill="#fee2ca"/>
      <circle id="Эллипс_55" data-name="Эллипс 55" cx="1.938" cy="1.938" r="1.938" transform="translate(6.49 7.384)" fill="#ffcebf"/>
      <path id="Контур_588" data-name="Контур 588" d="M113.006,166.292h4.228v-1.173a2.114,2.114,0,1,0-4.228,0Z" transform="translate(-106.691 -151.744)" fill="#e94444"/>
      <path id="Контур_589" data-name="Контур 589" d="M315.01,42.209h-2.265a1.277,1.277,0,0,1,1.277,1.277V74.408a1.277,1.277,0,0,1-1.277,1.277h2.265a1.277,1.277,0,0,0,1.277-1.277V43.486a1.277,1.277,0,0,0-1.277-1.277Z" transform="translate(-291.967 -39.696)" fill="#b3dafe"/>
    </g>
    <g id="Сгруппировать_466" data-name="Сгруппировать 466" transform="translate(15.368 0)">
      <path id="Контур_590" data-name="Контур 590" d="M41.669,0H19.9a1.822,1.822,0,0,0-1.82,1.82v.693h-.894a1.822,1.822,0,0,0-1.82,1.82V27.6a.543.543,0,1,0,1.086,0V4.334a.735.735,0,0,1,.734-.734H38.955a.735.735,0,0,1,.734.734V35.256a.735.735,0,0,1-.734.734H17.188a.735.735,0,0,1-.734-.734V30.136a.543.543,0,0,0-1.086,0v5.119a1.822,1.822,0,0,0,1.82,1.82H38.955a1.822,1.822,0,0,0,1.82-1.82v-.693h.894a1.822,1.822,0,0,0,1.82-1.82V8.725a.543.543,0,0,0-1.086,0V32.742a.735.735,0,0,1-.734.734h-.693V4.334a1.822,1.822,0,0,0-1.82-1.82H19.169V1.82a.735.735,0,0,1,.734-.734H41.669a.735.735,0,0,1,.734.734v4.37a.543.543,0,1,0,1.086,0V1.82A1.822,1.822,0,0,0,41.669,0Z" transform="translate(-15.368 0)" fill="#2478dd"/>
      <path id="Контур_591" data-name="Контур 591" d="M426.911,148.8h-2.9a1.226,1.226,0,0,0-1.225,1.225v15.417c0,.011,0,.021,0,.031s0,.011,0,.017a.547.547,0,0,0,.026.125l0,.013c.006.017.013.033.021.049l0,.008,1.782,3.57a.9.9,0,0,0,1.669,0l1.782-3.571,0-.01q.011-.022.019-.045l.006-.016a.538.538,0,0,0,.016-.057v0a.538.538,0,0,0,.009-.062c0-.007,0-.014,0-.021s0-.018,0-.028V150.021A1.226,1.226,0,0,0,426.911,148.8Zm-1.449,19.694-1.252-2.509h2.5Zm1.587-3.6h-3.175V153.281h3.175Zm0-12.7h-3.175v-2.174a.139.139,0,0,1,.139-.139h2.9a.139.139,0,0,1,.139.139v2.174Z" transform="translate(-393.286 -138.021)" fill="#2478dd"/>
      <path id="Контур_592" data-name="Контур 592" d="M58.218,391.015a1.124,1.124,0,0,0,1.122,1.122h2.993a1.124,1.124,0,0,0,1.122-1.122v-2.86l1.239-1.318a.543.543,0,1,0-.791-.744l-.94,1a1.116,1.116,0,0,0-.63-.194H59.34a1.124,1.124,0,0,0-1.122,1.122Zm4.152-1.7v1.7a.036.036,0,0,1-.036.036h-1.61a.545.545,0,0,0,.061-.055ZM59.3,388.022a.036.036,0,0,1,.036-.036h2.784l-1.659,1.765-.973-1.483a.541.541,0,0,0-.188-.175v-.07Zm0,1.939c.688,1.048.655,1.015.75,1.09H59.34a.036.036,0,0,1-.036-.036Z" transform="translate(-55.115 -357.976)" fill="#2478dd"/>
      <path id="Контур_593" data-name="Контур 593" d="M160.873,428.091H149.335a.543.543,0,0,0,0,1.086h11.538a.543.543,0,0,0,0-1.086Z" transform="translate(-139.13 -397.091)" fill="#2478dd"/>
      <path id="Контур_594" data-name="Контур 594" d="M59.485,87.114h9.628a1.269,1.269,0,0,0,1.267-1.267V76.218a1.269,1.269,0,0,0-1.267-1.267H59.485a1.269,1.269,0,0,0-1.267,1.267v9.628A1.269,1.269,0,0,0,59.485,87.114Zm-.181-10.9a.181.181,0,0,1,.181-.181h9.628a.181.181,0,0,1,.181.181v9.628a.181.181,0,0,1-.181.181H59.485a.181.181,0,0,1-.181-.181Z" transform="translate(-55.115 -69.523)" fill="#2478dd"/>
      <path id="Контур_595" data-name="Контур 595" d="M106.052,110.217a.544.544,0,0,0,.544-.542V108.5a1.577,1.577,0,0,1,1.564-1.571h.013a1.577,1.577,0,0,1,1.564,1.571v.63h-1.151a.543.543,0,0,0,0,1.086h1.694a.543.543,0,0,0,.543-.542V108.5a2.639,2.639,0,0,0-.778-1.879,2.688,2.688,0,0,0-.3-.259,2.482,2.482,0,1,0-3.156,0,2.693,2.693,0,0,0-.3.26,2.639,2.639,0,0,0-.778,1.879v1.173a.541.541,0,0,0,.542.542Zm2.114-7.163a1.4,1.4,0,0,1,0,2.79h-.009a1.4,1.4,0,0,1,0-2.791Z" transform="translate(-98.982 -94.583)" fill="#2478dd"/>
      <path id="Контур_596" data-name="Контур 596" d="M242.38,112.653h4.8a.543.543,0,0,0,0-1.086h-4.8a.543.543,0,1,0,0,1.086Z" transform="translate(-225.437 -103.488)" fill="#2478dd"/>
      <path id="Контур_597" data-name="Контур 597" d="M242.38,155.174h4.8a.543.543,0,0,0,0-1.086h-4.8a.543.543,0,1,0,0,1.086Z" transform="translate(-225.437 -142.93)" fill="#2478dd"/>
      <path id="Контур_598" data-name="Контур 598" d="M242.38,200.527h4.8a.543.543,0,0,0,0-1.086h-4.8a.543.543,0,1,0,0,1.086Z" transform="translate(-225.437 -184.999)" fill="#2478dd"/>
      <path id="Контур_599" data-name="Контур 599" d="M58.761,272.951h18.1a.543.543,0,0,0,0-1.086h-18.1a.543.543,0,0,0,0,1.086Z" transform="translate(-55.115 -252.178)" fill="#2478dd"/>
      <path id="Контур_600" data-name="Контур 600" d="M58.761,315.471h18.1a.543.543,0,0,0,0-1.086h-18.1a.543.543,0,1,0,0,1.086Z" transform="translate(-55.115 -291.619)" fill="#2478dd"/>
      <path id="Контур_601" data-name="Контур 601" d="M58.761,357.991h18.1a.543.543,0,0,0,0-1.086h-18.1a.543.543,0,1,0,0,1.086Z" transform="translate(-55.115 -331.06)" fill="#2478dd"/>
    </g>
  </g>
</svg>
