<svg width="24.000000" height="24.000000" viewBox="0 0 24 24" fill="none" xmlns="http://www.w3.org/2000/svg" xmlns:xlink="http://www.w3.org/1999/xlink">
	<desc>
			Created with Pixso.
	</desc>
	<defs/>
	<rect id="Frame 4730057" rx="5.750000" width="23.500000" height="23.500000" transform="translate(0.250000 0.250000)" fill="#E7F6FF" fill-opacity="1.000000"/>
	<path id="Union" d="M9 7C7.89 7 7 7.89 7 9L7 9.5C7 10.6 7.89 11.5 9 11.5L9.5 11.5C10.6 11.5 11.5 10.6 11.5 9.5L11.5 9C11.5 7.89 10.6 7 9.5 7L9 7ZM14.5 7C13.39 7 12.5 7.89 12.5 9L12.5 9.5C12.5 10.6 13.39 11.5 14.5 11.5L15 11.5C16.1 11.5 17 10.6 17 9.5L17 9C17 7.89 16.1 7 15 7L14.5 7ZM9 12.5C7.89 12.5 7 13.39 7 14.5L7 15C7 16.1 7.89 17 9 17L9.5 17C10.6 17 11.5 16.1 11.5 15L11.5 14.5C11.5 13.39 10.6 12.5 9.5 12.5L9 12.5ZM14.5 12.5C13.39 12.5 12.5 13.39 12.5 14.5L12.5 15C12.5 16.1 13.39 17 14.5 17L15 17C16.1 17 17 16.1 17 15L17 14.5C17 13.39 16.1 12.5 15 12.5L14.5 12.5Z" fill="#0083CA" fill-opacity="1.000000" fill-rule="evenodd"/>
</svg>
