<svg id="Capa_1" enable-background="new 0 0 512 512" height="512" viewBox="0 0 512 512" width="512" xmlns="http://www.w3.org/2000/svg"><g><path d="m256 271c74.715 0 135.5-60.785 135.5-135.5s-60.785-135.5-135.5-135.5-135.5 60.785-135.5 135.5 60.785 135.5 135.5 135.5zm0-30c-16.186 0-31.529-3.668-45.25-10.21v-4.915c0-8.34 6.785-15.125 15.125-15.125h30.125c24.882 0 45.125-20.243 45.125-45.125 0-8.34 6.785-15.125 15.125-15.125h44.179c-7.305 51.093-51.348 90.5-104.429 90.5zm104.429-120.5h-44.179c-24.882 0-45.125 20.243-45.125 45.125 0 8.34-6.785 15.125-15.125 15.125h-30.125c-19.912 0-36.842 12.97-42.815 30.901-16.639-15.944-28.075-37.271-31.489-61.151h74.304c24.882 0 45.125-20.243 45.125-45.125s-20.243-45.125-45.125-45.125c-8.34 0-15.125-6.785-15.125-15.125v-4.915c13.721-6.542 29.064-10.21 45.25-10.21 53.081 0 97.124 39.407 104.429 90.5zm-177.369-61.151c5.973 17.931 22.903 30.901 42.815 30.901 8.34 0 15.125 6.785 15.125 15.125s-6.785 15.125-15.125 15.125h-74.304c3.414-23.88 14.85-45.208 31.489-61.151z"/><path d="m511.961 111.913h-45.104c-24.872 0-45.107 20.235-45.107 45.107v85.49l-10.352 10.352c-16.781-8.024-37.531-5.094-51.412 8.787l-39.831 39.831c-26.613 1.996-49.858 16.223-64.155 37.049-14.298-20.826-37.543-35.053-64.155-37.049l-39.831-39.832c-12.757-13.098-34.142-17.079-51.428-8.802l-10.336-10.336v-85.49c0-24.872-20.235-45.107-45.107-45.107h-45.106l-.037 210.549 120.5 120.501.001 69.037h270.998l.001-69.037 120.5-120.501zm-270.961 370.087h-90.499l-.001-51.463-120.498-120.499.029-168.125h15.111c8.33 0 15.107 6.777 15.107 15.107v97.916l17.33 17.331-21.29 21.29 95.812 95.813 21.213-21.213-74.6-74.6 10.695-10.695c4.955-5.016 15.013-6.393 21.39 0l48.375 48.375c33.055-2.747 61.712 22.436 61.824 55.623v95.14zm120.5-51.463-.001 51.463h-90.499v-95.14c-.264-33.021 29.143-58.377 61.824-55.623l48.375-48.375c5.897-5.896 15.492-5.897 21.39 0l10.695 10.695-74.6 74.6 21.213 21.213 95.812-95.813-21.29-21.291 17.33-17.33v-97.917c0-8.33 6.777-15.107 15.107-15.107h15.11c.012 51.79.026 143.522.03 168.125z"/></g></svg>