<svg height="512pt" viewBox="0 0 512 512" width="512pt" xmlns="http://www.w3.org/2000/svg"><path d="m95.332031 222.800781h160.667969c8.285156 0 15-6.714843 15-15 0-8.285156-6.714844-15-15-15h-160.667969c-8.28125 0-15 6.714844-15 15 0 8.285157 6.71875 15 15 15zm0 0"/><path d="m191.734375 257.066406h-96.402344c-8.28125 0-15 6.714844-15 15s6.71875 15 15 15h96.402344c8.28125 0 15-6.714844 15-15s-6.714844-15-15-15zm0 0"/><path d="m191.734375 321.332031h-96.402344c-8.28125 0-15 6.71875-15 15 0 8.285157 6.71875 15 15 15h96.402344c8.28125 0 15-6.714843 15-15 0-8.28125-6.714844-15-15-15zm0 0"/><path d="m191.734375 385.601562h-96.402344c-8.28125 0-15 6.714844-15 15 0 8.28125 6.71875 15 15 15h96.402344c8.28125 0 15-6.71875 15-15 0-8.285156-6.714844-15-15-15zm0 0"/><path d="m383.46875 225.714844v-178.582032c0-12.597656-4.90625-24.433593-13.804688-33.316406-8.894531-8.910156-20.734374-13.816406-33.332031-13.816406h-224.933593c-3.976563 0-7.792969 1.582031-10.605469 4.394531l-96.398438 96.398438c-2.8125 2.8125-4.394531 6.628906-4.394531 10.605469v353.46875c0 25.988281 21.144531 47.132812 47.132812 47.132812h321.332032c79.144531 0 143.535156-64.390625 143.535156-143.53125 0-74.082031-56.410156-135.230469-128.53125-142.753906zm-271-190.570313v60.1875c0 9.449219-7.6875 17.132813-17.132812 17.132813h-60.191407zm-65.335938 446.855469c-9.445312 0-17.132812-7.6875-17.132812-17.132812v-322.398438h65.332031c25.988281 0 47.132813-21.144531 47.132813-47.132812v-65.335938h193.867187c4.574219 0 8.875 1.78125 12.117188 5.027344 3.234375 3.230468 5.015625 7.53125 5.015625 12.105468v178.582032c-72.121094 7.523437-128.53125 68.671875-128.53125 142.753906 0 46.136719 21.886718 87.257812 55.820312 113.53125zm321.335938 0c-62.605469 0-113.535156-50.929688-113.535156-113.53125 0-62.605469 50.929687-113.535156 113.535156-113.535156 62.601562 0 113.53125 50.929687 113.53125 113.535156 0 62.601562-50.929688 113.53125-113.53125 113.53125zm0 0"/><path d="m384.53125 353.46875h-32.132812c-4.964844 0-9.097657-4.019531-9.097657-9.101562 0-4.957032 4.007813-9.101563 9.097657-9.101563h48.203124c8.28125 0 15-6.714844 15-15 0-8.28125-6.71875-15-15-15h-17.132812v-17.132813c0-8.28125-6.71875-15-15-15-8.285156 0-15 6.71875-15 15v17.132813h-1.070312c-21.597657 0-39.097657 17.46875-39.097657 39.101563 0 21.597656 17.46875 39.101562 39.097657 39.101562h32.132812c4.957031 0 9.101562 4.003906 9.101562 9.097656 0 4.949219-3.996093 9.101563-9.101562 9.101563h-48.199219c-8.28125 0-15 6.714843-15 15 0 8.28125 6.71875 15 15 15h17.136719v17.132812c0 8.285157 6.714844 15 15 15 8.28125 0 15-6.714843 15-15v-17.132812h1.0625c21.640625 0 39.101562-17.511719 39.101562-39.101563 0-21.601562-17.472656-39.097656-39.101562-39.097656zm0 0"/></svg>