<svg id="Capa_1" enable-background="new 0 0 512 512" height="512" viewBox="0 0 512 512" width="512" xmlns="http://www.w3.org/2000/svg"><path d="m467 123.899v-56.399c0-37.219-30.28-67.5-67.5-67.5s-67.5 30.281-67.5 67.5v332c0 45.491-37.458 82.5-83.5 82.5s-83.5-37.009-83.5-82.5v-8.248c75.694-7.55 135-71.604 135-149.252v-122c0-44.516-32.489-81.58-75-88.743v-16.257c0-8.284-6.716-15-15-15s-15 6.716-15 15v60c0 8.284 6.716 15 15 15s15-6.716 15-15v-13.101c25.849 6.677 45 30.195 45 58.101v107h-45c-8.284 0-15 6.716-15 15 0 33.084-26.916 60-60 60s-60-26.916-60-60c0-8.284-6.716-15-15-15h-45v-107c0-27.906 19.151-51.424 45-58.101v13.101c0 8.284 6.716 15 15 15s15-6.716 15-15v-60c0-8.284-6.716-15-15-15s-15 6.716-15 15v16.257c-42.511 7.163-75 44.227-75 88.743v122c0 77.648 59.306 141.702 135 149.252v8.248c0 62.033 50.916 112.5 113.5 112.5s113.5-50.467 113.5-112.5v-332c0-20.677 16.822-37.5 37.5-37.5s37.5 16.823 37.5 37.5v56.399c-25.849 6.677-45 30.195-45 58.101 0 33.084 26.916 60 60 60s60-26.916 60-60c0-27.906-19.151-51.424-45-58.101zm-436.067 133.101h30.317c7.162 42.511 44.234 75 88.75 75s81.588-32.489 88.75-75h30.317c-7.406 59.113-57.979 105-119.067 105s-111.661-45.887-119.067-105zm421.067-45c-16.542 0-30-13.458-30-30 0-16.541 13.456-29.998 29.997-30h.003s.002 0 .003 0c16.541.002 29.997 13.459 29.997 30 0 16.542-13.458 30-30 30z"/></svg>