<svg id="Capa_1" enable-background="new 0 0 512 512" height="512" viewBox="0 0 512 512" width="512" xmlns="http://www.w3.org/2000/svg"><g id="Folder_3_"><g><path d="m172 352h-112c-33.084 0-60-26.916-60-60v-232c0-33.084 26.916-60 60-60h95.432c16.026 0 31.094 6.241 42.426 17.574l22.426 22.426h111.716c33.084 0 60 26.916 60 60v72c0 11.046-8.954 20-20 20s-20-8.954-20-20v-72c0-11.028-8.972-20-20-20h-120c-5.304 0-10.392-2.107-14.142-5.858l-28.284-28.284c-3.778-3.777-8.8-5.858-14.142-5.858h-95.432c-11.028 0-20 8.972-20 20v232c0 11.028 8.972 20 20 20h112c11.046 0 20 8.954 20 20s-8.954 20-20 20z"/></g><g><path d="m332 512h-80c-11.046 0-20-8.954-20-20v-80c0-11.046 8.954-20 20-20h80c11.046 0 20 8.954 20 20v80c0 11.046-8.954 20-20 20zm-60-40h40v-40h-40z"/></g><g><path d="m492 512h-80c-11.046 0-20-8.954-20-20v-80c0-11.046 8.954-20 20-20h80c11.046 0 20 8.954 20 20v80c0 11.046-8.954 20-20 20zm-60-40h40v-40h-40z"/></g><g><path d="m492 352h-80c-11.046 0-20-8.954-20-20v-80c0-11.046 8.954-20 20-20h80c11.046 0 20 8.954 20 20v80c0 11.046-8.954 20-20 20zm-60-40h40v-40h-40z"/></g><g><path d="m332 352h-80c-11.046 0-20-8.954-20-20v-80c0-11.046 8.954-20 20-20h80c11.046 0 20 8.954 20 20v80c0 11.046-8.954 20-20 20zm-60-40h40v-40h-40z"/></g></g></svg>