<svg id="Capa_1" enable-background="new 0 0 512 512" height="512" viewBox="0 0 512 512" width="512" xmlns="http://www.w3.org/2000/svg"><g><path d="m426.142 205.858-91.716-91.716c-11.333-11.333-26.4-17.574-42.427-17.574s-31.094 6.241-42.427 17.574l-91.716 91.716c-7.81 7.811-7.81 20.474 0 28.284 7.811 7.811 20.475 7.811 28.285 0l5.857-5.857v31.715c0 33.084 26.916 60 60 60h80c33.084 0 60-26.916 60-60v-31.715l5.857 5.857c7.81 7.81 20.475 7.81 28.285 0 7.812-7.81 7.812-20.474.002-28.284zm-74.142 54.142c0 11.028-8.972 20-20 20h-20v-20c0-11.046-8.954-20-20-20s-20 8.954-20 20v20h-20c-11.028 0-20-8.972-20-20v-71.715l45.858-45.858c3.777-3.777 8.8-5.858 14.142-5.858s10.364 2.081 14.142 5.858l45.858 45.858z"/><path d="m292 0c-121.596 0-220 98.404-220 220 0 52.045 17.963 101.324 50.935 140.781l-117.078 117.077c-7.81 7.811-7.81 20.474 0 28.284s20.475 7.81 28.285 0l117.078-117.077c39.457 32.972 88.734 50.935 140.78 50.935 121.596 0 220-98.404 220-220s-98.404-220-220-220zm0 400c-99.252 0-180-80.748-180-180s80.748-180 180-180 180 80.748 180 180-80.748 180-180 180z"/></g></svg>