<svg id="Capa_1" enable-background="new 0 0 512 512" height="512" viewBox="0 0 512 512" width="512" xmlns="http://www.w3.org/2000/svg"><g><circle cx="256" cy="156.001" r="20"/><path d="m474.352 100.308s-196.034-80.014-196.079-80.031c-13.837-5.532-29.858-5.872-44.546 0-.045.018-196.079 80.031-196.079 80.031-22.873 9.185-37.648 31.037-37.648 55.693s14.775 46.508 37.648 55.693c46.376 18.929 195.976 79.991 196.079 80.031 13.837 5.532 29.858 5.872 44.546 0 .1-.039-4.888 1.996 196.079-80.031 22.873-9.185 37.648-31.037 37.648-55.693s-14.775-46.508-37.648-55.693zm-14.932 74.278c-.043.017-196.047 80.019-196.047 80.019-4.674 1.854-10.072 1.854-14.746 0 0 0-196.004-80.001-196.047-80.019-7.642-3.058-12.58-10.352-12.58-18.585s4.938-15.527 12.58-18.584c.043-.017 196.047-80.019 196.047-80.019 4.674-1.854 10.072-1.854 14.746 0 0 0 196.004 80.001 196.047 80.019 7.642 3.057 12.58 10.352 12.58 18.584s-4.938 15.527-12.58 18.585z"/><path d="m136 297.247c-11.046 0-20 8.954-20 20v6.766c0 24.677 14.805 46.544 37.717 55.708l80.01 32.004c13.985 5.591 30.001 5.815 44.549-.001l80.007-32.003c22.912-9.164 37.717-31.031 37.717-55.708v-6.766c0-11.046-8.954-20-20-20s-20 8.954-20 20v6.766c0 8.226-4.935 15.515-12.572 18.57l-80.003 32.001c-4.704 1.881-10.148 1.879-14.845.001l-80.007-32.003c-7.637-3.055-12.572-10.344-12.572-18.57v-6.766c-.001-11.045-8.955-19.999-20.001-19.999z"/><path d="m472 427.717v-142.47c0-11.046-8.954-20-20-20s-20 8.954-20 20v142.47l-34.142 34.142c-7.811 7.811-7.811 20.474 0 28.284s20.474 7.811 28.284 0l25.858-25.858 25.858 25.858c7.81 7.81 20.473 7.811 28.284 0s7.811-20.474 0-28.284z"/></g></svg>