<svg xmlns="http://www.w3.org/2000/svg" width="31.987" height="38.393" viewBox="0 0 31.987 38.393">
  <g id="social" transform="translate(0 0.016)">
    <g id="_038---Pension-Protection" data-name="038---Pension-Protection" transform="translate(0 -0.016)">
      <path id="Shape" d="M30.67,8.947a1.274,1.274,0,0,1,1.037,1.271v7.763a21.983,21.983,0,0,1-12.021,19.6l-2.762,1.379a1.279,1.279,0,0,1-1.143,0l-2.762-1.379A21.983,21.983,0,0,1,1,17.981V10.219A1.274,1.274,0,0,1,2.037,8.947a6.406,6.406,0,0,0,5.3-5.41A1.292,1.292,0,0,1,8.406,2.427a53.738,53.738,0,0,1,7.947-.432,53.738,53.738,0,0,1,7.947.432,1.292,1.292,0,0,1,1.073,1.111,6.406,6.406,0,0,0,5.3,5.41Z" transform="translate(-0.36 -1.344)" fill="#3f51b5"/>
      <path id="Shape-2" data-name="Shape" d="M38.776,8.947a6.406,6.406,0,0,1-5.3-5.41,1.292,1.292,0,0,0-1.073-1.111,53.738,53.738,0,0,0-7.947-.432c-.333,0-.65,0-.96,0a49.911,49.911,0,0,1,6.987.428,1.292,1.292,0,0,1,1.073,1.111,6.406,6.406,0,0,0,5.3,5.41,1.274,1.274,0,0,1,1.036,1.271v7.763a21.983,21.983,0,0,1-12.021,19.6L23.5,38.771l.388.192a1.279,1.279,0,0,0,1.143,0l2.762-1.379a21.983,21.983,0,0,0,12.021-19.6V10.219a1.274,1.274,0,0,0-1.037-1.271Z" transform="translate(-8.466 -1.344)" fill="#283593"/>
      <path id="Shape-3" data-name="Shape" d="M15.6,36.743A19.465,19.465,0,0,1,5,19.428v-6.3a.644.644,0,0,1,.44-.6A8.892,8.892,0,0,0,11.009,6.7a.64.64,0,0,1,.547-.463C12.824,6.118,14.818,6,17.795,6s4.971.118,6.239.241a.64.64,0,0,1,.547.463,8.892,8.892,0,0,0,5.566,5.822.644.644,0,0,1,.44.6v6.3a19.465,19.465,0,0,1-10.6,17.316l-1.9.949a.64.64,0,0,1-.571,0Z" transform="translate(-1.801 -2.791)" fill="#02a9f4"/>
      <path id="Shape-4" data-name="Shape" d="M36.814,12.525A8.892,8.892,0,0,1,31.248,6.7a.64.64,0,0,0-.547-.463C29.43,6.118,27.436,6,24.46,6c-.333,0-.651,0-.96,0,2.45.022,4.153.128,5.279.236a.64.64,0,0,1,.547.463,8.892,8.892,0,0,0,5.566,5.822.644.644,0,0,1,.44.6v6.3a19.465,19.465,0,0,1-10.6,17.316l-1.228.613.674.336a.64.64,0,0,0,.571,0l1.9-.949A19.465,19.465,0,0,0,37.254,19.428v-6.3A.644.644,0,0,0,36.814,12.525Z" transform="translate(-8.466 -2.791)" fill="#0377bc"/>
      <path id="Shape-5" data-name="Shape" d="M28.107,29l-.71,2.559H21V30.279A1.283,1.283,0,0,1,22.279,29Z" transform="translate(-7.566 -11.077)" fill="#ffdc00"/>
      <path id="Shape-6" data-name="Shape" d="M8.64,18.6a.64.64,0,0,1-.64-.64V15.869a1.279,1.279,0,0,1,.677-1.123,11.978,11.978,0,0,0,4.976-5.02A1.272,1.272,0,0,1,14.8,9h.875a.64.64,0,0,1,0,1.279H14.8a13.273,13.273,0,0,1-5.52,5.593l0,2.084A.64.64,0,0,1,8.64,18.6Z" transform="translate(-2.882 -3.872)" fill="#f5f5f5"/>
      <circle id="Oval" cx="0.64" cy="0.64" r="0.64" transform="translate(5.118 16.004)" fill="#f5f5f5"/>
      <g id="Сгруппировать_467" data-name="Сгруппировать 467">
        <path id="Shape-7" data-name="Shape" d="M12.375,37.8l2.761,1.378a1.926,1.926,0,0,0,1.714,0L19.612,37.8A22.689,22.689,0,0,0,31.987,17.621V9.858a1.924,1.924,0,0,0-1.574-1.9,5.8,5.8,0,0,1-4.766-4.868,1.929,1.929,0,0,0-1.608-1.654,54.329,54.329,0,0,0-8.046-.44,54.329,54.329,0,0,0-8.046.44A1.929,1.929,0,0,0,6.34,3.088,5.8,5.8,0,0,1,1.574,7.956,1.924,1.924,0,0,0,0,9.858v7.763A22.69,22.69,0,0,0,12.375,37.8ZM1.279,9.858a.634.634,0,0,1,.5-.64,7.087,7.087,0,0,0,5.827-5.95A.654.654,0,0,1,8.146,2.7a53.122,53.122,0,0,1,7.848-.427,53.122,53.122,0,0,1,7.848.425.654.654,0,0,1,.539.569,7.087,7.087,0,0,0,5.827,5.95.634.634,0,0,1,.5.64v7.764A21.4,21.4,0,0,1,19.041,36.653l-2.763,1.382a.64.64,0,0,1-.57,0l-2.762-1.378A21.4,21.4,0,0,1,1.279,17.621Z" transform="translate(0 -0.984)"/>
        <path id="Shape-8" data-name="Shape" d="M14.958,36.955l1.9.951a1.287,1.287,0,0,0,1.143,0l1.9-.95A20.109,20.109,0,0,0,30.869,19.068v-6.3A1.288,1.288,0,0,0,30,11.561a8.294,8.294,0,0,1-5.169-5.4,1.279,1.279,0,0,0-1.1-.914C22.063,5.082,19.943,5,17.434,5s-4.628.082-6.3.244a1.279,1.279,0,0,0-1.1.914,8.3,8.3,0,0,1-5.168,5.4A1.288,1.288,0,0,0,4,12.769v6.3A20.108,20.108,0,0,0,14.958,36.955ZM5.293,12.768a9.56,9.56,0,0,0,5.965-6.251c1.607-.156,3.746-.238,6.177-.238s4.57.082,6.173.249a9.574,9.574,0,0,0,5.982,6.241v6.3A18.822,18.822,0,0,1,19.337,35.812l-1.9.949-1.9-.95A18.82,18.82,0,0,1,5.279,19.068Z" transform="translate(-1.441 -2.431)"/>
        <path id="Shape-9" data-name="Shape" d="M28.627,30.867a.64.64,0,1,0-.724-1.054,14,14,0,0,1-1.97,1.125L24.456,26.5l2.969-10.684a.64.64,0,1,0-1.233-.343l-1.469,5.286H13.551a.64.64,0,1,0,0,1.279h.64v3.838h-.64a.64.64,0,1,0,0,1.279h1.672l-1.259,3.781a14,14,0,0,1-1.97-1.125.64.64,0,1,0-.724,1.054,15.359,15.359,0,0,0,17.357,0ZM23.3,25.877H18.029v-.64a.64.64,0,0,1,.64-.64h4.99Zm-7.83-3.838h8.9l-.356,1.279H18.669a1.919,1.919,0,0,0-1.919,1.919v.64H15.47Zm1.1,5.118h6.754l1.421,4.27a14,14,0,0,1-9.6,0Z" transform="translate(-3.955 -6.035)"/>
      </g>
    </g>
  </g>
</svg>
