<svg width="600" height="400" viewBox="0 0 600 400" fill="none" xmlns="http://www.w3.org/2000/svg">
<path d="M373.601 355.086C375.528 354.005 377.693 353.421 379.902 353.385C382.111 353.349 384.294 353.862 386.255 354.879C388.216 355.896 389.894 357.385 391.137 359.211C392.38 361.037 393.15 363.144 393.377 365.342C385.297 365.342 377.377 363.462 373.601 355.086Z" fill="#EBEBEB"/>
<path d="M383.009 346.808C385.726 347.7 388.622 347.902 391.436 347.396C394.251 346.89 396.895 345.692 399.131 343.91C401.367 342.127 403.125 339.817 404.246 337.186C405.367 334.555 405.816 331.687 405.553 328.84C395.289 330.856 385.657 335.24 383.009 346.808Z" fill="#EBEBEB"/>
<path d="M347.832 360.476C347.994 360.394 348.163 360.327 348.336 360.276L349.816 359.78C351.096 359.364 352.952 358.755 355.232 357.963C359.8 356.363 366.064 354.092 372.832 351.156C376.2 349.676 379.368 348.172 382.216 346.732C385.064 345.292 387.552 343.867 389.616 342.611C391.241 341.635 392.809 340.567 394.312 339.411C395.368 338.611 395.912 338.044 395.912 338.076C395.807 338.222 395.687 338.356 395.552 338.476C395.191 338.851 394.809 339.206 394.408 339.539C392.936 340.76 391.383 341.88 389.76 342.891C387.72 344.187 385.216 345.612 382.384 347.1C379.552 348.588 376.368 350.084 372.984 351.572C366.224 354.516 359.928 356.772 355.336 358.276C353.04 359.036 351.168 359.595 349.872 359.963L348.376 360.387C348.199 360.44 348.016 360.469 347.832 360.476Z" fill="#E0E0E0"/>
<path d="M384 359.79C384 359.854 383.024 359.198 381.416 358.326C379.316 357.199 377.097 356.308 374.8 355.67C372.497 355.045 370.13 354.683 367.744 354.59C365.92 354.518 364.776 354.59 364.776 354.526C365.037 354.45 365.305 354.407 365.576 354.398C366.302 354.321 367.031 354.286 367.76 354.294C372.615 354.315 377.378 355.618 381.568 358.07C382.2 358.436 382.809 358.84 383.392 359.278C383.619 359.418 383.824 359.591 384 359.79Z" fill="#E0E0E0"/>
<path d="M193.385 323.824C192.407 326.432 192.092 329.242 192.469 332.001C192.847 334.76 193.904 337.382 195.546 339.632C197.189 341.881 199.364 343.687 201.878 344.886C204.391 346.086 207.163 346.642 209.945 346.504C208.409 336.44 204.537 326.872 193.385 323.824Z" fill="#EBEBEB"/>
<path d="M191.809 318.879C191.873 318.879 192.145 319.983 192.729 321.735C193.487 324.019 194.437 326.235 195.569 328.359C196.715 330.475 198.034 332.492 199.513 334.391C200.657 335.847 201.433 336.695 201.385 336.743C201.16 336.591 200.955 336.411 200.777 336.207C200.401 335.839 199.889 335.287 199.289 334.607C196.142 330.881 193.812 326.537 192.449 321.855C192.193 320.959 192.009 320.255 191.921 319.711C191.839 319.441 191.801 319.16 191.809 318.879Z" fill="#E0E0E0"/>
<path d="M33.5127 121.949C31.9936 125.992 31.5045 130.349 32.0895 134.628C32.6745 138.907 34.3152 142.973 36.8637 146.46C39.4123 149.947 42.7884 152.744 46.6879 154.6C50.5874 156.457 54.8875 157.313 59.2007 157.093C56.8007 141.493 50.8247 126.693 33.5447 121.949" fill="#EBEBEB"/>
<path d="M31.0645 114.301C31.227 114.685 31.3529 115.085 31.4405 115.493C31.6485 116.293 31.9765 117.381 32.4165 118.749C33.5772 122.299 35.044 125.741 36.8005 129.037C38.5704 132.331 40.6263 135.463 42.9445 138.397C43.8405 139.517 44.5445 140.413 45.1125 141.013C45.4021 141.316 45.6695 141.639 45.9125 141.981C45.5827 141.724 45.2774 141.438 45.0005 141.125C44.4325 140.549 43.6485 139.685 42.7285 138.581C37.8974 132.789 34.2963 126.074 32.1445 118.845C31.7365 117.469 31.4485 116.333 31.2885 115.549C31.1844 115.139 31.1096 114.722 31.0645 114.301Z" fill="#E0E0E0"/>
<path d="M60.5441 281.184C58.373 282.93 56.6704 285.189 55.5897 287.757C54.5089 290.326 54.0839 293.122 54.3529 295.896C54.6219 298.669 55.5765 301.332 57.1307 303.644C58.6848 305.957 60.7898 307.847 63.2561 309.144C67.0561 299.696 68.5921 289.496 60.5441 281.184Z" fill="#EBEBEB"/>
<path d="M61.6967 276.125C61.7607 276.125 61.4327 277.253 61.0407 279.053C60.0049 283.765 59.8019 288.623 60.4407 293.405C60.6807 295.237 60.9207 296.365 60.8487 296.381C60.734 296.125 60.6508 295.857 60.6007 295.581C60.4647 295.077 60.3047 294.341 60.1447 293.429C59.343 288.618 59.5501 283.692 60.7527 278.965C60.9847 278.061 61.2087 277.365 61.3847 276.853C61.4604 276.599 61.5651 276.355 61.6967 276.125Z" fill="#E0E0E0"/>
<path d="M209.009 78.894C211.502 80.1355 214.265 80.7375 217.049 80.6459C219.833 80.5543 222.551 79.7719 224.957 78.3691C227.364 76.9663 229.384 74.9872 230.835 72.6098C232.287 70.2325 233.124 67.5315 233.273 64.75C223.097 65.238 213.193 68.11 209.009 78.894Z" fill="#EBEBEB"/>
<path d="M203.929 79.9975C203.929 79.9335 205.065 79.7735 206.865 79.3735C211.577 78.3438 216.074 76.5002 220.153 73.9255C221.753 72.9335 222.641 72.2535 222.681 72.3255C222.511 72.5375 222.312 72.7234 222.089 72.8775C221.689 73.2135 221.081 73.6775 220.313 74.1895C216.283 76.9333 211.724 78.8053 206.929 79.6855C206.009 79.8535 205.265 79.9495 204.745 79.9975C204.474 80.0341 204.199 80.0341 203.929 79.9975Z" fill="#E0E0E0"/>
<path d="M188.273 77.4462C191.864 76.6753 195.208 75.0234 198.002 72.6392C200.797 70.255 202.954 67.2133 204.281 63.7879C205.608 60.3625 206.062 56.661 205.602 53.0165C205.143 49.3721 203.784 45.8991 201.649 42.9102C191.569 51.7822 183.713 62.9102 188.273 77.4462Z" fill="#EBEBEB"/>
<path d="M183.912 82.7106C184.11 82.4234 184.335 82.1556 184.584 81.9106C185.04 81.4066 185.688 80.6546 186.456 79.7106C190.49 74.7825 193.614 69.1748 195.68 63.1506C196.08 61.9986 196.376 61.0546 196.568 60.3986C196.648 60.0518 196.764 59.7141 196.912 59.3906C196.888 59.7461 196.823 60.0976 196.72 60.4386C196.584 61.1106 196.32 62.0386 195.92 63.2386C194.001 69.3664 190.846 75.0353 186.648 79.8946C185.848 80.8226 185.16 81.5506 184.664 82.0226C184.438 82.2775 184.186 82.508 183.912 82.7106Z" fill="#E0E0E0"/>
<path d="M253.896 351.494C254.655 352.988 255.773 354.271 257.15 355.227C258.527 356.182 260.12 356.781 261.786 356.969C263.451 357.157 265.137 356.928 266.693 356.304C268.248 355.679 269.624 354.678 270.696 353.39C265.608 349.966 259.784 347.79 253.896 351.494Z" fill="#EBEBEB"/>
<path d="M251.064 350.184C252.936 351.013 254.86 351.718 256.824 352.296C258.823 352.737 260.849 353.042 262.888 353.208C262.293 353.339 261.68 353.376 261.072 353.32C258.127 353.219 255.239 352.48 252.608 351.152C252.048 350.908 251.528 350.582 251.064 350.184Z" fill="#E0E0E0"/>
<path d="M328.057 64.2603C329.089 65.5831 330.434 66.6281 331.971 67.3014C333.508 67.9746 335.188 68.2548 336.861 68.1167C338.533 67.9786 340.144 67.4266 341.55 66.5103C342.956 65.5941 344.111 64.3425 344.913 62.8683C339.257 60.4683 333.129 59.4843 328.057 64.2603Z" fill="#EBEBEB"/>
<path d="M325.024 63.5273C328.999 64.5678 333.143 64.799 337.208 64.2073C336.647 64.444 336.054 64.5976 335.448 64.6633C332.538 65.1374 329.56 64.9708 326.72 64.1753C326.126 64.0463 325.554 63.8278 325.024 63.5273Z" fill="#E0E0E0"/>
<path d="M520.248 88.8716C522.932 89.61 525.757 89.6701 528.469 89.0465C531.182 88.4229 533.697 87.1351 535.789 85.2988C537.881 83.4625 539.483 81.1353 540.453 78.5263C541.423 75.9173 541.729 73.1082 541.344 70.3516C531.456 72.7516 522.288 77.4956 520.248 88.8716Z" fill="#EBEBEB"/>
<path d="M515.465 90.884C515.465 90.82 516.529 90.444 518.225 89.708C522.653 87.7965 526.714 85.1272 530.225 81.82C531.577 80.548 532.345 79.7 532.401 79.748C532.27 79.9841 532.109 80.202 531.921 80.396C531.593 80.804 531.121 81.364 530.433 81.996C527 85.4583 522.883 88.1666 518.345 89.948C517.481 90.284 516.745 90.532 516.265 90.668C516.008 90.7732 515.74 90.8458 515.465 90.884Z" fill="#E0E0E0"/>
<path d="M539.201 332.703C543.921 331.61 548.296 329.361 551.932 326.159C555.568 322.956 558.351 318.901 560.031 314.356C561.711 309.811 562.235 304.92 561.557 300.123C560.879 295.325 559.019 290.772 556.145 286.871C543.001 298.783 532.873 313.599 539.201 332.703Z" fill="#EBEBEB"/>
<path d="M533.528 339.744C533.801 339.36 534.1 338.996 534.424 338.656C535.024 337.984 535.864 336.984 536.864 335.728C537.864 334.472 539.016 332.928 540.208 331.168C541.4 329.408 542.608 327.4 543.784 325.24C544.96 323.08 545.92 320.952 546.744 318.984C547.568 317.016 548.216 315.216 548.704 313.68C549.192 312.144 549.56 310.896 549.792 310.024C549.893 309.565 550.032 309.115 550.208 308.68C550.157 309.147 550.071 309.609 549.952 310.064C549.768 310.952 549.44 312.216 548.984 313.768C548.528 315.32 547.896 317.144 547.104 319.136C546.312 321.128 545.312 323.256 544.152 325.44C543.045 327.48 541.835 329.464 540.528 331.384C539.304 333.144 538.128 334.672 537.096 335.912C536.064 337.152 535.176 338.128 534.544 338.768C534.232 339.119 533.892 339.446 533.528 339.744Z" fill="#E0E0E0"/>
<path d="M430.576 231.84C425.528 203.64 401.312 179.04 372.76 176.688C357.2 175.424 341.56 180.328 326.064 178.456C312.93 176.816 300.845 170.445 292.072 160.536C279.272 145.976 274.944 125.264 261.392 111.408C242.72 92.2956 210.136 91.9996 187.416 106.056C164.696 120.112 150.96 145.48 144.672 171.44L144.424 179.336C143.056 206.264 150.144 237.6 165.768 261.6C181.6 285.92 192.008 296 220.856 313.448C245.352 328.296 293.32 334.824 321.96 335.512C350.6 336.2 380.016 327.672 401.56 308.776C423.104 289.88 435.632 260.04 430.576 231.84Z" fill="#8EBDF3"/>
<g opacity="0.8">
<path d="M430.576 231.84C425.528 203.64 401.312 179.04 372.76 176.688C357.2 175.424 341.56 180.328 326.064 178.456C312.93 176.816 300.845 170.445 292.072 160.536C279.272 145.976 274.944 125.264 261.392 111.408C242.72 92.2956 210.136 91.9996 187.416 106.056C164.696 120.112 150.96 145.48 144.672 171.44L144.424 179.336C143.056 206.264 150.144 237.6 165.768 261.6C181.6 285.92 192.008 296 220.856 313.448C245.352 328.296 293.32 334.824 321.96 335.512C350.6 336.2 380.016 327.672 401.56 308.776C423.104 289.88 435.632 260.04 430.576 231.84Z" fill="white"/>
</g>
<path d="M458.652 332.523C459.747 324.981 454.52 317.979 446.977 316.884C439.435 315.789 432.433 321.016 431.338 328.558C430.243 336.1 435.47 343.102 443.012 344.197C450.555 345.292 457.557 340.066 458.652 332.523Z" fill="#8EBDF3"/>
<path opacity="0.8" d="M458.652 332.523C459.747 324.981 454.52 317.979 446.977 316.884C439.435 315.789 432.433 321.016 431.338 328.558C430.243 336.1 435.47 343.102 443.012 344.197C450.555 345.292 457.557 340.066 458.652 332.523Z" fill="white"/>
<path d="M348.128 224.358C348.389 251.91 342.384 272.977 330.112 287.558C317.84 302.14 301.04 309.526 279.712 309.718C258.272 309.926 241.229 302.865 228.584 288.534C215.939 274.204 209.48 253.265 209.208 225.718L208.744 177.27C208.477 149.825 214.483 128.758 226.76 114.07C239.037 99.3821 255.893 91.9475 277.328 91.7662C298.661 91.5582 315.656 98.6702 328.312 113.102C340.968 127.534 347.424 148.47 347.68 175.91L348.128 224.358ZM312.264 170.822C312.088 153.473 309.067 140.662 303.2 132.39C297.333 124.118 288.8 120.033 277.6 120.134C266.437 120.241 258.013 124.489 252.328 132.878C246.643 141.267 243.867 154.134 244 171.478L244.56 230.35C244.725 247.79 247.784 260.673 253.736 268.998C259.688 277.323 268.24 281.433 279.392 281.326C290.544 281.219 298.941 276.972 304.584 268.582C310.227 260.193 312.965 247.23 312.8 229.694L312.264 170.822Z" fill="#8EBDF3"/>
<g opacity="0.4">
<path d="M348.129 224.358C348.39 251.91 342.385 272.977 330.113 287.558C317.841 302.14 301.041 309.526 279.713 309.718C258.273 309.926 241.23 302.865 228.585 288.534C215.94 274.204 209.481 253.265 209.209 225.718L208.745 177.27C208.478 149.825 214.484 128.758 226.761 114.07C239.038 99.3821 255.894 91.9475 277.329 91.7662C298.662 91.5582 315.657 98.6702 328.313 113.102C340.969 127.534 347.425 148.47 347.681 175.91L348.129 224.358ZM312.265 170.822C312.089 153.473 309.068 140.662 303.201 132.39C297.334 124.118 288.801 120.033 277.601 120.134C266.438 120.241 258.014 124.489 252.329 132.878C246.644 141.267 243.868 154.134 244.001 171.478L244.561 230.35C244.726 247.79 247.785 260.673 253.737 268.998C259.689 277.323 268.241 281.433 279.393 281.326C290.545 281.219 298.942 276.972 304.585 268.582C310.228 260.193 312.966 247.23 312.801 229.694L312.265 170.822Z" fill="black"/>
</g>
<path d="M368.496 224.167C368.763 251.714 362.758 272.78 350.48 287.367C338.203 301.954 321.403 309.34 300.08 309.527C278.64 309.735 261.598 302.671 248.952 288.335C236.307 273.999 229.856 253.055 229.6 225.503L229.136 177.055C228.87 149.61 234.875 128.543 247.152 113.855C259.43 99.1671 276.286 91.7297 297.72 91.5431C319.054 91.3457 336.048 98.4577 348.704 112.879C361.36 127.3 367.792 148.247 368 175.719L368.496 224.167ZM332.632 170.631C332.462 153.287 329.427 140.487 323.528 132.231C317.63 123.975 309.096 119.89 297.928 119.975C286.766 120.087 278.342 124.335 272.656 132.719C266.971 141.103 264.208 153.972 264.368 171.327L264.936 230.191C265.107 247.636 268.166 260.522 274.112 268.847C280.059 277.172 288.611 281.282 299.768 281.175C310.92 281.063 319.318 276.815 324.96 268.431C330.603 260.047 333.339 247.082 333.168 229.535L332.632 170.631Z" fill="#8EBDF3"/>
<path d="M229.24 179.935C229.28 180.039 224.552 181.919 218.68 184.127C212.808 186.335 208 187.999 208 187.927C208 187.855 212.688 185.943 218.56 183.735C224.432 181.527 229.2 179.823 229.24 179.935Z" fill="#8EBDF3"/>
<path d="M230.4 199.079C230.44 199.183 225.712 201.063 219.832 203.271C213.952 205.479 209.168 207.175 209.128 207.071C209.088 206.967 213.816 205.087 219.688 202.879C225.56 200.671 230.4 198.967 230.4 199.079Z" fill="#8EBDF3"/>
<path d="M231.592 218.224C231.632 218.328 226.904 220.208 221.024 222.416C215.144 224.624 210.4 226.32 210.32 226.216C210.24 226.112 215.008 224.232 220.88 222.024C226.752 219.816 231.552 218.112 231.592 218.224Z" fill="#8EBDF3"/>
<path d="M232.801 237.365C232.841 237.469 228.113 239.349 222.233 241.557C216.353 243.765 211.561 245.461 211.521 245.357C211.481 245.253 216.217 243.373 222.089 241.165C227.961 238.957 232.729 237.253 232.801 237.365Z" fill="#8EBDF3"/>
<path d="M233.944 256.512C233.714 256.66 233.467 256.781 233.208 256.872C232.728 257.08 232.024 257.368 231.16 257.712C229.416 258.408 227.008 259.312 224.336 260.344C221.664 261.376 219.232 262.232 217.464 262.856C216.584 263.168 215.864 263.416 215.368 263.576C215.113 263.683 214.844 263.753 214.568 263.784C214.798 263.633 215.045 263.512 215.304 263.424C215.784 263.216 216.48 262.928 217.352 262.624C219.088 261.928 221.504 261.024 224.176 259.992C226.848 258.96 229.28 258.096 231.048 257.48C231.928 257.168 232.648 256.92 233.144 256.76C233.397 256.637 233.667 256.553 233.944 256.512Z" fill="#8EBDF3"/>
<path d="M239.408 274.02C238.637 274.435 237.834 274.791 237.008 275.084C235.488 275.692 233.384 276.508 231.056 277.388C228.728 278.268 226.6 279.036 225.064 279.572C224.244 279.905 223.399 280.172 222.536 280.372C223.307 279.954 224.109 279.598 224.936 279.308C226.448 278.692 228.552 277.876 230.888 277.004C233.224 276.132 235.336 275.356 236.88 274.82C237.699 274.482 238.544 274.214 239.408 274.02Z" fill="#8EBDF3"/>
<path d="M251.112 290.086C250.424 290.469 249.704 290.793 248.96 291.054C247.608 291.598 245.76 292.326 243.664 293.11C241.568 293.894 239.664 294.574 238.32 295.046C237.59 295.342 236.835 295.575 236.064 295.742C236.751 295.355 237.471 295.031 238.216 294.774C239.56 294.23 241.416 293.502 243.512 292.718C245.608 291.934 247.512 291.254 248.856 290.774C249.587 290.478 250.342 290.248 251.112 290.086Z" fill="#8EBDF3"/>
<path d="M270.561 300.621C269.871 300.999 269.151 301.32 268.409 301.581C267.057 302.133 265.209 302.861 263.113 303.637C261.017 304.413 259.113 305.101 257.769 305.581C257.039 305.877 256.284 306.107 255.513 306.269C256.201 305.886 256.921 305.562 257.665 305.301C259.017 304.757 260.865 304.029 262.961 303.245C265.057 302.461 266.961 301.781 268.305 301.309C269.033 301.008 269.789 300.778 270.561 300.621Z" fill="#8EBDF3"/>
<path d="M329.216 259.769C329.264 259.873 323.192 262.705 315.656 266.097C308.12 269.489 301.968 272.145 301.92 272.041C301.872 271.937 307.944 269.105 315.52 265.713C323.096 262.321 329.168 259.665 329.216 259.769Z" fill="#8EBDF3"/>
<path d="M333.2 243.363C333.248 243.467 328.232 245.819 322 248.619C315.768 251.419 310.68 253.611 310.632 253.507C310.584 253.403 315.592 251.043 321.832 248.243C328.072 245.443 333.152 243.259 333.2 243.363Z" fill="#8EBDF3"/>
<path d="M335.032 224.944C335.08 225.048 330.064 227.4 323.832 230.2C317.6 233 312.512 235.192 312.464 235.088C312.416 234.984 317.424 232.624 323.664 229.824C329.904 227.024 334.984 224.8 335.032 224.944Z" fill="#8EBDF3"/>
<path d="M336.864 206.508C336.912 206.612 331.904 208.972 325.664 211.772C319.424 214.572 314.344 216.756 314.296 216.652C314.248 216.548 319.264 214.196 325.496 211.396C331.728 208.596 336.8 206.396 336.864 206.508Z" fill="#8EBDF3"/>
<path d="M338.704 188.085C338.744 188.189 333.736 190.549 327.504 193.349C321.272 196.149 316.184 198.333 316.136 198.229C316.088 198.125 321.104 195.773 327.336 192.965C333.568 190.157 338.656 187.997 338.704 188.085Z" fill="#8EBDF3"/>
<path d="M335.032 171.675C335.08 171.779 330.064 174.139 323.832 176.939C317.6 179.739 312.512 181.923 312.464 181.819C312.416 181.715 317.424 179.355 323.664 176.555C329.904 173.755 334.984 171.571 335.032 171.675Z" fill="#8EBDF3"/>
<path d="M335.032 154.015C335.08 154.119 330.064 156.479 323.832 159.279C317.6 162.079 312.512 164.263 312.464 164.159C312.416 164.055 317.424 161.695 323.664 158.895C329.904 156.095 334.984 153.911 335.032 154.015Z" fill="#8EBDF3"/>
<path d="M333.2 137.379C333.248 137.483 328.232 139.835 322 142.635C315.768 145.435 310.68 147.627 310.632 147.523C310.584 147.419 315.592 145.059 321.832 142.259C328.072 139.459 333.152 137.275 333.2 137.379Z" fill="#8EBDF3"/>
<path d="M317.401 125.789C315.204 127.006 312.942 128.101 310.625 129.069C308.362 130.161 306.042 131.128 303.673 131.965C305.867 130.742 308.129 129.647 310.449 128.685C312.711 127.593 315.032 126.626 317.401 125.789Z" fill="#8EBDF3"/>
<path d="M308.953 118.691C306.754 119.902 304.492 120.994 302.177 121.963C299.914 123.056 297.593 124.022 295.225 124.859C297.422 123.648 299.684 122.558 302.001 121.595C304.263 120.5 306.584 119.531 308.953 118.691Z" fill="#8EBDF3"/>
<path d="M230.144 156.723C230.184 156.827 225.456 158.707 219.584 160.915C213.712 163.123 208.912 164.827 208.872 164.715C208.832 164.603 213.56 162.731 219.44 160.523C225.32 158.315 230.104 156.619 230.144 156.723Z" fill="#8EBDF3"/>
<path d="M236.001 132.852C236.049 132.956 230.913 134.98 224.553 137.38C218.193 139.78 212.985 141.62 212.945 141.516C212.905 141.412 218.033 139.38 224.401 136.988C230.769 134.596 236.001 132.74 236.001 132.852Z" fill="#8EBDF3"/>
<path d="M251.416 109.222C251.456 109.334 244.952 111.87 236.888 114.902C228.824 117.934 222.256 120.302 222.216 120.198C222.176 120.094 228.68 117.542 236.744 114.51C244.808 111.478 251.376 109.118 251.416 109.222Z" fill="#8EBDF3"/>
<path d="M365.048 259.998L364.712 259.886L363.752 259.51C363.328 259.358 362.776 259.238 362.152 259.062C361.405 258.917 360.648 258.823 359.888 258.782C356.472 258.566 351.352 259.806 346.4 263.518C343.719 265.549 341.317 267.924 339.256 270.582C336.96 273.39 334.712 276.566 332.16 279.766C329.563 283.199 326.455 286.213 322.944 288.702C319.1 291.295 314.756 293.055 310.192 293.87C305.627 294.692 300.94 294.537 296.44 293.414C292.286 292.325 288.25 290.827 284.392 288.942C280.672 287.222 277.192 285.47 273.88 284.022C270.8 282.662 267.603 281.583 264.328 280.798C261.628 280.16 258.862 279.844 256.088 279.854C253.994 279.87 251.911 280.153 249.888 280.694C248.616 281.068 247.379 281.552 246.192 282.142L245.28 282.622C245.179 282.685 245.072 282.736 244.96 282.774L245.256 282.59L246.152 282.07C247.329 281.442 248.564 280.93 249.84 280.542C251.872 279.969 253.969 279.66 256.08 279.622C258.876 279.586 261.667 279.884 264.392 280.51C267.682 281.285 270.895 282.356 273.992 283.71C277.336 285.15 280.816 286.91 284.528 288.606C288.372 290.472 292.392 291.951 296.528 293.022C300.978 294.134 305.614 294.287 310.128 293.47C314.636 292.664 318.927 290.928 322.728 288.374C326.213 285.913 329.299 282.932 331.88 279.534C334.432 276.334 336.68 273.182 339.008 270.366C341.087 267.701 343.508 265.32 346.208 263.286C351.232 259.574 356.424 258.358 359.88 258.63C360.649 258.681 361.413 258.785 362.168 258.942C362.808 259.142 363.36 259.27 363.768 259.438L364.72 259.854L365.048 259.998Z" fill="white"/>
<path d="M370.096 206.638C370.096 206.678 369.528 206.75 368.536 207.078C367.157 207.582 365.856 208.28 364.672 209.15C363.152 210.214 361.472 211.702 359.544 213.238C357.417 214.897 355.112 216.317 352.672 217.47C348.245 219.592 343.446 220.831 338.544 221.118C337.608 221.198 336.752 221.174 336.008 221.19C335.264 221.206 334.624 221.142 334.104 221.102L332.896 220.982C332.757 220.979 332.62 220.955 332.488 220.91C332.626 220.89 332.766 220.89 332.904 220.91L334.112 220.95H336.008C336.752 220.91 337.608 220.95 338.52 220.822C343.369 220.447 348.107 219.181 352.496 217.086C354.907 215.94 357.191 214.546 359.312 212.926C361.256 211.422 362.944 209.942 364.512 208.926C365.734 208.06 367.084 207.391 368.512 206.942C368.901 206.831 369.297 206.745 369.696 206.686C369.826 206.649 369.961 206.633 370.096 206.638Z" fill="white"/>
<path d="M265.6 225.173C265.454 225.166 265.309 225.145 265.168 225.109C264.88 225.045 264.456 224.981 263.92 224.829C262.418 224.385 260.977 223.753 259.632 222.949C257.659 221.738 255.787 220.371 254.032 218.861C252.024 217.197 249.88 215.301 247.424 213.605C245.131 211.985 242.557 210.805 239.832 210.125C236.089 209.204 232.176 209.22 228.44 210.173C227.376 210.445 226.8 210.653 226.792 210.613C226.915 210.532 227.05 210.47 227.192 210.429C227.464 210.325 227.864 210.165 228.4 210.013C229.898 209.575 231.442 209.306 233 209.213C235.322 209.042 237.657 209.233 239.92 209.781C242.697 210.455 245.321 211.646 247.656 213.293C250.144 215.013 252.288 216.925 254.28 218.597C256.008 220.112 257.848 221.494 259.784 222.733C261.101 223.545 262.504 224.208 263.968 224.709C264.52 224.835 265.065 224.99 265.6 225.173Z" fill="white"/>
<path d="M265.736 149.55C265.306 149.75 264.859 149.913 264.4 150.038C263.876 150.222 263.342 150.38 262.8 150.51C262.168 150.67 261.456 150.886 260.648 151.03C259.84 151.174 258.968 151.374 258.008 151.494C257.048 151.614 256.032 151.726 254.952 151.822C252.607 151.97 250.253 151.941 247.912 151.734C245.573 151.5 243.255 151.09 240.976 150.51C239.936 150.214 238.936 149.942 238.032 149.614C237.128 149.286 236.28 148.982 235.528 148.67C234.776 148.358 234.104 148.03 233.512 147.758C232.92 147.486 232.432 147.222 232.032 146.998C231.609 146.786 231.203 146.543 230.816 146.27C231.259 146.433 231.69 146.628 232.104 146.854C232.512 147.054 233.016 147.302 233.608 147.55C234.2 147.798 234.872 148.118 235.64 148.39C236.408 148.662 237.24 149.006 238.144 149.286C239.048 149.566 240.032 149.854 241.072 150.134C245.597 151.275 250.27 151.714 254.928 151.438C256 151.35 257.016 151.294 257.968 151.15C258.92 151.006 259.792 150.886 260.592 150.742C261.392 150.598 262.104 150.422 262.736 150.286C263.368 150.15 263.912 150.006 264.336 149.886C264.794 149.74 265.262 149.628 265.736 149.55Z" fill="white"/>
<path d="M365.553 149.348C365.435 149.305 365.322 149.249 365.217 149.18L364.289 148.644C363.807 148.351 363.311 148.084 362.801 147.844C362.143 147.492 361.468 147.174 360.777 146.892L359.577 146.388C359.153 146.22 358.705 146.092 358.241 145.932C357.329 145.596 356.313 145.364 355.249 145.084C350.598 144.026 345.773 143.985 341.105 144.964C340.089 145.179 339.085 145.446 338.097 145.764C337.633 145.916 337.177 146.036 336.753 146.196L335.545 146.676C334.85 146.948 334.169 147.255 333.505 147.596C332.989 147.831 332.49 148.098 332.009 148.396L331.065 148.916C330.849 149.028 330.729 149.084 330.721 149.068C330.812 148.981 330.914 148.905 331.025 148.844L331.921 148.252C332.395 147.937 332.889 147.654 333.401 147.404C334.058 147.036 334.736 146.707 335.433 146.42L336.641 145.908C337.065 145.74 337.529 145.612 337.993 145.452C338.987 145.117 339.999 144.836 341.025 144.612C345.744 143.577 350.636 143.621 355.337 144.74C356.409 145.028 357.433 145.276 358.353 145.628C358.817 145.796 359.273 145.932 359.689 146.116L360.897 146.644C361.585 146.949 362.258 147.288 362.913 147.66C363.417 147.922 363.903 148.216 364.369 148.54L365.265 149.148C365.465 149.252 365.601 149.332 365.553 149.348Z" fill="white"/>
<path d="M316.64 95.0039C316.46 95.1398 316.267 95.2577 316.064 95.3559L314.4 96.2759C312.92 97.0759 310.776 98.1879 308.088 99.5319C302.728 102.18 295.2 105.804 286.288 108.06C282.098 109.113 277.806 109.709 273.488 109.836C269.964 109.939 266.439 109.636 262.984 108.932C260.655 108.464 258.378 107.77 256.184 106.86C255.384 106.556 254.832 106.236 254.432 106.06C254.225 105.971 254.024 105.866 253.832 105.748C254.051 105.805 254.263 105.885 254.464 105.988C254.88 106.14 255.456 106.436 256.248 106.716C258.449 107.564 260.723 108.212 263.04 108.652C266.479 109.309 269.981 109.577 273.48 109.452C277.764 109.303 282.02 108.7 286.176 107.652C295.032 105.412 302.568 101.852 307.952 99.2679L314.352 96.1239L316 95.2759C316.207 95.1714 316.421 95.0805 316.64 95.0039Z" fill="white"/>
<path d="M156.048 234.398L182.792 235.566L181.552 263.91L154.808 262.742L152.752 309.838L117.552 308.302L119.608 261.206L28.7998 257.238L28.8718 235.638L125.672 96.5977L162.008 98.1977L156.048 234.398ZM64.0478 230.398L120.848 232.878L124.592 146.974L123.736 146.646L120.536 152.766L64.0478 230.398Z" fill="#8EBDF3"/>
<g opacity="0.4">
<path d="M156.049 234.398L182.793 235.566L181.553 263.91L154.809 262.742L152.753 309.838L117.553 308.302L119.609 261.206L28.8008 257.238L28.8728 235.638L125.673 96.5977L162.009 98.1977L156.049 234.398ZM64.0488 230.398L120.849 232.878L124.593 146.974L123.737 146.646L120.537 152.766L64.0488 230.398Z" fill="black"/>
</g>
<path d="M178.4 235.374L205.144 236.542L203.904 264.886L177.16 263.718L175.104 310.814L139.904 309.278L141.96 262.182L51.1123 258.182L51.1843 236.582L148 97.5977L184.344 99.1977L178.4 235.374ZM86.4003 231.374L143.24 233.854L146.984 147.95L146.128 147.622L142.928 153.742L86.4003 231.374Z" fill="#8EBDF3"/>
<path d="M51.6723 240.734C51.4036 240.929 51.1138 241.093 50.8083 241.222C50.2403 241.51 49.4083 241.91 48.4083 242.39C46.3523 243.358 43.4803 244.646 40.2723 246.006C37.0643 247.366 34.1443 248.518 32.0163 249.326C30.9523 249.726 30.0803 250.038 29.4803 250.246C29.1733 250.374 28.8544 250.47 28.5283 250.534C28.809 250.354 29.1097 250.206 29.4243 250.094L31.9043 249.046L40.0803 245.598L48.2563 242.102L50.7443 241.046C51.0422 240.911 51.3532 240.806 51.6723 240.734Z" fill="#8EBDF3"/>
<path d="M64.696 216.797C64.3083 217.035 63.9047 217.246 63.488 217.429C62.688 217.813 61.552 218.357 60.128 219.029C57.272 220.325 53.312 222.061 48.928 223.925C44.544 225.789 40.488 227.381 37.6 228.517C36.144 229.093 34.96 229.541 34.128 229.837C33.7099 230.016 33.2761 230.155 32.832 230.253C33.2316 230.035 33.646 229.845 34.072 229.685L37.488 228.245L48.776 223.501L60.04 218.701L63.456 217.253C63.8542 217.063 64.2694 216.91 64.696 216.797Z" fill="#8EBDF3"/>
<path d="M80.5927 195.414C80.1902 195.663 79.7673 195.877 79.3287 196.054C78.5287 196.438 77.3047 196.982 75.8167 197.654C72.8327 198.958 68.6967 200.694 64.1047 202.558C59.5127 204.422 55.3047 206.046 52.2727 207.19C50.7527 207.758 49.5127 208.206 48.6567 208.502C48.2196 208.682 47.7671 208.821 47.3047 208.918C47.7239 208.701 48.1568 208.511 48.6007 208.35L52.1687 206.91L63.9447 202.166L75.6967 197.366L79.2647 195.918C79.6937 195.716 80.1377 195.548 80.5927 195.414Z" fill="#8EBDF3"/>
<path d="M144.264 220.086C143.991 220.275 143.699 220.433 143.392 220.558C142.824 220.838 141.992 221.222 140.952 221.686C138.888 222.622 136.008 223.862 132.8 225.166C129.592 226.47 126.656 227.566 124.528 228.366C123.456 228.75 122.592 229.054 121.992 229.254C121.684 229.372 121.365 229.46 121.04 229.518C121.319 229.345 121.617 229.205 121.928 229.102L124.424 228.094L132.648 224.798L140.84 221.438L143.328 220.422C143.627 220.276 143.941 220.163 144.264 220.086Z" fill="#8EBDF3"/>
<path d="M141.673 264.039C141.411 264.227 141.129 264.386 140.833 264.511C140.281 264.783 139.473 265.175 138.473 265.639C136.473 266.575 133.673 267.815 130.577 269.111C127.481 270.407 124.617 271.511 122.577 272.311C121.537 272.695 120.697 272.999 120.113 273.191C119.814 273.315 119.503 273.407 119.185 273.463C119.456 273.29 119.746 273.147 120.049 273.039L122.449 272.031L130.449 268.743L138.385 265.383L140.785 264.375C141.068 264.232 141.366 264.12 141.673 264.039Z" fill="#8EBDF3"/>
<path d="M141.304 279.445C141.056 279.63 140.788 279.785 140.504 279.909C139.952 280.189 139.144 280.573 138.104 281.045C136.104 281.973 133.304 283.213 130.2 284.517C127.096 285.821 124.248 286.917 122.2 287.717C121.168 288.101 120.328 288.405 119.736 288.605C119.443 288.733 119.133 288.822 118.816 288.869C119.09 288.703 119.38 288.563 119.68 288.453L122.08 287.445L130.08 284.157L138.024 280.797L140.424 279.789C140.702 279.639 140.998 279.523 141.304 279.445Z" fill="#8EBDF3"/>
<path d="M140.936 294.844C140.686 295.027 140.418 295.185 140.136 295.316C139.584 295.596 138.776 295.98 137.736 296.444C135.728 297.38 132.936 298.62 129.832 299.916C126.728 301.212 123.88 302.316 121.832 303.116C120.8 303.5 119.952 303.804 119.368 303.996C119.072 304.118 118.764 304.209 118.448 304.268C118.719 304.094 119.009 303.952 119.312 303.844L121.712 302.844L129.712 299.548L137.656 296.188L140.056 295.18C140.336 295.036 140.632 294.923 140.936 294.844Z" fill="#8EBDF3"/>
<path d="M144.68 203.812C144.405 203.997 144.113 204.155 143.808 204.284C143.24 204.564 142.408 204.948 141.408 205.412C139.344 206.348 136.464 207.588 133.256 208.892C130.048 210.196 127.112 211.292 124.984 212.092C123.912 212.476 123.048 212.78 122.448 212.972C122.141 213.095 121.822 213.186 121.496 213.244C121.773 213.066 122.071 212.924 122.384 212.82L124.88 211.812L133.104 208.524L141.296 205.164L143.784 204.156C144.07 204.01 144.37 203.895 144.68 203.812Z" fill="#8EBDF3"/>
<path d="M145.096 187.543C144.821 187.728 144.529 187.886 144.224 188.015C143.656 188.287 142.824 188.679 141.784 189.143C139.72 190.079 136.84 191.319 133.632 192.615C130.424 193.911 127.496 195.015 125.36 195.815C124.288 196.199 123.424 196.495 122.824 196.695C122.517 196.817 122.198 196.908 121.872 196.967C122.151 196.788 122.453 196.645 122.768 196.543L125.256 195.535L133.48 192.247L141.672 188.887L144.16 187.879C144.459 187.733 144.773 187.62 145.096 187.543Z" fill="#8EBDF3"/>
<path d="M145.513 171.27C145.262 171.445 144.994 171.595 144.713 171.718C144.177 171.982 143.385 172.35 142.401 172.798C140.425 173.694 137.689 174.886 134.633 176.118C131.577 177.35 128.777 178.414 126.745 179.142C125.729 179.502 124.905 179.79 124.345 179.942C124.051 180.061 123.745 180.146 123.433 180.198C123.701 180.029 123.989 179.892 124.289 179.79L126.689 178.83L134.521 175.702L142.329 172.502L144.729 171.542C144.979 171.422 145.242 171.33 145.513 171.27Z" fill="#8EBDF3"/>
<path d="M147.352 156.062C146.075 156.754 144.736 157.324 143.352 157.767C142.013 158.337 140.623 158.779 139.2 159.086C140.477 158.393 141.817 157.82 143.2 157.374C144.539 156.804 145.929 156.365 147.352 156.062Z" fill="#8EBDF3"/>
<path d="M96.4568 173.27C96.0534 173.512 95.6337 173.725 95.2008 173.91C94.4008 174.294 93.1768 174.83 91.6808 175.51C88.7048 176.814 84.5688 178.55 79.9688 180.414C75.3688 182.278 71.1688 183.91 68.1448 185.046C66.6248 185.614 65.3848 186.062 64.5288 186.358C64.0882 186.529 63.6365 186.671 63.1768 186.782C63.5915 186.553 64.025 186.36 64.4728 186.206L68.0408 184.774L79.8168 179.998L91.5688 175.198L95.1288 173.75C95.5603 173.56 96.0039 173.4 96.4568 173.27Z" fill="#8EBDF3"/>
<path d="M112.328 151.117C111.925 151.366 111.502 151.58 111.064 151.757C110.264 152.141 109.04 152.685 107.552 153.357C104.576 154.653 100.432 156.397 95.8399 158.253C91.2479 160.109 87.0399 161.749 84.0159 162.885C82.4879 163.461 81.2559 163.909 80.3919 164.205C79.9568 164.383 79.5071 164.522 79.0479 164.621C79.4627 164.401 79.8932 164.211 80.3359 164.053L83.9039 162.613L95.6799 157.869L107.44 153.069L111 151.613C111.43 151.415 111.874 151.25 112.328 151.117Z" fill="#8EBDF3"/>
<path d="M126.992 128.973C126.586 129.216 126.164 129.429 125.728 129.613C124.928 129.997 123.704 130.533 122.216 131.213C119.24 132.517 115.096 134.253 110.504 136.117C105.912 137.981 101.704 139.613 98.6799 140.749C97.1599 141.317 95.9199 141.765 95.0639 142.061C94.6234 142.232 94.1717 142.374 93.7119 142.485C94.1266 142.256 94.5602 142.063 95.0079 141.909L98.5759 140.477L110.352 135.733L122.104 130.933L125.664 129.485C126.091 129.275 126.535 129.104 126.992 128.973Z" fill="#8EBDF3"/>
<path d="M142.256 107.676C141.849 107.916 141.427 108.13 140.992 108.316C140.192 108.7 138.968 109.236 137.48 109.916C134.496 111.22 130.36 112.956 125.768 114.82C121.176 116.684 116.968 118.316 113.936 119.452C112.416 120.02 111.184 120.468 110.32 120.764C109.88 120.938 109.428 121.08 108.968 121.188C109.383 120.961 109.817 120.768 110.264 120.612L113.832 119.18L125.6 114.396L137.352 109.596L140.92 108.148C141.353 107.958 141.799 107.8 142.256 107.676Z" fill="#8EBDF3"/>
<path d="M182.752 140.214C182.619 140.407 182.463 140.585 182.288 140.742C181.836 141.239 181.352 141.707 180.84 142.142C178.974 143.771 176.88 145.119 174.624 146.142C171.26 147.654 167.624 148.47 163.936 148.542C161.756 148.582 159.581 148.338 157.464 147.814C155.205 147.235 153.014 146.417 150.928 145.374C146.624 143.278 142.8 140.806 139.064 139.086C135.79 137.481 132.226 136.55 128.584 136.35C126.131 136.224 123.683 136.682 121.44 137.686C120.836 137.969 120.255 138.301 119.704 138.678C119.516 138.817 119.318 138.943 119.112 139.054C119.283 138.895 119.465 138.748 119.656 138.614C120.194 138.206 120.767 137.847 121.368 137.542C123.612 136.47 126.083 135.96 128.568 136.054C132.261 136.229 135.879 137.158 139.2 138.782C142.976 140.502 146.816 142.966 151.08 145.046C153.146 146.069 155.312 146.873 157.544 147.446C159.624 147.964 161.761 148.212 163.904 148.182C170.046 148.098 175.974 145.916 180.704 141.998C181.384 141.454 181.864 140.974 182.2 140.662C182.372 140.498 182.557 140.349 182.752 140.214Z" fill="white"/>
<path d="M171.617 100.66C171.294 100.884 170.955 101.082 170.601 101.252C169.937 101.612 168.945 102.052 167.697 102.612C166.234 103.227 164.738 103.762 163.217 104.212C159.489 105.325 155.633 105.954 151.745 106.084C150.144 106.142 148.542 106.11 146.945 105.988C145.593 105.884 144.545 105.756 143.745 105.62C143.355 105.576 142.969 105.499 142.593 105.388C142.986 105.374 143.38 105.399 143.769 105.46C144.513 105.548 145.601 105.628 146.969 105.692C148.337 105.756 149.921 105.772 151.697 105.692C153.621 105.597 155.538 105.399 157.441 105.1C159.328 104.776 161.197 104.354 163.041 103.836C164.745 103.34 166.241 102.828 167.513 102.332C168.785 101.836 169.769 101.412 170.457 101.1C170.829 100.917 171.217 100.77 171.617 100.66Z" fill="white"/>
<path d="M114.817 189.509C114.553 189.264 114.312 188.997 114.097 188.709L112.209 186.453C110.101 184.001 107.864 181.664 105.505 179.453C104.224 178.238 102.816 177.165 101.305 176.253C100.069 175.513 98.7161 174.989 97.3047 174.701C95.9951 174.467 94.6544 174.467 93.3447 174.701C93.3447 174.701 93.4327 174.653 93.6087 174.597C93.8691 174.511 94.1369 174.449 94.4087 174.413C95.3912 174.248 96.3943 174.248 97.3767 174.413C98.8345 174.666 100.235 175.178 101.513 175.925C103.066 176.84 104.507 177.933 105.809 179.181C108.185 181.397 110.403 183.776 112.449 186.301C113.249 187.269 113.841 188.077 114.241 188.637C114.463 188.906 114.656 189.198 114.817 189.509Z" fill="white"/>
<path d="M178.632 213.68C178.632 213.68 178.528 213.776 178.32 213.92C178.112 214.064 177.8 214.296 177.368 214.536C176.167 215.24 174.906 215.837 173.6 216.32C169.274 217.953 164.573 218.328 160.043 217.401C155.512 216.474 151.337 214.282 148 211.08C146.989 210.129 146.067 209.088 145.248 207.968C144.952 207.576 144.76 207.248 144.616 207.032C144.472 206.816 144.408 206.695 144.424 206.688C144.763 207.065 145.081 207.46 145.376 207.872C146.241 208.939 147.185 209.939 148.2 210.864C151.54 213.95 155.66 216.064 160.114 216.976C164.569 217.888 169.188 217.565 173.472 216.04C174.77 215.59 176.029 215.039 177.24 214.392C177.691 214.129 178.156 213.891 178.632 213.68Z" fill="white"/>
<path d="M201.936 264.334C201.936 264.334 201.856 264.214 201.712 263.958C201.568 263.702 201.344 263.334 201.072 262.854C200.269 261.432 199.355 260.075 198.336 258.798L197.248 257.518L196.664 256.822L195.984 256.158L194.544 254.734L192.864 253.342C190.181 251.21 187.221 249.453 184.064 248.118C180.254 246.507 176.195 245.563 172.064 245.326C167.31 245.071 162.556 245.835 158.12 247.566C153.44 249.406 148.92 252.182 144.136 254.87C141.713 256.27 139.204 257.516 136.624 258.598C133.95 259.724 131.13 260.465 128.248 260.798C125.364 261.089 122.452 260.913 119.624 260.278C116.887 259.676 114.223 258.778 111.68 257.598C106.917 255.294 102.384 252.54 98.1441 249.374C94.0401 246.454 90.1441 243.63 86.2961 241.374C82.7583 239.208 78.9232 237.569 74.9121 236.51C71.5884 235.692 68.1466 235.465 64.7441 235.838C62.1752 236.105 59.6746 236.828 57.3601 237.974C55.9121 238.716 54.5674 239.644 53.3601 240.734L52.4321 241.598C52.2321 241.798 52.1201 241.894 52.1201 241.894C52.1201 241.894 52.2081 241.782 52.4081 241.566L53.2801 240.63C54.48 239.509 55.8254 238.553 57.2801 237.79C59.6059 236.607 62.1264 235.853 64.7201 235.566C68.151 235.164 71.626 235.372 74.9841 236.182C79.0273 237.236 82.8968 238.869 86.4721 241.03C90.3681 243.286 94.2561 246.102 98.3681 249.03C102.593 252.172 107.106 254.904 111.848 257.19C114.361 258.369 116.995 259.267 119.704 259.87C122.493 260.494 125.364 260.667 128.208 260.382C131.045 260.053 133.822 259.326 136.456 258.222C139.02 257.144 141.515 255.909 143.928 254.526C148.728 251.846 153.24 249.062 157.96 247.214C159.125 246.757 160.316 246.372 161.528 246.062C162.128 245.91 162.72 245.726 163.312 245.606L165.104 245.31C167.407 244.967 169.739 244.86 172.064 244.99C176.244 245.24 180.35 246.209 184.2 247.854C187.359 249.222 190.319 251.008 193 253.166C193.576 253.654 194.136 254.134 194.68 254.582L196.112 256.03L196.784 256.702C196.984 256.942 197.184 257.174 197.368 257.406C197.752 257.862 198.112 258.294 198.448 258.71C199.459 260.001 200.355 261.377 201.128 262.822C201.389 263.313 201.589 263.689 201.728 263.95C201.88 264.198 201.936 264.334 201.936 264.334Z" fill="white"/>
<path d="M177.761 297.751C177.63 297.803 177.493 297.838 177.353 297.855L176.169 298.079C175.547 298.204 174.92 298.298 174.289 298.359C173.553 298.431 172.689 298.551 171.777 298.575L170.305 298.639C169.801 298.639 169.265 298.639 168.705 298.639C167.609 298.639 166.433 298.535 165.201 298.439C162.531 298.147 159.89 297.633 157.305 296.903C154.732 296.128 152.228 295.144 149.817 293.959C148.729 293.375 147.681 292.839 146.753 292.239C146.289 291.951 145.825 291.687 145.401 291.439L144.201 290.599C143.401 290.079 142.785 289.527 142.201 289.063C141.696 288.676 141.213 288.262 140.753 287.823C140.409 287.487 140.113 287.215 139.881 287.023C139.772 286.931 139.675 286.826 139.593 286.711C139.717 286.78 139.832 286.863 139.937 286.959L140.865 287.759C141.257 288.095 141.745 288.503 142.345 288.935C142.945 289.367 143.585 289.911 144.369 290.415L145.577 291.215C146.001 291.495 146.465 291.751 146.929 292.015C147.857 292.599 148.905 293.119 149.993 293.687C154.777 296.045 159.938 297.548 165.241 298.127C166.465 298.231 167.641 298.359 168.721 298.367C169.265 298.367 169.793 298.415 170.321 298.367H171.777C172.705 298.367 173.545 298.263 174.281 298.215C175.017 298.167 175.649 298.087 176.161 298.007L177.353 297.863C177.482 297.806 177.62 297.768 177.761 297.751Z" fill="white"/>
<path d="M503.456 234.727L530.096 232.127L532.856 260.359L506.216 262.967L510.8 309.879L475.76 313.311L471.2 266.399L380.672 275.247L377.704 253.863L453.984 102.591L490.184 99.0469L503.456 234.727ZM411.792 243.695L468.408 238.159L460.04 152.559L459.144 152.359L456.856 158.871L411.792 243.695Z" fill="#8EBDF3"/>
<g opacity="0.4">
<path d="M503.456 234.727L530.096 232.127L532.856 260.359L506.216 262.967L510.8 309.879L475.76 313.311L471.2 266.399L380.672 275.247L377.704 253.863L453.984 102.591L490.184 99.0469L503.456 234.727ZM411.792 243.695L468.408 238.159L460.04 152.559L459.144 152.359L456.856 158.871L411.792 243.695Z" fill="black"/>
</g>
<path d="M525.736 232.551L552.376 229.943L555.144 258.183L528.496 260.799L533.088 307.719L498.04 311.143L493.456 264.231L402.952 273.063L400 251.687L476.28 100.415L512.48 96.8711L525.736 232.551ZM434.08 241.511L490.696 235.999L482.328 150.399L481.424 150.191L479.144 156.703L434.08 241.511Z" fill="#8EBDF3"/>
<path d="M401.008 255.688C400.763 255.915 400.495 256.116 400.208 256.288C399.688 256.656 398.92 257.168 397.968 257.792C396.056 259.04 393.4 260.72 390.416 262.512C387.432 264.304 384.704 265.864 382.704 266.96C381.712 267.504 380.896 267.944 380.304 268.232C380.018 268.401 379.715 268.54 379.4 268.648C379.644 268.429 379.912 268.241 380.2 268.088L382.512 266.704L390.16 262.152L397.76 257.544L400.072 256.152C400.365 255.961 400.679 255.805 401.008 255.688Z" fill="#8EBDF3"/>
<path d="M410.528 230.133C410.181 230.428 409.812 230.695 409.424 230.933C408.704 231.421 407.64 232.117 406.32 232.965C403.68 234.653 400 236.965 395.92 239.365C391.84 241.765 388.08 244.013 385.352 245.549C383.992 246.349 382.88 246.933 382.104 247.341C381.711 247.57 381.302 247.77 380.88 247.941C381.24 247.662 381.623 247.413 382.024 247.197L385.224 245.293L395.728 239.013L406.2 232.685L409.4 230.773C409.759 230.531 410.136 230.317 410.528 230.133Z" fill="#8EBDF3"/>
<path d="M423.264 206.75C422.899 207.046 422.511 207.314 422.104 207.55C421.304 208.046 420.232 208.75 418.848 209.606C416.08 211.31 412.224 213.606 407.936 216.102C403.648 218.598 399.736 220.798 396.88 222.398C395.456 223.198 394.296 223.798 393.488 224.214C393.077 224.446 392.649 224.647 392.208 224.814C392.589 224.536 392.99 224.288 393.408 224.07L396.736 222.142L407.728 215.79L418.696 209.39L422.016 207.454C422.414 207.188 422.831 206.953 423.264 206.75Z" fill="#8EBDF3"/>
<path d="M489.777 222.219C489.532 222.442 489.264 222.638 488.977 222.803C488.457 223.163 487.681 223.659 486.729 224.267C484.809 225.483 482.137 227.115 479.145 228.859C476.153 230.603 473.401 232.107 471.393 233.163C470.393 233.699 469.577 234.115 468.993 234.395C468.707 234.56 468.404 234.694 468.089 234.795C468.336 234.586 468.604 234.403 468.889 234.251L471.217 232.907L478.889 228.491L486.529 224.019L488.857 222.667C489.145 222.483 489.454 222.332 489.777 222.219Z" fill="#8EBDF3"/>
<path d="M493.393 266.094C493.151 266.32 492.882 266.516 492.593 266.678C492.089 267.03 491.345 267.526 490.417 268.134C488.569 269.334 485.985 270.958 483.089 272.686C480.193 274.414 477.529 275.886 475.585 276.958C474.617 277.486 473.825 277.902 473.273 278.182C472.996 278.347 472.701 278.479 472.393 278.574C472.64 278.367 472.908 278.188 473.193 278.038L475.441 276.702L482.873 272.326L490.265 267.878L492.513 266.542C492.787 266.358 493.082 266.207 493.393 266.094Z" fill="#8EBDF3"/>
<path d="M495.2 281.398C494.958 281.625 494.69 281.821 494.4 281.982C493.896 282.334 493.152 282.83 492.224 283.438C490.376 284.638 487.792 286.262 484.896 287.982C482 289.702 479.336 291.182 477.392 292.262C476.424 292.79 475.632 293.206 475.08 293.486C474.804 293.652 474.508 293.784 474.2 293.878C474.447 293.672 474.715 293.492 475 293.342L477.248 292.006L484.68 287.63L492.072 283.182L494.32 281.846C494.594 281.662 494.89 281.512 495.2 281.398Z" fill="#8EBDF3"/>
<path d="M496.992 296.703C496.75 296.929 496.481 297.126 496.192 297.287C495.688 297.639 494.944 298.135 494.016 298.735C492.168 299.943 489.584 301.567 486.688 303.287C483.792 305.007 481.128 306.487 479.184 307.567C478.216 308.095 477.424 308.511 476.872 308.791C476.593 308.952 476.298 309.084 475.992 309.183C476.239 308.977 476.507 308.797 476.792 308.647L479.04 307.311L486.472 302.935L493.864 298.487L496.112 297.151C496.386 296.967 496.682 296.816 496.992 296.703Z" fill="#8EBDF3"/>
<path d="M487.896 206.047C487.65 206.271 487.382 206.469 487.096 206.639C486.568 206.991 485.8 207.495 484.84 208.103C482.92 209.311 480.248 210.951 477.256 212.687C474.264 214.423 471.512 215.935 469.512 216.999C468.504 217.527 467.688 217.951 467.112 218.231C466.826 218.396 466.523 218.53 466.208 218.631C466.456 218.424 466.724 218.241 467.008 218.087L469.328 216.743L477.008 212.327L484.648 207.847L486.968 206.503C487.26 206.319 487.571 206.166 487.896 206.047Z" fill="#8EBDF3"/>
<path d="M486.016 189.875C485.773 190.102 485.504 190.3 485.216 190.467C484.688 190.819 483.92 191.315 482.96 191.923C481.048 193.139 478.376 194.779 475.376 196.515C472.376 198.251 469.64 199.763 467.632 200.827C466.632 201.355 465.816 201.779 465.232 202.059C464.948 202.227 464.645 202.359 464.328 202.451C464.574 202.243 464.842 202.063 465.128 201.915L467.448 200.563L475.128 196.155L482.768 191.675L485.088 190.323C485.381 190.142 485.692 189.992 486.016 189.875Z" fill="#8EBDF3"/>
<path d="M484.145 173.711C483.916 173.926 483.664 174.114 483.393 174.271C482.889 174.615 482.153 175.071 481.241 175.671C479.425 176.831 476.881 178.391 474.041 180.047C471.201 181.703 468.569 183.143 466.657 184.151L464.377 185.319C464.103 185.476 463.814 185.602 463.513 185.695C463.761 185.495 464.029 185.321 464.313 185.175L466.521 183.887L473.841 179.687L481.113 175.415L483.329 174.135C483.584 173.964 483.858 173.822 484.145 173.711Z" fill="#8EBDF3"/>
<path d="M483.824 158.398C482.657 159.269 481.408 160.024 480.096 160.654C478.847 161.404 477.532 162.039 476.168 162.55C477.335 161.68 478.584 160.925 479.896 160.294C481.144 159.543 482.459 158.908 483.824 158.398Z" fill="#8EBDF3"/>
<path d="M435.857 182.59C435.495 182.888 435.11 183.155 434.705 183.39C433.905 183.886 432.825 184.59 431.441 185.446C428.681 187.15 424.825 189.446 420.537 191.942C416.249 194.438 412.337 196.638 409.481 198.19C408.057 198.99 406.889 199.59 406.081 200.006C405.671 200.235 405.246 200.435 404.809 200.606C405.188 200.326 405.589 200.077 406.009 199.862L409.337 197.934L420.329 191.582L431.289 185.182L434.617 183.246C435.014 182.998 435.428 182.778 435.857 182.59Z" fill="#8EBDF3"/>
<path d="M448.456 158.398C448.091 158.695 447.703 158.962 447.296 159.198C446.496 159.694 445.424 160.398 444.04 161.254C441.272 162.958 437.416 165.254 433.136 167.75C428.856 170.246 424.928 172.446 422.072 173.998C420.648 174.798 419.488 175.398 418.68 175.814C418.269 176.046 417.842 176.247 417.4 176.414C417.781 176.137 418.182 175.888 418.6 175.67L421.928 173.742L432.92 167.39L443.888 160.99L447.216 159.054C447.612 158.804 448.027 158.585 448.456 158.398Z" fill="#8EBDF3"/>
<path d="M459.865 134.438C459.499 134.734 459.111 135.001 458.705 135.237C457.905 135.733 456.833 136.437 455.449 137.293C452.681 138.997 448.825 141.294 444.537 143.79C440.249 146.286 436.337 148.485 433.481 150.037C432.057 150.837 430.897 151.438 430.089 151.854C429.677 152.084 429.249 152.284 428.809 152.454C429.189 152.176 429.59 151.927 430.009 151.709L433.337 149.781L444.329 143.429L455.297 137.029L458.617 135.093C459.014 134.842 459.432 134.623 459.865 134.438Z" fill="#8EBDF3"/>
<path d="M472 111.199C471.635 111.495 471.247 111.763 470.84 111.999C470.08 112.495 468.968 113.199 467.584 114.055C464.816 115.759 460.96 118.055 456.672 120.559C452.384 123.063 448.472 125.247 445.616 126.807C444.192 127.607 443.032 128.199 442.224 128.615C441.813 128.849 441.386 129.053 440.944 129.223C441.321 128.937 441.723 128.685 442.144 128.471L445.472 126.551L456.464 120.151L467.432 113.751L470.752 111.815C471.153 111.579 471.57 111.373 472 111.199Z" fill="#8EBDF3"/>
<path d="M516.648 137.727C516.538 137.932 516.409 138.128 516.264 138.311C515.886 138.87 515.472 139.405 515.024 139.911C513.406 141.793 511.519 143.426 509.424 144.759C506.311 146.745 502.827 148.079 499.184 148.679C497.033 149.023 494.847 149.084 492.68 148.863C490.361 148.607 488.076 148.106 485.864 147.367C481.304 145.903 477.176 143.991 473.232 142.807C469.764 141.691 466.109 141.28 462.48 141.599C460.033 141.822 457.673 142.619 455.592 143.927C455.029 144.294 454.494 144.703 453.992 145.151C453.831 145.319 453.654 145.472 453.464 145.607C453.606 145.422 453.764 145.251 453.936 145.095C454.41 144.614 454.927 144.178 455.48 143.791C457.558 142.411 459.942 141.56 462.424 141.311C466.103 140.924 469.822 141.294 473.352 142.399C477.352 143.575 481.48 145.471 485.992 146.935C488.18 147.661 490.437 148.159 492.728 148.423C494.86 148.641 497.01 148.584 499.128 148.255C502.725 147.682 506.172 146.396 509.264 144.471C511.339 143.169 513.223 141.586 514.864 139.767C515.321 139.278 515.75 138.765 516.152 138.231C516.305 138.051 516.471 137.883 516.648 137.727Z" fill="white"/>
<path d="M500.056 100.133C499.772 100.403 499.464 100.647 499.136 100.861C498.528 101.317 497.616 101.917 496.456 102.613C495.095 103.428 493.69 104.168 492.248 104.829C490.476 105.629 488.66 106.327 486.808 106.917C484.949 107.489 483.057 107.951 481.144 108.301C479.582 108.574 478.006 108.767 476.424 108.877C475.072 108.965 473.976 108.981 473.224 108.957C472.83 108.973 472.436 108.949 472.048 108.885C472.434 108.819 472.825 108.79 473.216 108.797C473.968 108.797 475.056 108.701 476.416 108.581C477.776 108.461 479.344 108.245 481.088 107.925C482.977 107.553 484.846 107.086 486.688 106.525C488.526 105.939 490.331 105.255 492.096 104.477C493.696 103.749 495.144 103.029 496.312 102.357C497.48 101.685 498.416 101.133 499.048 100.757C499.365 100.52 499.702 100.311 500.056 100.133Z" fill="white"/>
<path d="M456.32 196.084C456.033 195.874 455.766 195.638 455.52 195.38L453.328 193.42C450.899 191.287 448.357 189.287 445.712 187.428C444.273 186.394 442.725 185.519 441.096 184.82C439.769 184.263 438.357 183.936 436.92 183.852C435.59 183.797 434.26 183.975 432.992 184.38C432.992 184.38 433.072 184.316 433.24 184.236C433.483 184.121 433.734 184.025 433.992 183.948C434.945 183.654 435.94 183.522 436.936 183.556C438.414 183.603 439.871 183.911 441.24 184.468C442.904 185.155 444.483 186.033 445.944 187.084C448.611 188.947 451.145 190.991 453.528 193.204C454.44 194.052 455.128 194.804 455.632 195.268C455.892 195.513 456.123 195.787 456.32 196.084Z" fill="white"/>
<path d="M522.897 211.045C522.897 211.045 522.817 211.149 522.625 211.325C522.433 211.501 522.161 211.765 521.769 212.061C520.687 212.932 519.528 213.7 518.305 214.357C514.252 216.572 509.656 217.596 505.046 217.313C500.436 217.03 496 215.451 492.249 212.757C491.117 211.958 490.062 211.056 489.097 210.061C488.745 209.717 488.505 209.421 488.297 209.261C488.201 209.167 488.121 209.059 488.057 208.941C488.057 208.941 488.457 209.309 489.169 209.981C490.167 210.919 491.237 211.777 492.369 212.549C496.105 215.141 500.479 216.66 505.017 216.942C509.556 217.224 514.084 216.258 518.113 214.149C519.335 213.521 520.506 212.799 521.617 211.989C522.025 211.651 522.453 211.336 522.897 211.045Z" fill="white"/>
<path d="M553.104 257.909C552.997 257.811 552.895 257.707 552.8 257.597C552.608 257.365 552.352 257.029 552 256.597C551.003 255.303 549.906 254.089 548.72 252.965L547.456 251.845L546.784 251.245L545.984 250.677L544.384 249.477L542.52 248.333C539.572 246.6 536.401 245.276 533.096 244.397C529.091 243.328 524.932 242.954 520.8 243.293C516.058 243.712 511.459 245.139 507.312 247.477C502.936 249.957 498.856 253.341 494.512 256.677C492.308 258.399 490 259.984 487.6 261.421C485.106 262.911 482.412 264.04 479.6 264.773C476.783 265.46 473.875 265.695 470.984 265.469C468.185 265.238 465.419 264.702 462.736 263.869C457.697 262.264 452.824 260.177 448.184 257.637C443.704 255.317 439.472 253.077 435.328 251.389C431.504 249.748 427.462 248.67 423.328 248.189C419.921 247.858 416.482 248.129 413.168 248.989C410.663 249.614 408.29 250.681 406.16 252.141C404.826 253.083 403.616 254.191 402.56 255.437L401.8 256.461C401.624 256.693 401.528 256.805 401.528 256.805C401.528 256.805 401.6 256.677 401.76 256.437L402.496 255.389C403.527 254.107 404.727 252.971 406.064 252.013C408.195 250.509 410.584 249.408 413.112 248.765C416.452 247.881 419.922 247.597 423.36 247.925C427.513 248.403 431.574 249.481 435.416 251.125C439.592 252.805 443.84 255.045 448.32 257.349C452.943 259.867 457.794 261.94 462.808 263.541C465.465 264.349 468.201 264.867 470.968 265.085C473.816 265.311 476.682 265.079 479.456 264.397C482.22 263.671 484.868 262.559 487.32 261.093C489.708 259.668 492.003 258.094 494.192 256.381C498.544 253.061 502.648 249.669 507.064 247.173C508.155 246.558 509.282 246.01 510.44 245.533C511.008 245.293 511.56 245.037 512.136 244.829L513.864 244.285C516.097 243.621 518.392 243.184 520.712 242.981C524.886 242.645 529.085 243.029 533.128 244.117C536.453 245.012 539.64 246.358 542.6 248.117L544.464 249.277L546.064 250.509L546.864 251.077L547.536 251.693L548.792 252.829C549.957 253.972 551.028 255.208 551.992 256.525C552.312 256.973 552.568 257.325 552.744 257.557L553.104 257.909Z" fill="white"/>
<path d="M533.856 294.398C533.734 294.464 533.605 294.517 533.472 294.558L532.336 294.95C531.738 295.159 531.129 295.338 530.512 295.486C529.784 295.662 528.976 295.902 528.048 296.054L526.608 296.326C526.104 296.414 525.576 296.462 525.008 296.534C523.92 296.694 522.744 296.75 521.504 296.83C518.831 296.911 516.156 296.774 513.504 296.422C510.848 296.019 508.231 295.393 505.68 294.55C504.512 294.134 503.4 293.75 502.4 293.286C501.896 293.062 501.4 292.87 500.944 292.646L499.64 291.982C498.792 291.574 498.08 291.118 497.44 290.742C496.889 290.429 496.355 290.087 495.84 289.718L494.856 289.022C494.736 288.948 494.626 288.859 494.528 288.758C494.662 288.804 494.789 288.869 494.904 288.95L495.928 289.582C496.36 289.862 496.904 290.198 497.528 290.542C498.152 290.886 498.888 291.342 499.736 291.718L501.048 292.35C501.504 292.574 502 292.758 502.504 292.974C503.504 293.414 504.608 293.774 505.768 294.19C508.326 295.003 510.945 295.608 513.6 295.998C516.238 296.354 518.9 296.502 521.56 296.438C522.784 296.366 523.96 296.334 525.032 296.182C525.568 296.118 526.096 296.078 526.632 295.998L528.072 295.758C528.992 295.63 529.8 295.406 530.528 295.254C531.256 295.102 531.864 294.934 532.36 294.782L533.52 294.47C533.629 294.434 533.742 294.41 533.856 294.398Z" fill="white"/>
<path d="M337.849 256.548C338.049 256.408 338.279 256.317 338.521 256.284C339.169 256.142 339.843 256.164 340.481 256.348C341.42 256.615 342.298 257.063 343.065 257.668C343.526 258.011 343.957 258.394 344.353 258.812C344.751 259.303 345.089 259.84 345.361 260.412C346.308 262.32 347.098 264.302 347.721 266.34C347.961 267.14 348.121 267.756 348.225 268.204C348.299 268.431 348.334 268.669 348.329 268.908C348.273 268.908 347.985 267.956 347.441 266.428C346.735 264.438 345.915 262.491 344.985 260.596C344.733 260.065 344.415 259.568 344.041 259.116C343.668 258.714 343.264 258.342 342.833 258.004C342.117 257.419 341.305 256.964 340.433 256.66C339.593 256.411 338.706 256.373 337.849 256.548Z" fill="#EB996E"/>
<path d="M344.064 278.245C343.879 277.967 343.726 277.669 343.608 277.357L342.48 274.909C341.528 272.837 340.136 270.005 338.808 266.781C338.273 265.248 337.567 263.78 336.704 262.405C335.958 261.326 334.932 260.471 333.736 259.933C332.941 259.548 332.055 259.391 331.176 259.477C330.552 259.557 330.232 259.725 330.216 259.685C330.2 259.645 330.288 259.629 330.44 259.549C330.662 259.438 330.899 259.36 331.144 259.317C332.062 259.16 333.006 259.28 333.856 259.661C335.125 260.191 336.22 261.067 337.016 262.189C337.914 263.575 338.645 265.063 339.192 266.621C340.512 269.821 341.864 272.685 342.752 274.789C343.192 275.837 343.552 276.701 343.76 277.293C343.896 277.598 343.997 277.918 344.064 278.245Z" fill="#EB996E"/>
<path d="M320.368 265.899C320.619 265.72 320.887 265.567 321.168 265.443L323.472 264.331C323.968 264.099 324.488 263.843 325.072 263.587C325.73 263.325 326.439 263.221 327.144 263.283C327.929 263.346 328.681 263.623 329.32 264.083C329.964 264.61 330.506 265.249 330.92 265.971C331.36 266.691 331.72 267.435 332.04 268.123C332.36 268.811 332.736 269.475 333.088 270.099C333.784 271.339 334.44 272.451 334.92 273.427C335.315 274.189 335.657 274.978 335.944 275.787C336.072 276.075 336.158 276.379 336.2 276.691C336.136 276.691 335.704 275.451 334.664 273.563C334.144 272.619 333.472 271.531 332.752 270.291C332.392 269.667 332.032 269.003 331.68 268.307C331.328 267.611 330.992 266.883 330.568 266.187C330.181 265.512 329.68 264.909 329.088 264.403C328.518 263.967 327.841 263.691 327.128 263.603C326.481 263.533 325.826 263.615 325.216 263.843C324.64 264.075 324.088 264.331 323.616 264.531L321.256 265.595C320.974 265.732 320.675 265.834 320.368 265.899Z" fill="#EB996E"/>
<path d="M321.489 261.656C321.275 261.834 321.038 261.982 320.785 262.096C320.321 262.36 319.641 262.728 318.793 263.176C317.105 264.072 314.753 265.288 312.145 266.6C309.537 267.912 307.169 269.08 305.441 269.912L303.393 270.872C303.141 271.006 302.871 271.106 302.593 271.168C302.811 270.991 303.05 270.84 303.305 270.72C303.769 270.464 304.449 270.096 305.297 269.648C306.985 268.752 309.337 267.544 311.945 266.224C314.553 264.904 316.921 263.744 318.641 262.92C319.505 262.504 320.241 262.176 320.697 261.952C320.945 261.816 321.212 261.716 321.489 261.656Z" fill="#EB996E"/>
<path d="M260.888 227.941C258.871 227.637 256.825 227.57 254.792 227.741C252.774 228.045 250.799 228.582 248.904 229.341C249.386 228.958 249.926 228.656 250.504 228.445C251.856 227.865 253.284 227.482 254.744 227.309C256.209 227.137 257.69 227.175 259.144 227.421C259.75 227.499 260.339 227.675 260.888 227.941Z" fill="#EB996E"/>
<path d="M495.128 347.198C495.815 345.703 496.855 344.398 498.159 343.394C499.463 342.391 500.992 341.719 502.613 341.438C504.234 341.157 505.899 341.275 507.465 341.781C509.031 342.286 510.45 343.166 511.6 344.342C509.914 347.063 507.295 349.077 504.232 350.006C502.614 350.576 500.856 350.611 499.216 350.105C497.577 349.6 496.144 348.581 495.128 347.198Z" fill="#8EBDF3"/>
<path d="M489.448 348.512C490.183 348.183 490.953 347.942 491.744 347.792C493.192 347.44 495.208 347.048 497.44 346.68C499.672 346.312 501.704 346.032 503.184 345.88C503.977 345.748 504.78 345.687 505.584 345.696C504.815 345.922 504.028 346.083 503.232 346.176L497.512 347.112C495.288 347.48 493.272 347.832 491.816 348.104C491.035 348.285 490.245 348.421 489.448 348.512Z" fill="#263238"/>
<path d="M209.184 296.551C210.89 297.956 212.219 299.763 213.053 301.809C213.887 303.856 214.199 306.077 213.961 308.274C213.723 310.471 212.943 312.575 211.69 314.395C210.437 316.216 208.751 317.696 206.784 318.703C203.848 311.175 202.72 303.071 209.184 296.551Z" fill="#8EBDF3"/>
<path d="M220.312 302.326C220.47 305.18 221.334 307.95 222.828 310.386C224.321 312.823 226.397 314.85 228.868 316.285C231.34 317.72 234.129 318.519 236.986 318.608C239.842 318.698 242.676 318.076 245.232 316.798C239.632 307.998 232.056 300.582 220.312 302.31" fill="#8EBDF3"/>
<path d="M194.816 274.504C194.958 274.621 195.084 274.756 195.192 274.904L196.192 276.096C197.04 277.144 198.28 278.656 199.848 280.488C202.968 284.168 207.376 289.176 212.568 294.4C215.168 297.008 217.72 299.416 220.088 301.544C222.456 303.672 224.696 305.488 226.616 306.944C228.125 308.1 229.698 309.168 231.328 310.144C232.488 310.832 233.176 311.12 233.16 311.16C232.982 311.119 232.81 311.055 232.648 310.968C232.168 310.771 231.7 310.544 231.248 310.288C229.58 309.359 227.977 308.32 226.448 307.176C224.496 305.736 222.256 303.92 219.848 301.824C217.44 299.728 214.888 297.296 212.28 294.688C207.08 289.456 202.68 284.408 199.632 280.672C198.088 278.808 196.888 277.264 196.072 276.192L195.128 274.944C195.011 274.807 194.906 274.66 194.816 274.504Z" fill="#263238"/>
<path d="M208.569 307.926C208.497 307.926 208.761 306.806 208.993 304.99C209.587 300.24 209.083 295.418 207.521 290.894C206.921 289.166 206.433 288.134 206.497 288.102C206.663 288.312 206.8 288.543 206.905 288.79C207.239 289.44 207.538 290.108 207.801 290.79C208.663 293.048 209.228 295.409 209.481 297.814C209.73 300.212 209.663 302.633 209.281 305.014C209.162 305.75 209.002 306.479 208.801 307.198C208.752 307.448 208.674 307.693 208.569 307.926Z" fill="#263238"/>
<path d="M561.6 146.032C560.61 144.719 559.953 143.184 559.688 141.561C559.423 139.938 559.557 138.274 560.078 136.714C560.6 135.154 561.493 133.744 562.681 132.606C563.869 131.469 565.315 130.637 566.896 130.184C568.493 132.953 569.025 136.21 568.392 139.344C568.128 141.04 567.324 142.605 566.101 143.81C564.878 145.014 563.3 145.793 561.6 146.032Z" fill="#8EBDF3"/>
<path d="M560.08 151.654C560.136 150.851 560.289 150.059 560.536 149.294C560.912 147.854 561.52 145.894 562.256 143.75C562.992 141.606 563.712 139.686 564.256 138.302C564.512 137.539 564.839 136.803 565.232 136.102C565.064 136.888 564.832 137.658 564.536 138.406C564.008 139.934 563.36 141.806 562.648 143.886C561.936 145.966 561.264 147.966 560.816 149.374C560.61 150.146 560.364 150.907 560.08 151.654Z" fill="#263238"/>
<path d="M526.4 205.55C525.573 202.478 525.505 199.251 526.204 196.147C526.903 193.043 528.347 190.156 530.411 187.735C532.475 185.314 535.098 183.432 538.052 182.251C541.007 181.07 544.204 180.627 547.368 180.958C548.48 187.006 546.568 193.214 543.408 198.47C539.64 204.67 532.152 207.27 526.4 205.55Z" fill="#8EBDF3"/>
<path d="M502.729 229.232C502.829 229.077 502.944 228.932 503.073 228.8L504.105 227.624C505.025 226.616 506.369 225.176 508.041 223.416C511.401 219.896 516.089 215.088 521.305 209.816C526.521 204.544 531.265 199.784 534.721 196.368L538.833 192.328L539.969 191.248C540.225 191.008 540.369 190.88 540.385 190.896C540.278 191.045 540.157 191.185 540.025 191.312L538.945 192.448L534.945 196.568L521.601 210.104L508.257 223.624L504.257 227.736L503.169 228.856C503.037 228.998 502.889 229.124 502.729 229.232Z" fill="#263238"/>
<g opacity="0.3">
<path d="M526.4 205.554C525.573 202.482 525.505 199.255 526.204 196.151C526.903 193.047 528.347 190.16 530.411 187.739C532.475 185.318 535.098 183.436 538.052 182.255C541.007 181.074 544.204 180.631 547.368 180.962C548.48 187.01 546.568 193.218 543.408 198.474C539.64 204.674 532.152 207.274 526.4 205.554Z" fill="black"/>
</g>
<path d="M515.433 207.926C513.69 207.038 512.191 205.738 511.065 204.138C509.94 202.539 509.223 200.688 508.976 198.748C508.729 196.808 508.96 194.837 509.649 193.007C510.338 191.176 511.464 189.542 512.929 188.246C516.129 190.246 518.177 193.662 519.241 197.278C520.505 201.55 518.601 206.078 515.433 207.926Z" fill="#8EBDF3"/>
<g opacity="0.3">
<path d="M515.432 207.926C513.689 207.038 512.19 205.738 511.064 204.138C509.939 202.539 509.222 200.688 508.975 198.748C508.728 196.808 508.959 194.837 509.648 193.007C510.337 191.176 511.463 189.542 512.928 188.246C516.128 190.246 518.176 193.662 519.24 197.278C520.504 201.55 518.6 206.078 515.432 207.926Z" fill="black"/>
</g>
<path d="M516.68 214.745C516.57 214.511 516.489 214.263 516.44 214.009C516.304 213.537 516.152 212.841 515.984 211.969C515.648 210.241 515.296 207.825 514.976 205.161C514.656 202.497 514.432 200.065 514.296 198.305C514.181 197.36 514.143 196.408 514.184 195.457C514.384 196.388 514.52 197.332 514.592 198.281C514.808 200.137 515.088 202.497 515.392 205.113C515.696 207.729 516.016 210.185 516.272 211.921C516.528 213.657 516.744 214.729 516.68 214.745Z" fill="#263238"/>
<path d="M365.601 300.648C366.823 297.747 368.75 295.197 371.206 293.228C373.662 291.259 376.57 289.933 379.668 289.371C382.765 288.809 385.953 289.027 388.945 290.007C391.936 290.987 394.636 292.698 396.801 294.984C387.729 302.016 377.145 306.816 365.665 300.648" fill="#8EBDF3"/>
<g opacity="0.3">
<path d="M365.6 300.648C366.822 297.747 368.749 295.197 371.205 293.228C373.661 291.259 376.569 289.933 379.667 289.371C382.764 288.809 385.952 289.027 388.944 290.007C391.935 290.987 394.635 292.698 396.8 294.984C387.728 302.016 377.144 306.816 365.664 300.648" fill="black"/>
</g>
<path d="M360.504 303.461C360.72 303.245 360.962 303.057 361.224 302.901C361.704 302.557 362.416 302.101 363.328 301.573C368.082 298.825 373.352 297.084 378.808 296.461C379.848 296.349 380.696 296.293 381.28 296.285C381.582 296.244 381.889 296.244 382.192 296.285C382.192 296.349 380.904 296.429 378.84 296.733C376.155 297.126 373.508 297.747 370.928 298.589C368.355 299.44 365.861 300.51 363.472 301.789C361.6 302.813 360.544 303.517 360.504 303.461Z" fill="#263238"/>
<path d="M154.744 196.406C156.941 195.381 159.358 194.919 161.778 195.06C164.198 195.201 166.545 195.942 168.608 197.215C170.67 198.489 172.384 200.255 173.595 202.355C174.806 204.455 175.476 206.823 175.544 209.246C166.704 208.59 158.152 205.878 154.744 196.406Z" fill="#8EBDF3"/>
<g opacity="0.3">
<path d="M154.744 196.406C156.941 195.381 159.358 194.919 161.778 195.06C164.198 195.201 166.545 195.942 168.608 197.215C170.67 198.489 172.384 200.255 173.595 202.355C174.806 204.455 175.476 206.823 175.544 209.246C166.704 208.59 158.152 205.878 154.744 196.406Z" fill="black"/>
</g>
<path d="M150.353 195.376C150.586 195.338 150.823 195.338 151.057 195.376C151.693 195.445 152.326 195.546 152.953 195.68C155.024 196.113 157.046 196.759 158.985 197.608C160.922 198.466 162.766 199.52 164.489 200.752C165.145 201.232 165.657 201.64 165.993 201.944C166.182 202.087 166.351 202.254 166.497 202.44C166.449 202.496 165.697 201.88 164.321 201C160.824 198.693 156.957 197.002 152.889 196C151.329 195.608 150.345 195.44 150.353 195.376Z" fill="#263238"/>
<path d="M441.408 290.847C441.148 288.694 441.426 286.51 442.22 284.491C443.013 282.473 444.296 280.683 445.952 279.284C447.609 277.884 449.588 276.918 451.71 276.473C453.833 276.029 456.033 276.118 458.112 276.735C455.096 284.071 450.408 290.591 441.408 290.847Z" fill="#8EBDF3"/>
<path d="M439.304 294.295C439.548 293.547 439.884 292.832 440.304 292.167C442.191 288.867 444.757 286.004 447.832 283.767C448.448 283.278 449.123 282.867 449.84 282.543C449.253 283.061 448.639 283.547 448 283.999C445.063 286.329 442.542 289.139 440.544 292.311C440.169 292.996 439.755 293.658 439.304 294.295Z" fill="#263238"/>
<path d="M504.361 249.287C503.7 247.221 503.564 245.024 503.963 242.892C504.363 240.761 505.286 238.762 506.65 237.076C508.014 235.39 509.776 234.07 511.776 233.234C513.777 232.398 515.955 232.072 518.113 232.287C516.513 240.063 513.153 247.343 504.361 249.287Z" fill="#8EBDF3"/>
<g opacity="0.3">
<path d="M504.36 249.287C503.699 247.221 503.563 245.024 503.962 242.892C504.362 240.761 505.285 238.762 506.649 237.076C508.013 235.39 509.775 234.07 511.775 233.234C513.776 232.398 515.954 232.072 518.112 232.287C516.512 240.063 513.152 247.343 504.36 249.287Z" fill="black"/>
</g>
<path d="M502.944 253.071C503.041 252.292 503.238 251.529 503.528 250.799C504.141 249.003 504.945 247.278 505.928 245.655C506.902 244.028 508.05 242.513 509.352 241.135C509.863 240.532 510.446 239.995 511.088 239.535C510.613 240.154 510.106 240.746 509.568 241.311C508.352 242.735 507.253 244.255 506.28 245.855C505.326 247.462 504.499 249.142 503.808 250.879C503.563 251.626 503.274 252.358 502.944 253.071Z" fill="#263238"/>
<path d="M29.8242 192.079C30.2946 189.962 31.284 187.995 32.7036 186.355C34.1231 184.715 35.9282 183.454 37.9563 182.685C39.9843 181.916 42.1718 181.664 44.3217 181.951C46.4716 182.237 48.5164 183.054 50.2722 184.327C44.9922 190.239 38.4002 194.831 29.8242 192.079Z" fill="#8EBDF3"/>
<path d="M26.6963 194.63C27.1775 194.009 27.7307 193.448 28.3443 192.958C29.7788 191.73 31.3395 190.657 33.0003 189.758C34.6625 188.842 36.4195 188.11 38.2403 187.574C38.9813 187.313 39.7531 187.149 40.5363 187.086C39.8153 187.392 39.0783 187.66 38.3283 187.886C34.7831 189.103 31.4716 190.915 28.5363 193.246C27.9507 193.743 27.3363 194.205 26.6963 194.63Z" fill="#263238"/>
<path d="M395.496 87.684L401.896 76.092C397.788 69.5662 396.27 61.7399 397.64 54.1516C399.01 46.5632 403.168 39.7616 409.298 35.0836C415.428 30.4055 423.086 28.1895 430.767 28.8709C438.447 29.5524 445.596 33.0821 450.806 38.7663C456.017 44.4505 458.912 51.878 458.925 59.589C458.937 67.2999 456.065 74.7366 450.872 80.4373C445.68 86.1381 438.543 89.6905 430.864 90.3964C423.186 91.1023 415.521 88.9105 409.376 84.252L395.496 87.684Z" fill="white"/>
<path d="M395.496 87.6833L409.392 84.1633L409.336 84.3313L408.848 83.7153L409.488 84.1873C411.455 85.6613 413.587 86.9017 415.84 87.8833C418.523 89.0375 421.357 89.8052 424.256 90.1633C425.861 90.3637 427.481 90.4226 429.096 90.3393C429.896 90.2833 430.776 90.2513 431.632 90.1713L434.2 89.7473C441.861 88.1516 448.626 83.6976 453.12 77.2913C455.616 73.7489 457.329 69.7154 458.144 65.4593C458.963 60.9544 458.778 56.3241 457.6 51.8993C456.402 47.2794 454.123 43.0103 450.952 39.4433L449.696 38.0913C449.28 37.6353 448.792 37.2913 448.344 36.8433C447.903 36.4202 447.438 36.0223 446.952 35.6513L445.48 34.5713C445.01 34.2145 444.515 33.891 444 33.6033L442.4 32.6593L440.8 31.8593C440.282 31.589 439.748 31.3512 439.2 31.1473C434.849 29.4692 430.176 28.7938 425.528 29.1713C421.131 29.5049 416.861 30.8051 413.024 32.9793C406.125 36.8975 400.989 43.3104 398.672 50.8993C397.755 54.1347 397.329 57.4894 397.408 60.8513C397.592 66.2376 399.193 71.4803 402.048 76.0513V76.0993V76.1553L395.528 87.6913L401.872 76.0513V76.1553C398.965 71.5799 397.323 66.3159 397.112 60.8993C397.016 57.5065 397.434 54.1188 398.352 50.8513C400.668 43.1688 405.838 36.6648 412.8 32.6753C416.686 30.4716 421.01 29.1497 425.464 28.8033C430.174 28.4195 434.909 29.1003 439.32 30.7953C439.887 31.0004 440.44 31.2409 440.976 31.5153L442.624 32.3153L444.224 33.2513C444.761 33.5498 445.276 33.8838 445.768 34.2513L447.2 35.3233C447.712 35.6753 448.136 36.1233 448.616 36.5313C449.096 36.9393 449.56 37.3313 449.984 37.7953L451.288 39.2033C454.508 42.8138 456.818 47.1423 458.024 51.8273C459.196 56.3113 459.365 60.9984 458.52 65.5553C457.698 69.8747 455.957 73.967 453.416 77.5553C448.865 84.0325 442.011 88.5257 434.256 90.1153L431.648 90.5393C430.792 90.6193 429.936 90.6433 429.096 90.6993C427.464 90.779 425.828 90.7121 424.208 90.4993C421.281 90.1316 418.423 89.3449 415.72 88.1633C413.444 87.1666 411.296 85.9016 409.32 84.3953L409.464 84.2513L409.568 84.3793H409.408L395.496 87.6833Z" fill="#263238"/>
<path d="M419.488 54.4054L423.488 54.3654C423.48 53.9087 423.565 53.4553 423.736 53.032C423.908 52.6087 424.163 52.2244 424.486 51.9018C424.809 51.5793 425.194 51.3251 425.618 51.1546C426.042 50.9841 426.495 50.9007 426.952 50.9094C427.627 50.8722 428.296 51.0496 428.863 51.4161C429.431 51.7825 429.868 52.3193 430.112 52.9494C430.33 53.472 430.42 54.0386 430.377 54.6031C430.334 55.1675 430.158 55.7138 429.864 56.1974C429.192 57.3254 427.712 58.3574 425 57.9094L425.088 66.9574H429.088L429.016 61.6054C430.64 61.1107 432.057 60.0971 433.049 58.72C434.042 57.343 434.556 55.6784 434.512 53.9814C434.456 48.1174 429.184 46.7814 426.928 46.8294C425.208 46.8694 419.344 47.3414 419.488 54.4054Z" fill="#8EBDF3"/>
<path d="M429.137 68.7856L425.113 68.8242L425.149 72.584L429.173 72.5454L429.137 68.7856Z" fill="#8EBDF3"/>
</svg>
