<svg xmlns="http://www.w3.org/2000/svg" width="19.542" height="19" viewBox="0 0 19.542 19">
  <g id="cat" transform="translate(-0.6 -1.4)">
    <g id="Сгруппировать_12311" data-name="Сгруппировать 12311" transform="translate(7.526 10.854)">
      <path id="Контур_15582" data-name="Контур 15582" d="M27.846,32.857a.32.32,0,0,0-.361.06L26.43,33.971l-1.084-1.084a.32.32,0,0,0-.361-.06A2.546,2.546,0,0,0,23.6,35.116v3.613a.284.284,0,0,0,.3.3h.572l-.12,3.011a.309.309,0,0,0,.3.3h1.024a.293.293,0,0,0,.3-.241l.452-2.017.452,2.017a.293.293,0,0,0,.3.241h1.024a.273.273,0,0,0,.211-.09.325.325,0,0,0,.09-.211l-.12-3.011h.572a.284.284,0,0,0,.3-.3V35.116A2.564,2.564,0,0,0,27.846,32.857Zm.813,5.571h-.3l-.09-2.68a.3.3,0,1,0-.6,0l.241,5.992h-.482l-.693-3.1a.383.383,0,0,0-.241-.241h-.06a.324.324,0,0,0-.3.241l-.693,3.132h-.482l.241-5.992a.284.284,0,0,0-.3-.3.3.3,0,0,0-.3.3l-.09,2.68h-.3V35.146a2,2,0,0,1,.873-1.656L26.19,34.6a.291.291,0,0,0,.422,0l1.114-1.114a1.962,1.962,0,0,1,.873,1.656v3.282Z" transform="translate(-23.6 -32.796)" fill="#fff"/>
    </g>
    <g id="Сгруппировать_12312" data-name="Сгруппировать 12312" transform="translate(8.459 7.091)">
      <path id="Контур_15583" data-name="Контур 15583" d="M28.6,24.094a1.908,1.908,0,0,0,1.9-1.9,1.889,1.889,0,0,0-1.9-1.9,1.9,1.9,0,0,0,0,3.794Zm0-3.162A1.295,1.295,0,1,1,27.3,22.227,1.324,1.324,0,0,1,28.6,20.932Z" transform="translate(-26.7 -20.3)" fill="#fff"/>
    </g>
    <g id="Сгруппировать_12313" data-name="Сгруппировать 12313" transform="translate(0.6 1.4)">
      <path id="Контур_15584" data-name="Контур 15584" d="M15.987,11.487h1.626a1.285,1.285,0,0,0,1.235.994,1.3,1.3,0,0,0,1.295-1.295,1.279,1.279,0,0,0-1.295-1.265,1.265,1.265,0,0,0-1.235.964H15.987a5.252,5.252,0,0,0-.6-2.258L16.8,7.814a1.126,1.126,0,0,0,.6.361,1.235,1.235,0,0,0,.331.03,1.185,1.185,0,0,0,.632-.181A1.281,1.281,0,1,0,17.1,5.8a1.262,1.262,0,0,0-.572,1.475l-1.415.813a5.431,5.431,0,0,0-1.656-1.656l.813-1.415a1.511,1.511,0,0,0,.361.06,1.314,1.314,0,0,0,1.114-.632,1.262,1.262,0,0,0-.482-1.746,1.2,1.2,0,0,0-.964-.12,1.3,1.3,0,0,0-.783.6,1.279,1.279,0,0,0,.241,1.566l-.813,1.415a5.252,5.252,0,0,0-2.258-.6V3.929a1.285,1.285,0,0,0,.994-1.235,1.295,1.295,0,1,0-2.59,0,1.26,1.26,0,0,0,.994,1.235V5.555a5.252,5.252,0,0,0-2.258.6L7.014,4.742a1.126,1.126,0,0,0,.361-.6A1.282,1.282,0,0,0,5.508,2.695a1.316,1.316,0,0,0-.482,1.746,1.25,1.25,0,0,0,1.114.632,1.511,1.511,0,0,0,.361-.06l.813,1.415A5.431,5.431,0,0,0,5.659,8.085L4.213,7.3a1.317,1.317,0,0,0-.572-1.475A1.281,1.281,0,0,0,2.377,8.055a1.2,1.2,0,0,0,.964.12,1.25,1.25,0,0,0,.6-.361l1.415.813a5.252,5.252,0,0,0-.6,2.258H3.1a1.258,1.258,0,0,0-1.235-.964A1.272,1.272,0,0,0,.6,11.186a1.3,1.3,0,0,0,1.265,1.295A1.26,1.26,0,0,0,3.1,11.487H4.725a5.368,5.368,0,0,0,.6,2.258l-1.415.813a1.279,1.279,0,0,0-1.566-.241,1.3,1.3,0,0,0-.6.783,1.34,1.34,0,0,0,.12.964,1.316,1.316,0,0,0,1.746.482,1.262,1.262,0,0,0,.572-1.475L5.6,14.257a5.822,5.822,0,0,0,.662.843.3.3,0,0,0,.422-.422,5.054,5.054,0,1,1,8.7-3.493,5.134,5.134,0,0,1-1.626,3.7.3.3,0,1,0,.391.452,5.8,5.8,0,0,0,.873-1.054l1.415.813a1.317,1.317,0,0,0,.572,1.475,1.265,1.265,0,0,0,.632.181,1.314,1.314,0,0,0,1.114-.632,1.2,1.2,0,0,0,.12-.964,1.3,1.3,0,0,0-.6-.783,1.279,1.279,0,0,0-1.566.241l-1.415-.813a4.8,4.8,0,0,0,.693-2.319ZM17.071,6.76a.733.733,0,0,1,.3-.422.686.686,0,0,1,.331-.09.732.732,0,0,1,.6.331.681.681,0,0,1-.241.933.607.607,0,0,1-.512.06.733.733,0,0,1-.422-.3.607.607,0,0,1-.06-.512ZM14.029,3.478a.623.623,0,0,1,.422-.3.382.382,0,0,1,.181-.03.607.607,0,0,1,.331.09.682.682,0,0,1-.693,1.174.623.623,0,0,1-.3-.422.607.607,0,0,1,.06-.512ZM5.508,4.17a.674.674,0,1,1,.9.241A.677.677,0,0,1,5.508,4.17ZM3.159,7.6a.607.607,0,0,1-.512-.06.677.677,0,0,1,.331-1.265.705.705,0,0,1,.662.512A.693.693,0,0,1,3.159,7.6Zm-.753,8.19a.681.681,0,0,1,.241-.933.709.709,0,0,1,.933.241A.682.682,0,0,1,2.407,15.793Zm-.542-3.914a.675.675,0,0,1-.662-.693.668.668,0,0,1,.662-.662.7.7,0,0,1,.693.662A.745.745,0,0,1,1.865,11.879ZM9.694,2.695a.693.693,0,1,1,1.385,0,.681.681,0,0,1-.693.693A.721.721,0,0,1,9.694,2.695Zm9.184,7.829a.678.678,0,1,1,0,1.355.675.675,0,0,1-.662-.693A.632.632,0,0,1,18.877,10.524ZM17.552,14.8a.607.607,0,0,1,.512.06.623.623,0,0,1,.3.422.607.607,0,0,1-.06.512.682.682,0,1,1-1.174-.693.623.623,0,0,1,.422-.3Z" transform="translate(-0.6 -1.4)" fill="#fff"/>
    </g>
  </g>
</svg>
