<svg width="20" height="20" viewBox="0 0 20 20" fill="none" xmlns="http://www.w3.org/2000/svg">
<path d="M9.99415 3.44539e-08C8.01633 3.44539e-08 6.08293 0.58649 4.43844 1.6853C2.79395 2.78412 1.51223 4.3459 0.75535 6.17317C-0.00152653 8.00043 -0.19956 10.0111 0.186292 11.9509C0.572145 13.8907 1.52455 15.6725 2.92308 17.0711C4.3216 18.4696 6.10343 19.422 8.04324 19.8079C9.98305 20.1937 11.9937 19.9957 13.821 19.2388C15.6482 18.4819 17.21 17.2002 18.3088 15.5557C19.4077 13.9112 19.9941 11.9778 19.9941 10C19.9943 8.68675 19.7357 7.38634 19.2332 6.17304C18.7307 4.95973 17.9941 3.8573 17.0655 2.92869C16.1368 2.00008 15.0344 1.26349 13.8211 0.760983C12.6078 0.258474 11.3074 -0.000108979 9.99415 3.44539e-08ZM13.1737 15.1525C13.1362 15.2458 13.0793 15.33 13.0066 15.3996C12.934 15.4691 12.8473 15.5223 12.7524 15.5556C12.6575 15.5889 12.5566 15.6015 12.4565 15.5926C12.3563 15.5837 12.2592 15.5535 12.1717 15.504L9.45699 13.3946L7.71466 15.002C7.67424 15.0319 7.62695 15.0511 7.57714 15.0579C7.52734 15.0647 7.47662 15.0589 7.42967 15.0409L7.76366 12.0525L7.77436 12.061L7.78118 12.002C7.78118 12.002 12.6662 7.55445 12.8652 7.36496C13.0667 7.17596 13.0002 7.13496 13.0002 7.13496C13.0117 6.90443 12.6387 7.13496 12.6387 7.13496L6.16614 11.299L3.47066 10.381C3.47066 10.381 3.05666 10.2325 3.01766 9.906C2.97666 9.582 3.48415 9.406 3.48415 9.406L14.2011 5.14849C14.2011 5.14849 15.0821 4.75597 15.0821 5.406L13.1737 15.1525Z" fill="#388FFF"/>
</svg>
