<svg id="Capa_1" enable-background="new 0 0 512 512" height="512" viewBox="0 0 512 512" width="512" xmlns="http://www.w3.org/2000/svg"><g id="Calendar"><g><path d="m131.998 376h-71.998c-33.084 0-60-26.916-60-60v-240c0-33.084 26.916-60 60-60h95.432c16.026 0 31.094 6.241 42.426 17.573l22.426 22.427h111.716c33.084 0 60 26.916 60 60v50.704c0 11.046-8.954 20-20 20s-20-8.954-20-20v-50.704c0-11.028-8.972-20-20-20h-120c-5.304 0-10.392-2.107-14.142-5.858l-28.284-28.284c-3.777-3.777-8.8-5.858-14.142-5.858h-95.432c-11.028 0-20 8.972-20 20v240c0 11.028 8.972 20 20 20h71.998c11.046 0 20 8.954 20 20s-8.955 20-20 20z"/></g><path d="m452 256h-20v-20c0-11.046-8.954-20-20-20s-20 8.954-20 20v20h-80v-20c0-11.046-8.954-20-20-20s-20 8.954-20 20v20h-20c-33.084 0-60 26.916-60 60v120c0 33.084 26.916 60 60 60h200c33.084 0 60-26.916 60-60v-120c0-33.084-26.916-60-60-60zm20 180c0 11.028-8.972 20-20 20h-200c-11.028 0-20-8.972-20-20v-120c0-11.028 8.972-20 20-20h20v20c0 11.046 8.954 20 20 20s20-8.954 20-20v-20h80v20c0 11.046 8.954 20 20 20s20-8.954 20-20v-20h20c11.028 0 20 8.972 20 20z"/></g></svg>