<svg id="Capa_1" enable-background="new 0 0 512 512" height="512" viewBox="0 0 512 512" width="512" xmlns="http://www.w3.org/2000/svg"><g id="Mansion"><g><circle cx="256" cy="100" r="20"/></g><path d="m472 169.893c23.278-8.256 40-30.487 40-56.56v-40c0-33.084-26.916-60-60-60h-158.229c-10.545-8.59-23.732-13.333-37.771-13.333s-27.226 4.743-37.771 13.333h-158.229c-33.084 0-60 26.916-60 60v40c0 26.073 16.722 48.303 40 56.56v106.107h-20c-11.046 0-20 8.954-20 20s8.954 20 20 20h20v156h-20c-11.046 0-20 8.954-20 20s8.954 20 20 20h472c11.046 0 20-8.954 20-20s-8.954-20-20-20h-20v-96c0-11.046-8.954-20-20-20s-20 8.954-20 20v16h-36c-11.046 0-20 8.954-20 20s8.954 20 20 20h36v40h-96v-60c0-31.925-25.794-56-60-56h-40c-34.206 0-60 24.075-60 56v60h-96v-40h36c11.046 0 20-8.954 20-20s-8.954-20-20-20h-36v-76h412c11.046 0 20-8.954 20-20s-8.954-20-20-20h-20zm-256 242.107c0-11.81 10.774-16 20-16h40c9.227 0 20 4.19 20 16v60h-80zm236-358.667c11.028 0 20 8.972 20 20v40c0 11.028-8.972 20-20 20h-56c-6.262 0-12.243-2.99-16-8l-54-72zm-412 20c0-11.028 8.972-20 20-20h126l-54 72c-3.757 5.009-9.738 8-16 8h-56c-11.028 0-20-8.972-20-20zm256 202.667h-80v-56c0-11.028 8.972-20 20-20h40c11.028 0 20 8.972 20 20zm40 0v-56c0-33.084-26.916-60-60-60h-40c-33.084 0-60 26.916-60 60v56h-96v-36h36c11.046 0 20-8.954 20-20s-8.954-20-20-20h-36v-26.667h36c18.785 0 36.729-8.972 48-24l76-101.333c3.813-5.084 9.645-8 16-8s12.187 2.916 16 8l76 101.333c11.271 15.028 29.214 24 48 24h36v26.667h-36c-11.046 0-20 8.954-20 20s8.954 20 20 20h36v36z"/></g></svg>