<svg id="Capa_1" enable-background="new 0 0 512.013 512.013" height="512" viewBox="0 0 512.013 512.013" width="512" xmlns="http://www.w3.org/2000/svg"><g id="Search"><path d="m311.99 100c-55.141 0-100 44.86-100 100s44.859 100 100 100 100-44.86 100-100-44.859-100-100-100zm56.56 80h-36.56v-36.56c17.019 6.036 30.524 19.542 36.56 36.56zm-56.56 80c-33.084 0-60-26.916-60-60 0-26.073 16.722-48.303 40-56.56v56.56c0 11.046 8.954 20 20 20h56.56c-8.256 23.278-30.487 40-56.56 40z"/><path d="m311.99 0c-110.28 0-200 89.719-200 200 0 33.337 8.21 64.788 22.697 92.456l-117.12 117.121c-23.392 23.392-23.392 61.454 0 84.847 23.454 23.453 61.393 23.453 84.848 0l70.409-70.409c7.811-7.811 7.811-20.474 0-28.284-7.811-7.811-20.475-7.811-28.285 0l-70.409 70.409c-7.82 7.82-20.458 7.82-28.277 0-7.797-7.796-7.797-20.482 0-28.278l111.353-111.353c36.706 44.829 92.459 73.491 154.784 73.491 110.28 0 200-89.719 200-200s-89.719-200-200-200zm0 360c-88.225 0-160-71.776-160-160s71.775-160 160-160 160 71.776 160 160-71.775 160-160 160z"/></g></svg>