<svg id="Layer_1" enable-background="new 0 0 512 512" height="512" viewBox="0 0 512 512" width="512" xmlns="http://www.w3.org/2000/svg"><path d="m392 512h-182c-26.508-.983-26.488-39.026 0-40h182c44.112 0 80-35.888 80-80v-272c0-44.112-35.888-80-80-80h-182c-26.508-.983-26.488-39.026 0-40h182c66.168 0 120 53.832 120 120v272c0 66.168-53.832 120-120 120zm-262 0h-10c-66.168 0-120-53.832-120-120v-272c0-66.168 53.832-120 120-120h10c11.046 0 20 8.954 20 20v472c0 11.046-8.954 20-20 20zm-20-471.378c-39.409 4.937-70 38.653-70 79.378v272c0 40.725 30.591 74.44 70 79.378zm277 358.378h-149c-26.508-.983-26.488-39.026 0-40h149c26.508.983 26.488 39.026 0 40zm29-199h-1.637c-.047-.11-.081-.224-.129-.333l-17.929-39.78-.05-.11c-8.335-18.199-25.967-31.534-45.493-35.671-22.178-5.252-59.096-5.393-81.311-.144-19.615 4.134-35.31 17.481-43.657 35.704l-.05.111-17.978 39.889c-.049.109-.082.223-.129.333h-1.637c-26.508.983-26.488 39.026 0 40v18.484c0 20.007 12.507 37.104 30 43.658v3.859c.983 26.508 39.026 26.488 40 0v-1h70v1c.983 26.508 39.026 26.488 40 0v-3.858c17.493-6.553 30-23.651 30-43.658v-18.484c26.508-.983 26.488-39.026 0-40zm-153.817-23.723c3.098-6.724 9.269-11.647 16.516-13.174 15.784-4.089 49.157-3.918 64.773.135 7.178 1.521 13.303 6.435 16.396 13.15l10.641 23.612h-119.018zm-2.183 99.723c-13.255 0-24-10.745-24-24 1.177-31.801 46.828-31.793 48 0 0 13.255-10.745 24-24 24zm102 0c-13.255 0-24-10.745-24-24 1.177-31.801 46.828-31.793 48 0 0 13.255-10.745 24-24 24z"/></svg>