<svg id="Capa_1" enable-background="new 0 0 512 512" height="512" viewBox="0 0 512 512" width="512" xmlns="http://www.w3.org/2000/svg"><g><path d="m372 191.995c-3.423 0-6.879.125-10.271.372-11.017.802-19.298 10.382-18.496 21.399.801 11.016 10.381 19.308 21.398 18.496 2.432-.177 4.91-.267 7.369-.267 55.141 0 100 44.86 100 100v103.427c-6.258-2.219-12.991-3.427-20-3.427h-80c-51.211 0-93.952-38.329-99.42-89.156-1.181-10.983-11.044-18.921-22.024-17.746-10.982 1.182-18.928 11.042-17.746 22.024 3.672 34.135 19.776 65.661 45.347 88.771 25.764 23.284 59.092 36.107 93.844 36.107h80c11.028 0 20 8.972 20 20 0 11.046 8.954 20 20 20s20-8.954 20-20v-160c-.001-77.196-62.805-140-140.001-140z"/><path d="m20 399.995c11.046 0 20-8.954 20-20 0-33.084 26.916-60 60-60h52.386.001c46.623 0 91.767-19.322 123.844-53.008 30.177-31.69 45.652-72.506 43.576-114.93-1.943-39.687-18.517-77.047-46.669-105.2-28.152-28.152-65.513-44.726-105.2-46.668-42.395-2.073-83.238 13.398-114.929 43.576-33.688 32.079-53.009 77.218-53.009 123.845v212.385c0 11.046 8.954 20 20 20zm20-232.385c0-35.73 14.796-70.312 40.593-94.878 22.29-21.226 50.461-32.726 79.859-32.726 1.838 0 3.684.045 5.53.135 61.888 3.029 110.842 51.983 113.871 113.872 1.536 31.381-10.038 61.706-32.591 85.39-24.565 25.797-59.146 40.592-94.877 40.592h-52.385c-22.491 0-43.276 7.466-60 20.047z"/><path d="m220 179.995c11.046 0 20-8.954 20-20s-8.954-20-20-20h-120c-11.046 0-20 8.954-20 20s8.954 20 20 20z"/><path d="m426.143 277.853c-7.811-7.811-20.475-7.811-28.285 0l-80 80c-7.811 7.811-7.811 20.474 0 28.284 3.905 3.905 9.024 5.858 14.143 5.858s10.237-1.953 14.143-5.858l80-80c7.809-7.81 7.809-20.474-.001-28.284z"/><circle cx="332" cy="291.995" r="20"/><circle cx="412" cy="371.995" r="20"/></g></svg>