<svg width="24.000000" height="24.000000" viewBox="0 0 24 24" fill="none" xmlns="http://www.w3.org/2000/svg" xmlns:xlink="http://www.w3.org/1999/xlink">
	<desc>
			Created with Pixso.
	</desc>
	<defs>
		<clipPath id="clip1_1905">
			<rect id="007-headphones" rx="-0.214178" width="11.571644" height="11.571644" transform="translate(6.214178 6.214178)" fill="white" fill-opacity="0"/>
		</clipPath>
	</defs>
	<rect id="Frame 4730057" rx="5.750000" width="23.500000" height="23.500000" transform="translate(0.250000 0.250000)" fill="#E7F6FF" fill-opacity="1.000000"/>
	<rect id="007-headphones" rx="-0.214178" width="11.571644" height="11.571644" transform="translate(6.214178 6.214178)" fill="#FFFFFF" fill-opacity="0"/>
	<g clip-path="url(#clip1_1905)">
		<path id="Vector" d="M15.74 7.55C14.74 6.55 13.41 6 11.99 6C10.58 6 9.25 6.55 8.25 7.55C7.25 8.55 6.7 9.88 6.7 11.29L6.7 14.22C6.7 15 7.33 15.64 8.11 15.65L8.11 16.35L10.45 16.35L10.45 12.16L8.11 12.16L8.11 12.86L7.4 12.86L7.4 11.29C7.4 10.58 7.56 9.9 7.86 9.3L7.92 9.33C8.15 9.47 8.4 9.53 8.65 9.53C9.04 9.53 9.42 9.38 9.7 9.09C10.3 8.45 11.12 8.1 11.99 8.1C12.87 8.1 13.69 8.45 14.29 9.09C14.75 9.57 15.49 9.67 16.07 9.33L16.13 9.3C16.42 9.9 16.59 10.58 16.59 11.29L16.59 12.86L15.88 12.86L15.88 12.16L13.54 12.16L13.54 16.35L15.18 16.35L15.18 17.29L11.29 17.29L11.29 18L15.88 18L15.88 15.65C16.66 15.64 17.29 15 17.29 14.22L17.29 11.29C17.29 9.88 16.74 8.55 15.74 7.55ZM8.11 13.57L8.11 14.95C7.72 14.93 7.4 14.61 7.4 14.22L7.4 13.57L8.11 13.57ZM15.74 8.25C15.44 8.42 15.48 7.99 15.24 7.75C14.51 6.97 13.06 6.7 11.99 6.7C10.93 6.7 9.48 6.97 8.74 7.75C8.51 7.99 7.74 8.5 8.27 8.73L8.21 8.69C9.04 7.49 10.43 6.7 11.99 6.7C13.56 6.7 14.95 7.49 15.78 8.69L15.74 8.25ZM15.88 14.95L15.88 13.57L16.59 13.57L16.59 14.22C16.59 14.61 16.27 14.93 15.88 14.95Z" fill="#0083CA" fill-opacity="1.000000" fill-rule="nonzero"/>
	</g>
</svg>
