<svg width="24" height="24" viewBox="0 0 24 24" fill="none" xmlns="http://www.w3.org/2000/svg">
<path d="M18.0689 4.58543C16.4017 2.91816 14.185 2 11.8272 2C9.46938 2 7.25266 2.91816 5.58543 4.58543C3.9182 6.2527 3 8.46937 3 10.8272V15.7074C3 17.0089 4.04887 18.0695 5.34562 18.0897V19.2634H9.25406V12.2725H5.34562V13.4453H4.17188V10.8272C4.17188 9.63863 4.44418 8.51246 4.92965 7.50777L5.03152 7.5666C5.41531 7.7882 5.83719 7.89602 6.25484 7.89602C6.89777 7.89602 7.53078 7.64047 7.99922 7.15102C9.00852 6.09641 10.368 5.51562 11.8272 5.51562C13.2864 5.51562 14.6459 6.09641 15.6552 7.15098C16.4279 7.95832 17.6482 8.12922 18.6229 7.56656L18.7247 7.50773C19.2102 8.51242 19.4825 9.63859 19.4825 10.8271V13.4453H18.3088V12.2725H14.4003V19.2634H17.1369V20.8281H10.6543V22H18.3088V18.0897C19.6055 18.0695 20.6544 17.0089 20.6544 15.7074V10.8272C20.6544 8.46934 19.7362 6.25266 18.0689 4.58543ZM5.34562 14.6172V16.9178C4.69504 16.8979 4.17188 16.3628 4.17188 15.7074V14.6172H5.34562ZM18.0772 5.7501C17.5716 6.04202 17.6421 5.33286 17.2439 4.91677C16.0113 3.62903 13.6092 3.17188 11.8272 3.17188C10.0452 3.17188 7.64303 3.62903 6.41053 4.91677C6.01229 5.3329 4.74386 6.16677 5.61746 6.55172L5.51922 6.495C6.90094 4.48941 9.21293 3.17188 11.8272 3.17188C14.4414 3.17188 16.7534 4.48941 18.1351 6.495L18.0772 5.7501ZM18.3088 16.9178V14.6172H19.4825V15.7074C19.4825 16.3627 18.9593 16.8978 18.3088 16.9178Z" fill="#388FFF"/>
</svg>
