<svg xmlns="http://www.w3.org/2000/svg" width="23.777" height="23.783"><g data-name="Group 42560"><g data-name="Group 42562" fill="#891538"><path data-name="Path 101621" d="M16.667 23.783c-.41-.069-.824-.122-1.23-.211a15.928 15.928 0 0 1-4.321-1.769 23.048 23.048 0 0 1-5.678-4.455A22.461 22.461 0 0 1 .696 9.976a9.672 9.672 0 0 1-.694-3.158 3.808 3.808 0 0 1 1.04-2.909c.629-.641 1.235-1.31 1.911-1.9a2.18 2.18 0 0 1 3.192.044c1.066 1 2.091 2.049 3.087 3.12a2.117 2.117 0 0 1 .011 2.882c-.527.6-1.109 1.145-1.667 1.714-.048.049-.1.092-.2.173a16.209 16.209 0 0 0 6.4 6.388c.46-.466.893-.907 1.33-1.345a3.356 3.356 0 0 1 1.204-.882 2.008 2.008 0 0 1 2.188.391q1.674 1.592 3.261 3.274a2.138 2.138 0 0 1 .058 2.854c-.682.789-1.425 1.529-2.176 2.254a3.332 3.332 0 0 1-1.939.867 1.063 1.063 0 0 0-.154.043Zm.325-1.351a2.563 2.563 0 0 0 2-.784c.5-.526 1.017-1.041 1.526-1.562.065-.066.127-.136.185-.208a.915.915 0 0 0-.026-1.318c-.409-.444-.844-.864-1.27-1.292-.552-.554-1.1-1.111-1.662-1.656a.886.886 0 0 0-1.307-.035c-.082.07-.159.148-.236.224-.532.53-1.06 1.065-1.6 1.591a1.017 1.017 0 0 1-1.274.211c-.324-.164-.65-.328-.961-.514a16.672 16.672 0 0 1-3.719-3.086 13.4 13.4 0 0 1-2.459-3.5 1.136 1.136 0 0 1 .3-1.574c.556-.539 1.113-1.078 1.646-1.638a.881.881 0 0 0 0-1.342c-.051-.058-.1-.115-.158-.17L5.351 3.148a1 1 0 0 0-1.628-.014c-.54.533-1.091 1.057-1.6 1.616a3.012 3.012 0 0 0-.59.9 3.814 3.814 0 0 0-.05 2.2 13.315 13.315 0 0 0 1.166 3.219 21.983 21.983 0 0 0 3.415 4.955 21.464 21.464 0 0 0 8.586 5.928 7.807 7.807 0 0 0 2.342.484"/><path data-name="Path 101622" d="M23.777 10.675c-.006.005-.014.009-.017.016-.144.4-.377.593-.689.573-.378-.024-.6-.241-.685-.694a11.238 11.238 0 0 0-1.938-4.575 11.167 11.167 0 0 0-5.032-3.97 22.775 22.775 0 0 0-2.331-.684.7.7 0 0 1-.593-.823.691.691 0 0 1 .879-.5 12.644 12.644 0 0 1 5.151 2.17 12.86 12.86 0 0 1 5.208 8.193 1.378 1.378 0 0 0 .047.154Z"/><path data-name="Path 101623" d="M13.019 4.285a12.241 12.241 0 0 1 1.224.323 7.743 7.743 0 0 1 5.2 6.032.675.675 0 0 1-1.309.334 13.605 13.605 0 0 0-.491-1.566 6.346 6.346 0 0 0-4.732-3.752.673.673 0 0 1-.615-.622.66.66 0 0 1 .464-.7c.065-.021.135-.028.264-.055"/></g></g></svg>