<svg height="512pt" viewBox="-16 0 512 512" width="512pt" xmlns="http://www.w3.org/2000/svg"><path d="m191.734375 192.800781h-96.402344c-8.28125 0-15 6.714844-15 15 0 8.285157 6.71875 15 15 15h96.402344c8.28125 0 15-6.714843 15-15 0-8.285156-6.71875-15-15-15zm0 0"/><path d="m191.734375 257.066406h-96.402344c-8.28125 0-15 6.714844-15 15s6.71875 15 15 15h96.402344c8.28125 0 15-6.714844 15-15s-6.71875-15-15-15zm0 0"/><path d="m191.734375 321.332031h-96.402344c-8.28125 0-15 6.71875-15 15 0 8.285157 6.71875 15 15 15h96.402344c8.28125 0 15-6.714843 15-15 0-8.28125-6.71875-15-15-15zm0 0"/><path d="m191.734375 385.601562h-96.402344c-8.28125 0-15 6.714844-15 15 0 8.28125 6.71875 15 15 15h96.402344c8.28125 0 15-6.71875 15-15 0-8.285156-6.71875-15-15-15zm0 0"/><path d="m475.472656 277.527344-27.738281-27.742188v-25.917968c0-8.285157-6.71875-15-15-15h-25.921875l-23.347656-23.347657v-138.386719c0-25.988281-21.140625-47.132812-47.132813-47.132812h-224.933593c-3.976563 0-7.792969 1.578125-10.605469 4.394531l-96.398438 96.398438c-2.8125 2.8125-4.394531 6.628906-4.394531 10.605469v353.46875c0 25.988281 21.144531 47.132812 47.132812 47.132812h385.601563c8.28125 0 15-6.714844 15-15v-170.519531l27.738281-27.742188c2.8125-2.8125 4.394532-6.625 4.394532-10.605469 0-3.976562-1.582032-7.792968-4.394532-10.605468zm-74.871094-38.660156h17.132813v17.132812c0 3.980469 1.578125 7.792969 4.394531 10.605469l21.523438 21.527343-21.523438 21.527344c-2.816406 2.8125-4.394531 6.628906-4.394531 10.605469v17.132813h-17.132813c-3.980468 0-7.796874 1.582031-10.609374 4.394531l-21.523438 21.527343-21.527344-21.527343c-2.8125-2.8125-6.628906-4.394531-10.605468-4.394531h-17.136719v-17.132813c0-3.976563-1.578125-7.792969-4.390625-10.605469l-21.527344-21.527344 21.527344-21.527343c2.8125-2.8125 4.390625-6.625 4.390625-10.605469v-17.132812h17.132812c3.980469 0 7.796875-1.582032 10.605469-4.394532l21.527344-21.523437 21.527344 21.523437c2.8125 2.8125 6.628906 4.394532 10.609374 4.394532zm-288.136718-203.722657v60.1875c0 9.449219-7.683594 17.132813-17.132813 17.132813h-60.1875zm-82.464844 429.722657v-322.398438h65.332031c25.988281 0 47.132813-21.144531 47.132813-47.132812v-65.335938h193.867187c9.449219 0 17.132813 7.6875 17.132813 17.132812v138.386719l-23.34375 23.347657h-25.921875c-8.285157 0-15 6.714843-15 15v25.917968l-27.738281 27.742188c-5.859376 5.855468-5.859376 15.355468 0 21.210937l27.738281 27.742188v155.519531h-242.066407c-9.445312 0-17.132812-7.6875-17.132812-17.132812zm289.199219 17.132812v-114.601562h10.921875l27.738281 27.742187c2.8125 2.8125 6.628906 4.394531 10.605469 4.394531 3.980468 0 7.796875-1.582031 10.605468-4.394531l27.742188-27.742187h10.917969v114.601562zm0 0"/></svg>