<svg id="Layer_1" enable-background="new 0 0 512 512" height="512" viewBox="0 0 512 512" width="512" xmlns="http://www.w3.org/2000/svg"><path d="m146.127 131.712-52.028 116.728c-3.013 6.76-9.513 11.304-16.896 11.811-20.862 1.434-37.203 18.954-37.203 39.887v46c0 16.542 13.458 30 30 30 11.046 0 20 8.954 20 20s-8.954 20-20 20c-38.598 0-70-31.402-70-70v-46c0-37.606 26.382-69.709 62.002-77.94l47.589-106.771c16.053-36.017 51.905-59.29 91.338-59.29h91.095c37.761 0 71.887 20.892 89.061 54.522l25.727 50.382c5.023 9.837 1.121 21.884-8.716 26.908-9.837 5.023-21.885 1.121-26.908-8.716l-25.727-50.382c-10.304-20.178-30.78-32.713-53.437-32.713h-31.024v74c-.983 26.508-39.026 26.488-40 0v-74h-20.07c-23.66 0-45.171 13.964-54.803 35.574zm285.873 88.426h-273c-26.508.983-26.488 39.026 0 40h273c22.056 0 40 17.944 40 40v46c0 16.542-13.458 30-30 30-11.046 0-20 8.954-20 20s8.954 20 20 20c38.598 0 70-31.402 70-70v-46c0-44.112-35.888-80-80-80zm-97 116c-26.073 0-48.303 16.722-56.56 40h-44.883c-23.179-62.636-115.283-47.625-116.56 20.001 1.283 67.636 93.392 82.626 116.56 19.999h44.883c23.188 62.644 115.283 47.618 116.56-20.001 0-33.083-26.916-59.999-60-59.999zm-158.002 80c-11.028 0-20-8.972-20-20 1.006-26.496 38.998-26.489 40 0 0 11.028-8.972 20-20 20zm158.002 0c-11.028 0-20-8.972-20-20 1.006-26.496 38.998-26.489 40 0 0 11.028-8.972 20-20 20z"/></svg>