<svg xmlns="http://www.w3.org/2000/svg" width="32.685" height="34.061" viewBox="0 0 32.685 34.061">
  <g id="alarm" transform="translate(-12.528 -6.667)">
    <g id="Сгруппировать_448" data-name="Сгруппировать 448" transform="translate(22.115 35.765)">
      <g id="Сгруппировать_444" data-name="Сгруппировать 444">
        <path id="Контур_521" data-name="Контур 521" d="M80.27,212.268a7.079,7.079,0,0,0,13.51,0Z" transform="translate(-80.27 -212.268)" fill="#808285"/>
      </g>
      <g id="Сгруппировать_445" data-name="Сгруппировать 445" transform="translate(1.094)">
        <path id="Контур_522" data-name="Контур 522" d="M98.378,212.268A7.075,7.075,0,0,1,88,214.4a7.078,7.078,0,0,0,12.416-2.132Z" transform="translate(-88 -212.268)" fill="#58595b"/>
      </g>
      <g id="Сгруппировать_446" data-name="Сгруппировать 446" transform="translate(1.411)">
        <path id="Контур_523" data-name="Контур 523" d="M101.369,212.268a7.074,7.074,0,0,1-11.126,2.522,7.076,7.076,0,0,0,12.1-2.522Z" transform="translate(-90.243 -212.268)" fill="#414042"/>
      </g>
      <g id="Сгруппировать_447" data-name="Сгруппировать 447" transform="translate(1.561 0.566)">
        <path id="Контур_524" data-name="Контур 524" d="M98.86,216.834H98.8a.283.283,0,1,1,0-.566h.056a.283.283,0,1,1,0,.566Zm-1.188,0H91.586a.283.283,0,1,1,0-.566h6.086a.283.283,0,1,1,0,.566Z" transform="translate(-91.303 -216.268)" fill="#939598"/>
      </g>
    </g>
    <path id="Контур_525" data-name="Контур 525" d="M107.031,10.106V9.875a1.51,1.51,0,0,1,3.019,0v.231a9.022,9.022,0,0,1,1.7.457V9.875a3.208,3.208,0,0,0-6.416,0v.687A9.043,9.043,0,0,1,107.031,10.106Z" transform="translate(-79.671 0)" fill="#808285"/>
    <path id="Контур_526" data-name="Контур 526" d="M128.354,9.875v.455c.24.068.476.145.708.233V9.875A3.2,3.2,0,0,0,125.5,6.687,3.212,3.212,0,0,1,128.354,9.875Z" transform="translate(-96.984 0)" fill="#58595b"/>
    <g id="Сгруппировать_449" data-name="Сгруппировать 449" transform="translate(14.718 9.979)">
      <path id="Контур_527" data-name="Контур 527" d="M51.248,45.771V39.161a9.1,9.1,0,1,0-18.191,0v6.609a6.9,6.9,0,0,1-1.811,4.657l-2.888,3.152a1.356,1.356,0,0,0,1,2.272H54.947a1.356,1.356,0,0,0,1-2.272l-2.888-3.152A6.9,6.9,0,0,1,51.248,45.771Z" transform="translate(-28 -30.066)" fill="#d10028"/>
    </g>
    <g id="Сгруппировать_450" data-name="Сгруппировать 450" transform="translate(14.718 10.355)">
      <path id="Контур_528" data-name="Контур 528" d="M55.952,55.863l-2.888-3.152a6.9,6.9,0,0,1-1.811-4.657V41.444a9.1,9.1,0,0,0-6.506-8.719,9.081,9.081,0,0,1,3.675,7.3v6.609A6.9,6.9,0,0,0,50.233,51.3l2.888,3.152a1.356,1.356,0,0,1-1,2.272H28.007a1.356,1.356,0,0,0,1.357,1.415H54.952A1.356,1.356,0,0,0,55.952,55.863Z" transform="translate(-28.006 -32.725)" fill="#b7022d"/>
    </g>
    <g id="Сгруппировать_457" data-name="Сгруппировать 457" transform="translate(12.528 13.79)">
      <g id="Сгруппировать_453" data-name="Сгруппировать 453" transform="translate(27.307 0)">
        <g id="Сгруппировать_451" data-name="Сгруппировать 451" transform="translate(0 1.415)">
          <path id="Контур_529" data-name="Контур 529" d="M206.184,77.945a.708.708,0,0,1-.644-1,11.3,11.3,0,0,0,0-8.945.708.708,0,1,1,1.289-.584,12.771,12.771,0,0,1,0,10.114A.708.708,0,0,1,206.184,77.945Z" transform="translate(-205.476 -67)" fill="#d10028"/>
        </g>
        <g id="Сгруппировать_452" data-name="Сгруппировать 452" transform="translate(2.689)">
          <path id="Контур_530" data-name="Контур 530" d="M225.184,70.776a.708.708,0,0,1-.644-1,14.869,14.869,0,0,0,0-11.776.708.708,0,0,1,1.289-.584,16.344,16.344,0,0,1,0,12.944A.708.708,0,0,1,225.184,70.776Z" transform="translate(-224.476 -57.001)" fill="#d10028"/>
        </g>
      </g>
      <g id="Сгруппировать_456" data-name="Сгруппировать 456" transform="translate(0 0)">
        <g id="Сгруппировать_454" data-name="Сгруппировать 454" transform="translate(2.981 1.415)">
          <path id="Контур_531" data-name="Контур 531" d="M35.281,77.944a.708.708,0,0,1-.645-.416,12.771,12.771,0,0,1,0-10.114A.708.708,0,0,1,35.925,68a11.3,11.3,0,0,0,0,8.945.708.708,0,0,1-.644,1Z" transform="translate(-33.592 -66.999)" fill="#d10028"/>
        </g>
        <g id="Сгруппировать_455" data-name="Сгруппировать 455">
          <path id="Контур_532" data-name="Контур 532" d="M14.509,70.774a.708.708,0,0,1-.645-.416,16.344,16.344,0,0,1,0-12.944A.708.708,0,0,1,15.153,58a14.869,14.869,0,0,0,0,11.776.708.708,0,0,1-.644,1Z" transform="translate(-12.528 -56.999)" fill="#d10028"/>
        </g>
      </g>
    </g>
    <g id="Сгруппировать_460" data-name="Сгруппировать 460" transform="translate(27.101 15.499)">
      <g id="Сгруппировать_458" data-name="Сгруппировать 458" transform="translate(0 0)">
        <path id="Контур_533" data-name="Контур 533" d="M117.269,69.069a1.721,1.721,0,0,0-1.763,1.83l.717,7.97a1.055,1.055,0,0,0,2.092,0l.717-7.97A1.721,1.721,0,0,0,117.269,69.069Z" transform="translate(-115.499 -69.069)" fill="#f1f2f2"/>
      </g>
      <g id="Сгруппировать_459" data-name="Сгруппировать 459" transform="translate(0.038 11.856)">
        <path id="Контур_534" data-name="Контур 534" d="M117.5,152.845a1.652,1.652,0,1,0,1.731,1.65A1.692,1.692,0,0,0,117.5,152.845Z" transform="translate(-115.767 -152.845)" fill="#f1f2f2"/>
      </g>
    </g>
  </g>
</svg>
