<svg xmlns="http://www.w3.org/2000/svg" width="25.435" height="40.947" viewBox="0 0 25.435 40.947">
  <g id="baby-girl" transform="translate(-96.98)">
    <path id="Контур_535" data-name="Контур 535" d="M116.593,181.268a12.118,12.118,0,0,1-12.118-12.118v-3.861a12.118,12.118,0,0,1,24.236,0v3.861A12.118,12.118,0,0,1,116.593,181.268Z" transform="translate(-6.896 -140.92)" fill="#fe646f"/>
    <path id="Контур_536" data-name="Контур 536" d="M137.282,160.908a12.122,12.122,0,0,0-22.6,0,13.081,13.081,0,0,0,22.6,0Z" transform="translate(-16.283 -140.919)" fill="#fd4755"/>
    <path id="Контур_537" data-name="Контур 537" d="M135.181,30.8a10.514,10.514,0,0,1-10.5-10.5V18a10.5,10.5,0,1,1,21,0V20.3A10.514,10.514,0,0,1,135.181,30.8Z" transform="translate(-25.484 -6.9)" fill="#fd8087"/>
    <path id="Контур_538" data-name="Контур 538" d="M163.054,31.255a10.444,10.444,0,0,1,1.9,6.017v2.295a10.5,10.5,0,0,1-16.52,8.6,10.5,10.5,0,0,0,19.1-6.017V39.858a10.5,10.5,0,0,0-4.485-8.6Z" transform="translate(-47.339 -28.755)" fill="#fe646f"/>
    <path id="Контур_539" data-name="Контур 539" d="M338.267,126.015h-1.454v-5.17h1.454a2.585,2.585,0,1,1,0,5.17Z" transform="translate(-220.652 -111.18)" fill="#f6a96c"/>
    <path id="Контур_540" data-name="Контур 540" d="M127.264,126.015h1.454v-5.17h-1.454a2.585,2.585,0,1,0,0,5.17Z" transform="translate(-25.484 -111.18)" fill="#f6a96c"/>
    <path id="Контур_541" data-name="Контур 541" d="M172.356,64.742a7.271,7.271,0,0,1-7.271-7.271v-2.3a7.271,7.271,0,1,1,14.542,0v2.3A7.271,7.271,0,0,1,172.356,64.742Z" transform="translate(-62.658 -44.074)" fill="#fed2a4"/>
    <path id="Контур_542" data-name="Контур 542" d="M242.06,47.907a7.316,7.316,0,0,0-1.212.1,7.272,7.272,0,0,1,6.059,7.17v2.3a7.272,7.272,0,0,1-6.059,7.17,7.274,7.274,0,0,0,8.483-7.17v-2.3A7.271,7.271,0,0,0,242.06,47.907Z" transform="translate(-132.362 -44.076)" fill="#ffbd86"/>
    <path id="Контур_543" data-name="Контур 543" d="M208.495,53.1a5.222,5.222,0,0,1-.486-3.336,7.27,7.27,0,0,0-9.448-.223,4.724,4.724,0,0,0,4.594,3.559,2.229,2.229,0,0,1-.847-2,5.268,5.268,0,0,0,3.973,2,2.417,2.417,0,0,1-1.016-2.138s1.471,2.153,3.23,2.138Z" transform="translate(-93.457 -44.076)" fill="#d77f4a"/>
    <path id="Контур_544" data-name="Контур 544" d="M271.9,54.295s1.471,2.153,3.23,2.138a5.222,5.222,0,0,1-.486-3.336,7.259,7.259,0,0,0-2.817-1.568,7.169,7.169,0,0,1,.071,1.008,7.08,7.08,0,0,1-.909,3.481,4.707,4.707,0,0,0,1.927.415A2.416,2.416,0,0,1,271.9,54.295Z" transform="translate(-160.094 -47.408)" fill="#c86d36"/>
    <g id="Сгруппировать_461" data-name="Сгруппировать 461" transform="translate(102.114 2.463)">
      <path id="Контур_545" data-name="Контур 545" d="M166.022,33.218a1.208,1.208,0,0,0-.355-.857,1.212,1.212,0,0,0-1.212-1.212,1.212,1.212,0,0,0-1.714,0,1.212,1.212,0,0,0-1.212,1.212,1.212,1.212,0,0,0,0,1.714,1.212,1.212,0,0,0,1.212,1.212,1.212,1.212,0,0,0,1.714,0,1.212,1.212,0,0,0,1.212-1.212A1.208,1.208,0,0,0,166.022,33.218Z" transform="translate(-161.175 -30.794)" fill="#ffd15b"/>
    </g>
    <g id="Сгруппировать_462" data-name="Сгруппировать 462" transform="translate(96.98 0)">
      <path id="Контур_546" data-name="Контур 546" d="M120.154,17.128A11.05,11.05,0,0,0,120.8,13.4V12.254s0,0,0,0,0,0,0,0V11.1a11.021,11.021,0,0,0-2.044-6.414.6.6,0,1,0-.978.694,9.819,9.819,0,0,1,1.72,4.3,3.167,3.167,0,0,0-1.883-.618H117.3a7.881,7.881,0,0,0-10.137-5.417,1.814,1.814,0,0,0-1.529-1.414c-.045-.035-.092-.066-.14-.1a9.881,9.881,0,0,1,10.485,1.318.6.6,0,1,0,.763-.926A11.1,11.1,0,0,0,98.6,11.1v1.144s0,0,0,0,0,0,0,0V13.4a11.051,11.051,0,0,0,.646,3.731,12.639,12.639,0,0,0-1.672,3.4.6.6,0,1,0,1.144.362,11.428,11.428,0,0,1,1.1-2.44,11.131,11.131,0,0,0,8.306,5.935,8.217,8.217,0,0,1-4.72,1.5H98.18V24.368c0-.294.011-.585.033-.867a.6.6,0,1,0-1.2-.092c-.024.312-.036.634-.036.958V28.23a12.718,12.718,0,0,0,23.627,6.54.6.6,0,1,0-1.028-.618,11.569,11.569,0,0,1-1.774,2.258l-3.762-3.647a13.923,13.923,0,0,0,1.892-1.6l5.281-5.338v2.4a11.5,11.5,0,0,1-.543,3.5.6.6,0,1,0,1.143.365,12.693,12.693,0,0,0,.6-3.867V24.367a12.613,12.613,0,0,0-2.261-7.239Zm-2.539-6.864a1.988,1.988,0,0,1,1.985,1.981v.009a1.985,1.985,0,0,1-1.985,1.981h-.091a7.914,7.914,0,0,0,.045-.837V11.1a8.007,8.007,0,0,0-.044-.838h.091Zm-1.246.838v2.3a6.671,6.671,0,1,1-13.342,0V11.1a6.632,6.632,0,0,1,.877-3.308,1.807,1.807,0,0,0,1.636-.188A5,5,0,0,0,109.7,9.625a.6.6,0,0,0,.6-.636,5.351,5.351,0,0,0,2.524.636A.6.6,0,0,0,113.4,9.2l.007-.025a3.3,3.3,0,0,0,1.612.451h.025a.6.6,0,0,0,.524-.882,5.4,5.4,0,0,1-.492-1.59,6.619,6.619,0,0,1,1.293,3.949Zm-14.5,3.133h-.091A1.985,1.985,0,0,1,99.8,12.253v-.006a1.988,1.988,0,0,1,1.985-1.982h.091a7.971,7.971,0,0,0-.045.838v2.3A7.915,7.915,0,0,0,101.871,14.235Zm.222-5.17h-.313a3.167,3.167,0,0,0-1.883.619,9.846,9.846,0,0,1,1.7-4.266,1.794,1.794,0,0,0,.291.568,1.808,1.808,0,0,0,.909,1.337A7.8,7.8,0,0,0,102.093,9.064Zm11.8-3.15a5.3,5.3,0,0,0,.173,2.248A5.587,5.587,0,0,1,112.3,6.548a.6.6,0,0,0-1.092.279,2.764,2.764,0,0,0,.193,1.34,4.971,4.971,0,0,1-2.069-1.5.6.6,0,0,0-1.082.291,2.81,2.81,0,0,0,.157,1.283,3.666,3.666,0,0,1-1.773-1.185l.038-.035a1.8,1.8,0,0,0,.515-1.039,1.8,1.8,0,0,0,.371-1.1c0-.034,0-.068,0-.1a6.673,6.673,0,0,1,6.335,1.131ZM105.827,3.6a.608.608,0,0,1,.179.433.6.6,0,0,0,.176.424.612.612,0,0,1,0,.865.6.6,0,0,0-.176.424.612.612,0,0,1-.612.612.6.6,0,0,0-.424.176.612.612,0,0,1-.865,0,.6.6,0,0,0-.424-.176.612.612,0,0,1-.612-.612.6.6,0,0,0-.176-.424.612.612,0,0,1,0-.865.6.6,0,0,0,.176-.424.612.612,0,0,1,.612-.612.6.6,0,0,0,.424-.176.612.612,0,0,1,.865,0,.6.6,0,0,0,.424.176A.608.608,0,0,1,105.827,3.6ZM99.9,14.819a3.162,3.162,0,0,0,1.883.615h.314a7.871,7.871,0,0,0,15.206,0h.314a3.161,3.161,0,0,0,1.883-.615,9.9,9.9,0,0,1-19.6,0Zm17.01,22.391a11.509,11.509,0,0,1-16.262-1.865h5.274A14.165,14.165,0,0,0,113,33.426Zm-1.826-6.889a12.97,12.97,0,0,1-9.162,3.824h-6.1A11.448,11.448,0,0,1,98.18,28.23V27.085H103.4a9.418,9.418,0,0,0,5.957-2.13l.558-.457a11.115,11.115,0,0,0,9.666-6.045,11.41,11.41,0,0,1,1.63,5.674Z" transform="translate(-96.98 0)" fill="#2478dd"/>
      <circle id="Эллипс_53" data-name="Эллипс 53" cx="0.6" cy="0.6" r="0.6" transform="translate(6.958 4.286)" fill="#2478dd"/>
    </g>
  </g>
</svg>
